#N canvas 407 183 563 361 10;
#N canvas 376 160 638 423 motherMain 0;
#X obj 207 92 vsl 15 128 0 1 0 0 empty knob1 KNOB1 -5 -9 0 10 -262144
-1 -1 10230 1;
#X obj 253 92 vsl 15 128 0 1 0 0 empty knob2 KNOB2 -5 -9 0 10 -262144
-1 -1 11024 1;
#X obj 298 92 vsl 15 128 0 1 0 0 empty knob3 KNOB3 -5 -9 0 10 -262144
-1 -1 11223 1;
#X obj 343 92 vsl 15 128 0 1 0 0 empty knob4 KNOB4 -5 -9 0 10 -262144
-1 -1 8144 1;
#X obj 407 92 vsl 15 128 0 1 0 0 empty exp EXP.PEDL. -15 -9 0 10 -262144
-1 -1 100 1;
#X obj 139 299 tgl 15 0 empty aux Aux 17 7 0 10 -262144 -1 -1 0 1;
#X obj 108 110 tgl 15 0 empty fs Foot_Switch 17 7 0 10 -262144 -1 -1
0 1;
#X obj 461 92 vsl 15 128 0 1 0 0 empty vol VOL. -1 -9 0 10 -262144
-1 -1 7846 1;
#X obj 108 169 tgl 15 0 empty encbut Enc._But. 17 7 0 10 -262144 -1
-1 0 1;
#X obj 108 129 tgl 15 0 empty funcBut Fn_But. 17 7 0 10 -262144 -1
-1 0 1;
#X obj 108 188 bng 15 250 50 0 empty encLeft Left_Turn 17 7 0 10 -262144
-1 -1;
#X obj 108 207 bng 15 250 50 0 empty encRight Right_Turn 17 7 0 10
-262144 -1 -1;
#X obj 138 268 cnv 17 17 17 empty empty LED 20 10 0 14 -1 -1 0;
#X obj 139 269 cnv 15 15 15 empty led-canvas empty 20 12 0 14 -1 -262144
0;
#X obj 505 156 tgl 15 0 empty empty MIDI_IN 17 7 0 10 -262144 -1 -1
0 1;
#X obj 505 176 tgl 15 0 empty empty MIDI_OUT 17 7 0 10 -262144 -1 -1
0 1;
#X floatatom 503 115 3 0 0 1 %_CPU_LOAD CPU -;
#N canvas 146 185 922 513 audioIO 0;
#X obj 478 317 dac~;
#X obj 595 147 catch~ outR;
#X obj 443 147 catch~ outL;
#X obj 201 146 adc~, f 6;
#X obj 281 199 s~ inR;
#X obj 123 201 s~ inL;
#X obj 444 267 *~;
#X obj 533 269 *~;
#X obj 707 103 r vol;
#X obj 707 155 *;
#X obj 707 129 t f f;
#X obj 443 191 tb_peakcomp~ -3 8 10 100 0;
#X obj 707 181 sig~;
#X obj 443 220 clip~ -1 1;
#X obj 534 220 clip~ -1 1;
#X obj 710 290 vsl 15 128 0 1 0 0 empty empty empty 0 -9 0 10 -262144
-1 -1 7846 1;
#X obj 710 262 r vol;
#X obj 707 207 lop~ 5;
#X obj 246 289 s inLRaw;
#X obj 181 289 s inRRaw;
#X obj 443 394 s outLRaw;
#X obj 533 394 s outRRaw;
#X obj 533 353 env~;
#X obj 443 353 env~;
#X obj 246 246 env~;
#X obj 181 246 env~;
#X text 202 101 Input;
#X text 509 102 Output;
#X text 36 30 Receives and sends audio to patch. Outgoing audio is
run through a compressor to provide some headroom if things get too
loud. Also sends values to the OLED VU meter.;
#X connect 1 0 11 1;
#X connect 2 0 11 0;
#X connect 3 0 5 0;
#X connect 3 0 25 0;
#X connect 3 1 4 0;
#X connect 3 1 24 0;
#X connect 6 0 0 0;
#X connect 6 0 23 0;
#X connect 7 0 0 1;
#X connect 7 0 22 0;
#X connect 8 0 10 0;
#X connect 9 0 12 0;
#X connect 10 0 9 0;
#X connect 10 1 9 1;
#X connect 11 0 13 0;
#X connect 11 1 14 0;
#X connect 12 0 17 0;
#X connect 13 0 6 0;
#X connect 14 0 7 0;
#X connect 16 0 15 0;
#X connect 17 0 7 1;
#X connect 17 0 6 1;
#X connect 22 0 21 0;
#X connect 23 0 20 0;
#X connect 24 0 18 0;
#X connect 25 0 19 0;
#X restore 7 128 pd audioIO;
#N canvas 247 155 629 150 messageIO 0;
#N canvas 155 195 783 347 LED 0;
#X obj 25 67 % 8;
#X obj 25 18 r led;
#X msg 73 66 0;
#X obj 73 18 r quitting;
#X obj 25 110 sel 0 1 2 3 4 5 6 7, f 49;
#X msg 25 141 0;
#X msg 61 141 4;
#X msg 97 141 5;
#X msg 134 141 1;
#X msg 170 141 3;
#X msg 206 141 2;
#X msg 243 141 6;
#X msg 279 141 7;
#X obj 25 213 i;
#X obj 25 252 s ledState;
#X obj 103 252 s ledStateRaw;
#X obj 356 20 r ledState;
#X obj 356 61 sel 0 1 2 3 4 5 6 7, f 63;
#X msg 402 91 13;
#X msg 449 91 15;
#X msg 496 91 16;
#X msg 543 91 17;
#X msg 590 91 18;
#X msg 637 91 19;
#X msg 356 165 \; led-canvas color \$1;
#X msg 356 91 22;
#X msg 684 93 0;
#X text 356 214 0 - OFF 1 - RED 2 - YELLOW 3 - GREEN 4 - BLUE 5 - DARK
BLUE 6 - PURPLE 7 - WHITE;
#X obj 147 17 loadbang;
#X connect 0 0 4 0;
#X connect 1 0 0 0;
#X connect 2 0 4 0;
#X connect 3 0 2 0;
#X connect 4 0 5 0;
#X connect 4 1 6 0;
#X connect 4 2 7 0;
#X connect 4 3 8 0;
#X connect 4 4 9 0;
#X connect 4 5 10 0;
#X connect 4 6 11 0;
#X connect 4 7 12 0;
#X connect 5 0 13 0;
#X connect 6 0 13 0;
#X connect 7 0 13 0;
#X connect 8 0 13 0;
#X connect 9 0 13 0;
#X connect 10 0 13 0;
#X connect 11 0 13 0;
#X connect 12 0 13 0;
#X connect 13 0 14 0;
#X connect 13 0 15 0;
#X connect 16 0 17 0;
#X connect 17 0 25 0;
#X connect 17 1 18 0;
#X connect 17 2 19 0;
#X connect 17 3 20 0;
#X connect 17 4 21 0;
#X connect 17 5 22 0;
#X connect 17 6 23 0;
#X connect 17 7 26 0;
#X connect 18 0 24 0;
#X connect 19 0 24 0;
#X connect 20 0 24 0;
#X connect 21 0 24 0;
#X connect 22 0 24 0;
#X connect 23 0 24 0;
#X connect 25 0 24 0;
#X connect 26 0 24 0;
#X connect 28 0 2 0;
#X restore 245 46 pd LED;
#N canvas 508 234 452 116 OLED 0;
#N canvas 122 141 1123 358 screenline 0;
#X obj 107 230 list append;
#X obj 107 255 list trim;
#X obj 137 78 list;
#X obj 137 37 r screenLine1;
#X obj 294 226 list append;
#X obj 294 251 list trim;
#X obj 324 74 list;
#X obj 502 255 list trim;
#X obj 532 78 list;
#X obj 502 230 list append;
#X obj 694 227 list append;
#X obj 694 252 list trim;
#X obj 724 75 list;
#X obj 911 227 list append;
#X obj 911 252 list trim;
#X obj 941 75 list;
#X obj 322 40 r screenLine2;
#X obj 530 44 r screenLine3;
#X obj 722 41 r screenLine4;
#X obj 939 41 r screenLine5;
#X obj 137 110 t b l b;
#X obj 324 106 t b l b;
#X obj 941 107 t b l b;
#X obj 724 107 t b l b;
#X obj 532 110 t b l b;
#X msg 32 195 /nui/textLine 16 1 0;
#X msg 176 142 /nui/clearLine 0 1;
#X msg 363 139 /nui/clearLine 0 2;
#X msg 580 142 /nui/clearLine 0 3;
#X msg 763 145 /nui/clearLine 0 4;
#X msg 980 147 /nui/clearLine 0 5;
#X msg 619 193 /nui/textLine 16 4 0;
#X msg 836 191 /nui/textLine 16 5 0;
#X msg 219 190 /nui/textLine 16 2 0;
#X obj 107 280 s SidekickI;
#X obj 294 276 s SidekickI;
#X obj 502 280 s SidekickI;
#X obj 694 277 s SidekickI;
#X obj 911 277 s SidekickI;
#X msg 427 195 /nui/textLine 16 3 0;
#X connect 0 0 1 0;
#X connect 1 0 34 0;
#X connect 2 0 20 0;
#X connect 3 0 2 0;
#X connect 4 0 5 0;
#X connect 5 0 35 0;
#X connect 6 0 21 0;
#X connect 7 0 36 0;
#X connect 8 0 24 0;
#X connect 9 0 7 0;
#X connect 10 0 11 0;
#X connect 11 0 37 0;
#X connect 12 0 23 0;
#X connect 13 0 14 0;
#X connect 14 0 38 0;
#X connect 15 0 22 0;
#X connect 16 0 6 0;
#X connect 17 0 8 0;
#X connect 18 0 12 0;
#X connect 19 0 15 0;
#X connect 20 0 25 0;
#X connect 20 1 0 1;
#X connect 20 2 26 0;
#X connect 21 0 33 0;
#X connect 21 1 4 1;
#X connect 21 2 27 0;
#X connect 22 0 32 0;
#X connect 22 1 13 1;
#X connect 22 2 30 0;
#X connect 23 0 31 0;
#X connect 23 1 10 1;
#X connect 23 2 29 0;
#X connect 24 0 39 0;
#X connect 24 1 9 1;
#X connect 24 2 28 0;
#X connect 25 0 0 0;
#X connect 26 0 34 0;
#X connect 27 0 35 0;
#X connect 28 0 36 0;
#X connect 29 0 37 0;
#X connect 30 0 38 0;
#X connect 31 0 10 0;
#X connect 32 0 13 0;
#X connect 33 0 4 0;
#X connect 39 0 9 0;
#X restore 39 24 pd screenline;
#N canvas 453 265 639 359 infobar 0;
#N canvas 517 118 623 507 vumeters 0;
#X obj 25 8 inlet;
#X obj 209 110 r outRRaw;
#X obj 197 204 r outLRaw;
#X obj 197 314 r inRRaw;
#X obj 196 419 r inLRaw;
#X msg 118 315 5;
#X msg 121 422 5;
#X obj 81 77 t f b;
#X obj 77 175 t f b;
#X obj 81 280 t f b;
#X obj 81 387 t f b;
#N canvas 712 263 916 727 vumeterIn 0;
#X obj 303 11 inlet;
#X floatatom 303 45 5 0 0 0 - - -;
#X obj 303 194 div 2;
#X obj 303 126 i;
#X obj 303 97 spigot 0;
#X msg 400 44 15;
#X obj 400 75 i;
#X obj 348 70 >;
#X obj 303 149 max;
#X obj 303 172 -;
#X obj 187 12 inlet;
#X obj 229 12 inlet;
#X obj 40 13 inlet;
#X obj 40 47 t b f;
#X obj 39 226 spigot;
#X obj 400 12 loadbang;
#X obj 303 254 change;
#X obj 135 127 r vumeterTime;
#X obj 108 198 delay;
#X obj 50 150 spigot;
#X obj 83 126 tgl 15 0 empty empty empty 17 7 0 10 -262144 -1 -1 0
1;
#X obj 83 96 metro;
#X obj 87 12 r vumeterTime;
#X obj 135 161 - 1;
#X obj 325 306 spigot;
#X obj 358 255 == 0;
#X obj 303 282 delay 1;
#X obj 78 592 s oscOut;
#X obj 277 400 * -1;
#X obj 78 446 +;
#X obj 78 483 pack 0 0 0;
#X obj 176 481 pack 0 0 0;
#X msg 78 511 \$1 \$2 \$3;
#X msg 176 508 \$1 \$2 \$3;
#X msg 78 559 /oled/gFillArea 3 \$1 \$2 \$3 2 2;
#X msg 176 532 /oled/gFillArea 3 \$1 \$2 \$3 2 1;
#X obj 148 341 i;
#X obj 184 341 i;
#X obj 277 370 - 41;
#X obj 303 222 min 41;
#X obj 220 341 i;
#X obj 39 256 t b b b;
#X connect 0 0 1 0;
#X connect 1 0 4 0;
#X connect 1 0 7 0;
#X connect 2 0 39 0;
#X connect 3 0 8 0;
#X connect 4 0 3 0;
#X connect 5 0 6 0;
#X connect 6 0 7 1;
#X connect 6 0 8 1;
#X connect 6 0 9 1;
#X connect 7 0 4 1;
#X connect 8 0 9 0;
#X connect 9 0 2 0;
#X connect 10 0 36 1;
#X connect 11 0 37 1;
#X connect 12 0 13 0;
#X connect 13 0 21 0;
#X connect 13 0 14 0;
#X connect 13 1 14 1;
#X connect 14 0 41 0;
#X connect 15 0 5 0;
#X connect 16 0 19 0;
#X connect 16 0 26 0;
#X connect 17 0 23 0;
#X connect 18 0 14 0;
#X connect 19 0 18 0;
#X connect 20 0 19 1;
#X connect 21 0 20 0;
#X connect 22 0 21 1;
#X connect 23 0 18 1;
#X connect 24 0 14 0;
#X connect 25 0 24 1;
#X connect 26 0 24 0;
#X connect 28 0 30 2;
#X connect 29 0 30 0;
#X connect 30 0 32 0;
#X connect 31 0 33 0;
#X connect 32 0 34 0;
#X connect 33 0 35 0;
#X connect 34 0 27 0;
#X connect 35 0 27 0;
#X connect 36 0 29 0;
#X connect 36 0 31 0;
#X connect 37 0 30 1;
#X connect 37 0 31 1;
#X connect 38 0 28 0;
#X connect 39 0 16 0;
#X connect 39 0 25 0;
#X connect 39 0 40 1;
#X connect 40 0 38 0;
#X connect 40 0 31 2;
#X connect 40 0 29 1;
#X connect 41 0 30 0;
#X connect 41 0 31 0;
#X connect 41 1 36 0;
#X connect 41 1 37 0;
#X connect 41 2 40 0;
#X restore 103 352 pd vumeterIn;
#X obj 301 111 s vumeterTime;
#X obj 301 19 loadbang;
#X text 352 68 Vumeters Refresh Time (ms);
#N canvas 640 193 639 678 vumeterOut 0;
#X obj 286 28 inlet;
#X obj 194 29 inlet;
#X obj 236 29 inlet;
#X obj 46 235 t b b b b;
#X floatatom 286 52 5 0 0 0 - - -;
#X obj 286 110 div 2;
#X obj 286 82 i;
#X obj 287 184 change;
#X obj 46 30 inlet;
#X obj 46 64 t b f;
#X obj 46 198 spigot;
#X obj 98 143 spigot;
#X obj 131 119 tgl 15 0 empty empty empty 17 7 0 10 -262144 -1 -1 0
1;
#X obj 156 124 r vumeterTime;
#X obj 116 187 delay;
#X obj 131 89 metro;
#X obj 100 29 r vumeterTime;
#X obj 155 163 - 1;
#X obj 289 238 spigot;
#X obj 356 194 == 0;
#X obj 289 207 delay 1;
#X obj 98 529 s oscOut;
#X obj 271 336 * -1;
#X obj 98 383 +;
#X obj 98 420 pack 0 0 0;
#X obj 196 418 pack 0 0 0;
#X msg 98 448 \$1 \$2 \$3;
#X msg 196 445 \$1 \$2 \$3;
#X obj 168 278 i;
#X obj 204 278 i;
#X obj 243 277 i 0;
#X obj 286 145 min 41;
#X obj 271 306 - 41;
#X msg 98 496 /oled/gFillArea 3 \$1 \$2 \$3 2 2;
#X msg 196 469 /oled/gFillArea 3 \$1 \$2 \$3 2 1;
#X connect 0 0 4 0;
#X connect 1 0 28 1;
#X connect 2 0 29 1;
#X connect 3 0 25 0;
#X connect 3 0 24 0;
#X connect 3 1 28 0;
#X connect 3 1 29 0;
#X connect 3 2 30 0;
#X connect 4 0 6 0;
#X connect 5 0 31 0;
#X connect 6 0 5 0;
#X connect 7 0 11 0;
#X connect 7 0 20 0;
#X connect 8 0 9 0;
#X connect 9 0 15 0;
#X connect 9 0 10 0;
#X connect 9 1 10 1;
#X connect 10 0 3 0;
#X connect 11 0 14 0;
#X connect 12 0 11 1;
#X connect 13 0 17 0;
#X connect 14 0 10 0;
#X connect 15 0 12 0;
#X connect 16 0 15 1;
#X connect 17 0 14 1;
#X connect 18 0 10 0;
#X connect 19 0 18 1;
#X connect 20 0 18 0;
#X connect 22 0 24 2;
#X connect 23 0 24 0;
#X connect 24 0 26 0;
#X connect 25 0 27 0;
#X connect 26 0 33 0;
#X connect 27 0 34 0;
#X connect 28 0 23 0;
#X connect 28 0 25 0;
#X connect 29 0 24 1;
#X connect 29 0 25 1;
#X connect 30 0 23 1;
#X connect 30 0 25 2;
#X connect 30 0 32 0;
#X connect 31 0 7 0;
#X connect 31 0 19 0;
#X connect 31 0 30 1;
#X connect 32 0 22 0;
#X connect 33 0 21 0;
#X connect 34 0 21 0;
#X restore 125 147 pd vumeterOut;
#X msg 152 208 4;
#X msg 156 422 4;
#N canvas 245 368 639 678 vumeterOut 0;
#X obj 286 28 inlet;
#X obj 194 29 inlet;
#X obj 236 29 inlet;
#X obj 46 235 t b b b b;
#X floatatom 286 52 5 0 0 0 - - -;
#X obj 286 110 div 2;
#X obj 286 82 i;
#X obj 287 184 change;
#X obj 46 30 inlet;
#X obj 46 64 t b f;
#X obj 46 198 spigot;
#X obj 98 143 spigot;
#X obj 131 119 tgl 15 0 empty empty empty 17 7 0 10 -262144 -1 -1 0
1;
#X obj 156 124 r vumeterTime;
#X obj 128 203 delay;
#X obj 131 89 metro;
#X obj 100 29 r vumeterTime;
#X obj 155 163 - 1;
#X obj 289 238 spigot;
#X obj 350 203 == 0;
#X obj 289 207 delay 1;
#X obj 98 529 s oscOut;
#X obj 271 336 * -1;
#X obj 98 383 +;
#X obj 98 420 pack 0 0 0;
#X obj 196 418 pack 0 0 0;
#X msg 98 448 \$1 \$2 \$3;
#X msg 196 445 \$1 \$2 \$3;
#X msg 98 496 /oled/gFillArea 3 \$1 \$2 \$3 2 2;
#X msg 196 469 /oled/gFillArea 3 \$1 \$2 \$3 2 1;
#X obj 168 278 i;
#X obj 204 278 i;
#X obj 243 277 i 0;
#X obj 286 145 min 41;
#X obj 271 306 - 41;
#X connect 0 0 4 0;
#X connect 1 0 30 1;
#X connect 2 0 31 1;
#X connect 3 0 25 0;
#X connect 3 0 24 0;
#X connect 3 1 30 0;
#X connect 3 1 31 0;
#X connect 3 2 32 0;
#X connect 4 0 6 0;
#X connect 5 0 33 0;
#X connect 6 0 5 0;
#X connect 7 0 11 0;
#X connect 7 0 20 0;
#X connect 8 0 9 0;
#X connect 9 0 15 0;
#X connect 9 0 10 0;
#X connect 9 1 10 1;
#X connect 10 0 3 0;
#X connect 11 0 14 0;
#X connect 12 0 11 1;
#X connect 13 0 17 0;
#X connect 14 0 10 0;
#X connect 15 0 12 0;
#X connect 16 0 15 1;
#X connect 17 0 14 1;
#X connect 18 0 10 0;
#X connect 19 0 18 1;
#X connect 20 0 18 0;
#X connect 22 0 24 2;
#X connect 23 0 24 0;
#X connect 24 0 26 0;
#X connect 25 0 27 0;
#X connect 26 0 28 0;
#X connect 27 0 29 0;
#X connect 28 0 21 0;
#X connect 29 0 21 0;
#X connect 30 0 23 0;
#X connect 30 0 25 0;
#X connect 31 0 24 1;
#X connect 31 0 25 1;
#X connect 32 0 23 1;
#X connect 32 0 25 2;
#X connect 32 0 34 0;
#X connect 33 0 7 0;
#X connect 33 0 19 0;
#X connect 33 0 32 1;
#X connect 34 0 22 0;
#X restore 111 246 pd vumeterOut;
#N canvas 712 263 916 727 vumeterIn 0;
#X obj 303 11 inlet;
#X floatatom 303 45 5 0 0 0 - - -;
#X obj 303 194 div 2;
#X obj 303 126 i;
#X obj 303 97 spigot 0;
#X msg 400 44 15;
#X obj 400 75 i;
#X obj 348 70 >;
#X obj 303 149 max;
#X obj 303 172 -;
#X obj 187 12 inlet;
#X obj 229 12 inlet;
#X obj 40 13 inlet;
#X obj 40 47 t b f;
#X obj 39 226 spigot;
#X obj 400 12 loadbang;
#X obj 303 254 change;
#X obj 135 127 r vumeterTime;
#X obj 108 198 delay;
#X obj 50 150 spigot;
#X obj 83 126 tgl 15 0 empty empty empty 17 7 0 10 -262144 -1 -1 0
1;
#X obj 83 96 metro;
#X obj 87 12 r vumeterTime;
#X obj 135 161 - 1;
#X obj 325 306 spigot;
#X obj 358 255 == 0;
#X obj 303 282 delay 1;
#X obj 78 592 s oscOut;
#X obj 277 400 * -1;
#X obj 78 446 +;
#X obj 78 483 pack 0 0 0;
#X obj 176 481 pack 0 0 0;
#X msg 78 511 \$1 \$2 \$3;
#X msg 176 508 \$1 \$2 \$3;
#X msg 78 559 /oled/gFillArea 3 \$1 \$2 \$3 2 2;
#X msg 176 532 /oled/gFillArea 3 \$1 \$2 \$3 2 1;
#X obj 148 341 i;
#X obj 184 341 i;
#X obj 277 370 - 41;
#X obj 303 222 min 41;
#X obj 220 341 i;
#X obj 39 256 t b b b;
#X connect 0 0 1 0;
#X connect 1 0 4 0;
#X connect 1 0 7 0;
#X connect 2 0 39 0;
#X connect 3 0 8 0;
#X connect 4 0 3 0;
#X connect 5 0 6 0;
#X connect 6 0 7 1;
#X connect 6 0 8 1;
#X connect 6 0 9 1;
#X connect 7 0 4 1;
#X connect 8 0 9 0;
#X connect 9 0 2 0;
#X connect 10 0 36 1;
#X connect 11 0 37 1;
#X connect 12 0 13 0;
#X connect 13 0 21 0;
#X connect 13 0 14 0;
#X connect 13 1 14 1;
#X connect 14 0 41 0;
#X connect 15 0 5 0;
#X connect 16 0 19 0;
#X connect 16 0 26 0;
#X connect 17 0 23 0;
#X connect 18 0 14 0;
#X connect 19 0 18 0;
#X connect 20 0 19 1;
#X connect 21 0 20 0;
#X connect 22 0 21 1;
#X connect 23 0 18 1;
#X connect 24 0 14 0;
#X connect 25 0 24 1;
#X connect 26 0 24 0;
#X connect 28 0 30 2;
#X connect 29 0 30 0;
#X connect 30 0 32 0;
#X connect 31 0 33 0;
#X connect 32 0 34 0;
#X connect 33 0 35 0;
#X connect 34 0 27 0;
#X connect 35 0 27 0;
#X connect 36 0 29 0;
#X connect 36 0 31 0;
#X connect 37 0 30 1;
#X connect 37 0 31 1;
#X connect 38 0 28 0;
#X connect 39 0 16 0;
#X connect 39 0 25 0;
#X connect 39 0 40 1;
#X connect 40 0 38 0;
#X connect 40 0 31 2;
#X connect 40 0 29 1;
#X connect 41 0 30 0;
#X connect 41 0 31 0;
#X connect 41 1 36 0;
#X connect 41 1 37 0;
#X connect 41 2 40 0;
#X restore 103 460 pd vumeterIn;
#X msg 134 112 55;
#X msg 120 207 55;
#X msg 301 67 100;
#X msg 171 111 0;
#X msg 155 314 0;
#X connect 0 0 7 0;
#X connect 0 0 8 0;
#X connect 0 0 9 0;
#X connect 0 0 10 0;
#X connect 1 0 15 3;
#X connect 2 0 18 3;
#X connect 3 0 11 3;
#X connect 4 0 19 3;
#X connect 5 0 11 1;
#X connect 6 0 19 1;
#X connect 7 0 15 0;
#X connect 7 1 20 0;
#X connect 7 1 23 0;
#X connect 8 0 18 0;
#X connect 8 1 21 0;
#X connect 8 1 16 0;
#X connect 9 0 11 0;
#X connect 9 1 24 0;
#X connect 9 1 5 0;
#X connect 10 0 19 0;
#X connect 10 1 17 0;
#X connect 10 1 6 0;
#X connect 13 0 22 0;
#X connect 16 0 18 2;
#X connect 17 0 19 2;
#X connect 20 0 15 1;
#X connect 21 0 18 1;
#X connect 22 0 12 0;
#X connect 23 0 15 2;
#X connect 24 0 11 2;
#X restore 105 246 pd vumeters;
#N canvas 639 166 472 536 volIndicator 0;
#X obj 214 19 r vol;
#X obj 214 47 * 100;
#X obj 214 75 i;
#X floatatom 214 259 5 0 0 0 - - -;
#X obj 151 175 change;
#X obj 214 227 max 0;
#X obj 280 178 + 1;
#X obj 214 199 i;
#X obj 227 142 == 0;
#X obj 288 128 > 0, f 4;
#X obj 280 152 spigot;
#X obj 214 169 spigot;
#X obj 59 24 inlet;
#X obj 59 58 t b f;
#X obj 59 89 spigot;
#X obj 59 471 s oscOut;
#X msg 59 390 \$1 \$2;
#X msg 127 388 \$1 \$2;
#X obj 59 362 pack 0 0;
#X obj 127 361 pack 0 0;
#X obj 214 102 / 3.4;
#X obj 214 289 - 30;
#X obj 214 319 * -1;
#X msg 127 250 98;
#X obj 68 327 +;
#X obj 59 205 t b b;
#X msg 127 412 /oled/gFillArea 3 \$1 0 \$2 2 1;
#X msg 59 438 /oled/gFillArea 3 \$1 0 \$2 2 2;
#X connect 0 0 1 0;
#X connect 1 0 2 0;
#X connect 2 0 20 0;
#X connect 3 0 21 0;
#X connect 3 0 19 1;
#X connect 3 0 24 1;
#X connect 4 0 14 0;
#X connect 5 0 3 0;
#X connect 5 0 4 0;
#X connect 6 0 7 0;
#X connect 7 0 5 0;
#X connect 8 0 11 1;
#X connect 9 0 10 1;
#X connect 10 0 6 0;
#X connect 11 0 7 0;
#X connect 12 0 13 0;
#X connect 13 0 14 0;
#X connect 13 1 14 1;
#X connect 14 0 25 0;
#X connect 16 0 27 0;
#X connect 17 0 26 0;
#X connect 18 0 16 0;
#X connect 19 0 17 0;
#X connect 20 0 8 0;
#X connect 20 0 9 0;
#X connect 20 0 10 0;
#X connect 20 0 11 0;
#X connect 21 0 22 0;
#X connect 22 0 18 1;
#X connect 23 0 19 0;
#X connect 23 0 24 0;
#X connect 24 0 18 0;
#X connect 25 0 18 0;
#X connect 25 0 19 0;
#X connect 25 1 23 0;
#X connect 26 0 15 0;
#X connect 27 0 15 0;
#X restore 90 268 pd volIndicator;
#N canvas 637 126 580 650 midiSigInd 0;
#X obj 82 40 inlet;
#X obj 156 35 midiin;
#X obj 156 107 bng 15 250 50 0 empty empty empty 17 7 0 10 -262144
-1 -1;
#N canvas 678 357 743 412 chsel 0;
#X obj 67 61 swap;
#X obj 67 86 pack;
#X obj 44 29 inlet;
#X obj 97 28 inlet;
#X obj 67 347 outlet;
#X obj 67 169 route 1;
#X obj 120 211 spigot;
#X obj 159 167 == 0;
#X obj 120 234 unpack;
#X obj 159 28 r midiWorkCh;
#X connect 0 0 1 0;
#X connect 0 1 1 1;
#X connect 1 0 5 0;
#X connect 2 0 0 0;
#X connect 3 0 0 1;
#X connect 5 0 4 0;
#X connect 5 1 6 0;
#X connect 6 0 8 0;
#X connect 7 0 6 1;
#X connect 8 1 4 0;
#X connect 9 0 5 1;
#X connect 9 0 7 0;
#X restore 400 64 pd chsel;
#X obj 400 118 bng 15 250 50 0 empty empty empty 17 7 0 10 -262144
-1 -1;
#X obj 400 35 ctlin;
#X obj 476 35 notein;
#X obj 49 334 r MidiOut;
#X text 16 14 MIDI IN;
#X text 27 288 MIDI OUT;
#X obj 49 457 delay 1000;
#X obj 49 424 bng 15 250 50 0 empty empty empty 17 7 0 10 -262144 -1
-1;
#X msg 70 483 1;
#X msg 185 495 0, f 2;
#X obj 138 457 spigot 1;
#X obj 49 391 spigot;
#X msg 215 248 0, f 2;
#X obj 156 222 spigot 1;
#X obj 155 170 spigot;
#X obj 295 227 delay 1000;
#X msg 257 252 1, f 2;
#X msg 404 261 0;
#X obj 392 227 spigot 1;
#X obj 400 147 spigot;
#X obj 155 138 spigot;
#X msg 304 149 0, f 2;
#X obj 267 35 loadbang;
#X msg 267 72 1, f 2;
#X obj 224 408 s oscOut;
#X msg 224 339 \$1;
#X msg 263 303 0;
#X msg 305 304 1;
#X msg 224 302 2;
#X msg 224 371 /oled/gSetPixel 3 3 3 \$1;
#X msg 49 517 0;
#X msg 83 517 1;
#X obj 49 615 s oscOut;
#X msg 49 546 \$1;
#X msg 49 578 /oled/gSetPixel 3 53 3 \$1;
#N canvas 421 297 1280 956 chselesp 0;
#X obj 207 372 f;
#X obj 168 372 f;
#X obj 238 152 f;
#X obj 35 100 t b f;
#X obj 238 174 sel 1;
#X obj 237 325 t b b;
#X obj 35 26 inlet;
#X obj 199 37 inlet;
#X obj 274 39 inlet;
#X obj 189 442 outlet;
#X obj 303 199 spigot;
#X obj 342 155 == 0;
#X obj 303 246 bng 15 250 50 0 empty empty empty 17 7 0 10 -262144
-1 -1;
#X obj 342 33 r midiWorkCh;
#X obj 189 408 bng 15 250 50 0 empty empty empty 17 7 0 10 -262144
-1 -1;
#X obj 96 77 metro 500;
#X obj 57 62 bng 15 250 50 0 empty empty empty 17 7 0 10 -262144 -1
-1;
#X connect 0 0 14 0;
#X connect 1 0 14 0;
#X connect 2 0 4 0;
#X connect 3 1 1 1;
#X connect 4 0 5 0;
#X connect 4 1 10 0;
#X connect 5 0 1 0;
#X connect 5 1 0 0;
#X connect 6 0 3 0;
#X connect 6 0 16 0;
#X connect 7 0 0 1;
#X connect 8 0 2 1;
#X connect 10 0 12 0;
#X connect 11 0 10 1;
#X connect 12 0 5 0;
#X connect 13 0 4 1;
#X connect 13 0 11 0;
#X connect 14 0 9 0;
#X connect 15 0 2 0;
#X connect 16 0 15 0;
#X restore 471 64 pd chselesp;
#X connect 0 0 15 1;
#X connect 0 0 18 1;
#X connect 0 0 23 1;
#X connect 1 0 2 0;
#X connect 2 0 24 0;
#X connect 3 0 4 0;
#X connect 4 0 23 0;
#X connect 4 0 25 0;
#X connect 5 0 3 0;
#X connect 5 2 3 1;
#X connect 6 0 39 0;
#X connect 6 1 39 1;
#X connect 6 2 39 2;
#X connect 7 0 15 0;
#X connect 10 0 12 0;
#X connect 10 0 34 0;
#X connect 11 0 10 0;
#X connect 11 0 14 0;
#X connect 12 0 14 1;
#X connect 13 0 14 1;
#X connect 14 0 13 0;
#X connect 14 0 34 0;
#X connect 14 0 35 0;
#X connect 15 0 11 0;
#X connect 16 0 17 1;
#X connect 17 0 16 0;
#X connect 17 0 32 0;
#X connect 18 0 17 0;
#X connect 18 0 19 0;
#X connect 19 0 20 0;
#X connect 19 0 30 0;
#X connect 20 0 22 1;
#X connect 20 0 24 1;
#X connect 20 0 17 1;
#X connect 21 0 22 1;
#X connect 22 0 21 0;
#X connect 22 0 31 0;
#X connect 23 0 19 0;
#X connect 23 0 22 0;
#X connect 24 0 18 0;
#X connect 25 0 24 1;
#X connect 26 0 27 0;
#X connect 27 0 24 1;
#X connect 29 0 33 0;
#X connect 30 0 29 0;
#X connect 31 0 29 0;
#X connect 32 0 29 0;
#X connect 33 0 28 0;
#X connect 34 0 37 0;
#X connect 35 0 37 0;
#X connect 37 0 38 0;
#X connect 38 0 36 0;
#X connect 39 0 4 0;
#X restore 75 289 pd midiSigInd;
#X text 27 16 Uses 128px X 14px;
#N canvas 623 235 1103 533 ledIndicator 0;
#X obj 482 13 r ledState;
#X obj 482 146 sel 0 1 2 3 4 5 6 7, f 63;
#X obj 328 93 change;
#X obj 482 70 i;
#X obj 111 178 t b b b b b b b b b;
#X obj 626 283 f;
#X obj 174 286 f;
#X obj 112 26 inlet;
#X obj 112 60 t b f;
#X obj 112 91 spigot;
#X obj 406 182 delay 10;
#X obj 263 124 spigot;
#X obj 174 391 s oscOut;
#X msg 174 358 /oled/gFillArea 3 \$1 4 2 2 2;
#X msg 174 324 \$1;
#X obj 627 434 s oscOut;
#X msg 627 367 \$1;
#X msg 627 401 /oled/gFillArea 3 \$1 4 2 2 1;
#X obj 519 276 != 0;
#X obj 627 331 spigot;
#X msg 48 232 100;
#X msg 94 230 104;
#X msg 142 230 108;
#X msg 189 230 112;
#X msg 236 230 116;
#X msg 280 231 120;
#X msg 330 230 124;
#X msg 528 182 100;
#X msg 575 182 104;
#X msg 622 182 108;
#X msg 669 182 112;
#X msg 716 182 116;
#X msg 763 182 120;
#X msg 810 182 124;
#X obj 406 13 loadbang;
#X connect 0 0 3 0;
#X connect 1 0 9 0;
#X connect 1 1 27 0;
#X connect 1 2 28 0;
#X connect 1 3 29 0;
#X connect 1 4 30 0;
#X connect 1 5 31 0;
#X connect 1 6 32 0;
#X connect 1 7 33 0;
#X connect 2 0 11 0;
#X connect 3 0 1 0;
#X connect 3 0 2 0;
#X connect 3 0 18 0;
#X connect 4 2 20 0;
#X connect 4 3 21 0;
#X connect 4 4 22 0;
#X connect 4 5 23 0;
#X connect 4 6 24 0;
#X connect 4 7 25 0;
#X connect 4 8 26 0;
#X connect 5 0 19 0;
#X connect 6 0 14 0;
#X connect 7 0 8 0;
#X connect 8 0 9 0;
#X connect 8 1 9 1;
#X connect 8 1 11 1;
#X connect 9 0 4 0;
#X connect 10 0 5 0;
#X connect 11 0 10 0;
#X connect 11 0 4 0;
#X connect 13 0 12 0;
#X connect 14 0 13 0;
#X connect 16 0 17 0;
#X connect 17 0 15 0;
#X connect 18 0 19 1;
#X connect 19 0 16 0;
#X connect 20 0 6 0;
#X connect 21 0 6 0;
#X connect 22 0 6 0;
#X connect 23 0 6 0;
#X connect 24 0 6 0;
#X connect 25 0 6 0;
#X connect 26 0 6 0;
#X connect 27 0 5 1;
#X connect 28 0 5 1;
#X connect 29 0 5 1;
#X connect 30 0 5 1;
#X connect 31 0 5 1;
#X connect 32 0 5 1;
#X connect 33 0 5 1;
#X connect 34 0 10 0;
#X restore 60 309 pd ledIndicator;
#N canvas 362 236 684 372 infoGraphics 0;
#X obj 24 15 inlet;
#X obj 24 49 t b f;
#X obj 24 80 spigot;
#X obj 24 192 s oscOut;
#X msg 24 135 /oled/gPrintln 3 0 1 1 1 I;
#X msg 200 134 /oled/gPrintln 3 48 1 1 1 O;
#X connect 0 0 1 0;
#X connect 1 0 2 0;
#X connect 1 1 2 1;
#X connect 2 0 4 0;
#X connect 2 0 5 0;
#X connect 4 0 3 0;
#X connect 5 0 3 0;
#X restore 120 225 pd infoGraphics;
#N canvas 157 155 450 280 clearInfoBar 0;
#X obj 21 13 inlet;
#X obj 21 121 s oscOut;
#X obj 21 46 t b;
#X msg 21 85 /oled/gFillArea 3 0 0 128 7 0;
#X connect 0 0 2 0;
#X connect 2 0 3 0;
#X connect 3 0 1 0;
#X restore 135 204 pd clearInfoBar;
#X obj 60 169 t f f f f f b;
#X obj 75 46 r InfoBar;
#X obj 25 85 delay 1;
#X obj 60 123 f;
#X connect 7 0 4 0;
#X connect 7 1 2 0;
#X connect 7 2 1 0;
#X connect 7 3 0 0;
#X connect 7 4 5 0;
#X connect 7 5 6 0;
#X connect 8 0 9 0;
#X connect 8 0 10 1;
#X connect 9 0 10 0;
#X connect 10 0 7 0;
#X restore 165 24 pd infobar;
#N canvas 8 78 1280 631 oscOLED 0;
#N canvas 427 185 450 280 clearDisplay 0;
#X obj 22 29 inlet;
#X text 74 30 Whants a bang to clear the entire display;
#X obj 22 147 spigot;
#X msg 22 176 1;
#X obj 55 117 r InfoBar;
#X obj 22 207 s InfoBar;
#X obj 120 207 s SidekickI;
#X msg 235 117 /nui/gClear 0;
#X msg 120 117 /nui/displayPaint;
#X obj 22 66 t b b b;
#X connect 0 0 9 0;
#X connect 2 0 3 0;
#X connect 3 0 5 0;
#X connect 4 0 2 1;
#X connect 7 0 6 0;
#X connect 8 0 6 0;
#X connect 9 0 2 0;
#X connect 9 1 8 0;
#X connect 9 2 7 0;
#X restore 17 101 pd clearDisplay;
#X text 14 8 gClear;
#X text 163 8 gSetPixel;
#X text 1081 6 gLine;
#X text 603 8 gFillArea;
#X text 1105 441 gCircle;
#X text 1393 446 gFilledCircle;
#X text 1378 9 gPrintln;
#X text 14 445 gCleanln;
#X text 880 444 gInvertArea;
#X obj 192 118 list split 1;
#X obj 226 145 list split 1;
#N canvas 531 266 559 337 drawPixel 0;
#X obj 98 129 int;
#X obj 168 129 int;
#X obj 241 128 int;
#X obj 33 76 bng 15 250 50 0 empty empty empty 17 7 0 10 -262144 -1
-1;
#X obj 303 43 inlet;
#X obj 124 46 inlet;
#X obj 197 46 inlet;
#X text 282 17 intensity;
#X text 100 19 x coordenade;
#X text 186 18 y coordenade;
#X obj 33 49 inlet;
#X text 34 21 bang;
#X obj 98 165 pack 0 0 0;
#X msg 77 222 \$1 \$2 \$3;
#X obj 77 193 list;
#X obj 33 97 t b b b;
#X obj 77 287 s SidekickI;
#X msg 77 256 /nui/gSetPixel \$1 \$2 \$3;
#X connect 0 0 12 0;
#X connect 1 0 12 1;
#X connect 2 0 12 2;
#X connect 3 0 15 0;
#X connect 4 0 0 1;
#X connect 5 0 1 1;
#X connect 6 0 2 1;
#X connect 10 0 3 0;
#X connect 12 0 14 1;
#X connect 13 0 17 0;
#X connect 14 0 13 0;
#X connect 15 0 14 0;
#X connect 15 1 12 0;
#X connect 15 2 0 0;
#X connect 15 2 1 0;
#X connect 15 2 2 0;
#X connect 17 0 16 0;
#X restore 205 261 pd drawPixel;
#X msg 308 224 16;
#X obj 17 68 routeOSC /oled/gClear;
#X obj 165 63 routeOSC /oled/gSetPixel;
#X obj 165 88 t b l;
#X obj 260 172 list split 1;
#X obj 163 384 s oscOut;
#X text 162 297 gSetPixel Example;
#X obj 15 187 s oscOut;
#X text 14 131 gClear Example;
#X obj 378 117 list split 1;
#X obj 412 144 list split 1;
#X obj 548 249 sel 0 1;
#X obj 351 87 t b l;
#X obj 514 226 list split 1;
#X text 352 8 gBox;
#X obj 446 172 list split 1;
#X obj 480 199 list split 1;
#X obj 366 404 s oscOut;
#X text 366 338 gBox Example;
#X obj 351 62 routeOSC /oled/gBox;
#X obj 635 119 list split 1;
#X obj 669 146 list split 1;
#X msg 835 279 16;
#X obj 608 89 t b l;
#X obj 771 227 list split 1;
#X obj 703 174 list split 1;
#X obj 737 201 list split 1;
#X obj 608 64 routeOSC /oled/gFillArea;
#X obj 629 405 s oscOut;
#X text 629 335 gFillArea Example;
#X obj 15 815 s oscOut;
#X text 15 759 gCleanln Example;
#X obj 212 815 s oscOut;
#X text 212 762 gInvertLine Example;
#X obj 221 518 routeOSC /oled/gInvertLine;
#X text 208 462 gInvertLine;
#X obj 25 541 list split 1;
#X obj 221 545 list split 1;
#X msg 163 323 /oled/gSetPixel 0 30 40 1;
#X obj 397 815 s oscOut;
#X text 397 761 gInvertLine Example;
#X obj 406 518 routeOSC /oled/invertline;
#X text 393 461 invertline;
#X text 594 442 line;
#X obj 589 864 s oscOut;
#X text 589 814 line Example;
#X obj 592 719 list append;
#X obj 592 748 list trim;
#X obj 592 527 list split 1;
#X obj 592 499 routeOSC /oled/line;
#X msg 592 590 1;
#X msg 622 590 2;
#X msg 652 590 3;
#X msg 682 590 4;
#X msg 592 625 \$1;
#X obj 592 656 t f f;
#X obj 592 561 sel /1 /2 /3 /4 /5;
#X msg 718 590 5;
#X obj 26 575 sel 0 1 2 3 4;
#X obj 324 571 sel 0 1 2 3 4;
#X obj 25 509 routeOSC /oled/gCleanln;
#X msg 397 785 /oled/invertline 3;
#X msg 15 785 /oled/gCleanln 0 3;
#X obj 1093 396 s oscOut;
#X text 1086 342 gLine Example;
#X obj 1110 121 list split 1;
#X obj 1144 148 list split 1;
#X obj 1280 253 sel 0 1;
#X obj 1083 91 t b l;
#X obj 1246 227 list split 1;
#X obj 1178 176 list split 1;
#X obj 1212 203 list split 1;
#X obj 1083 66 routeOSC /oled/gLine;
#X msg 1093 366 /oled/gLine 0 20 30 20 40 1;
#X text 887 8 gShowInfoBar;
#X obj 888 250 s oscOut;
#X obj 887 95 list split 1;
#X obj 887 67 routeOSC /oled/gShowInfoBar;
#X text 876 171 gShowInfoBar Example (OFF-ON);
#X msg 642 376 /oled/gFillArea 0 64 1 128 64 1;
#X msg 15 157 /oled/gClear 3 1;
#X obj 13 394 s oscOut;
#X text 12 215 gFlip;
#X obj 15 273 routeOSC /oled/gFlip;
#X msg 13 364 /oled/gFlip 3;
#X msg 173 347 /oled/gSetPixel 0 30 40 0;
#X msg 629 354 /oled/gFillArea 0 128 64 64 1 0;
#X msg 805 279 0;
#X msg 1280 281 0;
#X msg 278 224 0;
#X msg 548 277 0;
#X obj 1407 116 list split 1;
#X obj 1441 143 list split 1;
#X msg 1546 283 16;
#X obj 1516 257 sel 0 1;
#X obj 1380 86 t b l;
#X obj 1543 224 list split 1;
#X obj 1475 171 list split 1;
#X obj 1509 198 list split 1;
#X msg 1516 283 0;
#X obj 1380 61 routeOSC /oled/gPrintln;
#N canvas 513 213 568 434 drawText 0;
#X obj 301 42 inlet;
#X obj 106 45 inlet;
#X obj 170 45 inlet;
#X text 294 16 intensity;
#X obj 33 49 inlet;
#X text 34 21 bang;
#X obj 236 42 inlet;
#X obj 375 41 inlet;
#X obj 33 77 bng 15 250 50 0 empty empty empty 17 7 0 10 -262144 -1
-1;
#X obj 102 185 list;
#X obj 33 100 t b b;
#X text 94 19 x coord.;
#X text 158 19 y coord.;
#X text 223 18 Font Size;
#X text 362 16 Text to Print;
#X obj 102 277 list append;
#X obj 102 310 list trim;
#X obj 143 153 pack 0 0 0 0;
#X msg 102 214 \$1 \$2 \$3 \$4;
#X obj 170 90 + 5;
#X obj 102 345 s SidekickI;
#X msg 102 245 /nui/gText \$1 \$2 \$3;
#X connect 0 0 17 0;
#X connect 1 0 17 1;
#X connect 2 0 19 0;
#X connect 4 0 8 0;
#X connect 6 0 17 3;
#X connect 7 0 15 1;
#X connect 8 0 10 0;
#X connect 9 0 18 0;
#X connect 10 0 9 0;
#X connect 10 1 17 0;
#X connect 15 0 16 0;
#X connect 16 0 20 0;
#X connect 17 0 9 1;
#X connect 18 0 21 0;
#X connect 19 0 17 2;
#X connect 21 0 15 0;
#X restore 1390 320 pd drawText;
#X f 31;
#X obj 1395 399 s oscOut;
#X text 1388 345 gPrintln Example;
#X obj 294 195 sel 0 1 2;
#X obj 805 251 sel 0 1 2;
#X msg 867 279 1;
#X msg 338 224 1;
#N canvas 585 246 462 311 drawArea 0;
#X obj 370 41 inlet;
#X obj 106 45 inlet;
#X obj 170 45 inlet;
#X text 363 15 intensity;
#X obj 33 49 inlet;
#X text 34 21 bang;
#X obj 236 42 inlet;
#X obj 302 40 inlet;
#X obj 33 77 bng 15 250 50 0 empty empty empty 17 7 0 10 -262144 -1
-1;
#X obj 102 185 list;
#X obj 143 153 pack 0 0 0 0 0;
#X msg 102 214 \$1 \$2 \$3 \$4 \$5;
#X obj 33 100 t b b;
#X text 223 18 x length;
#X text 289 15 y length;
#X text 94 19 x coord.;
#X text 158 19 y coord.;
#X obj 103 277 s SidekickI;
#X msg 102 246 /nui/gFillArea \$1 \$2 \$3 \$4 \$5;
#X connect 0 0 10 0;
#X connect 1 0 10 1;
#X connect 2 0 10 2;
#X connect 4 0 8 0;
#X connect 6 0 10 3;
#X connect 7 0 10 4;
#X connect 8 0 12 0;
#X connect 9 0 11 0;
#X connect 10 0 9 1;
#X connect 11 0 18 0;
#X connect 12 0 9 0;
#X connect 12 1 10 0;
#X connect 18 0 17 0;
#X restore 622 310 pd drawArea;
#X f 31;
#X msg 212 785 /oled/gInvertLine 3 3;
#X msg 888 197 /oled/gShowInfoBar 3 0;
#X msg 901 220 /oled/gShowInfoBar 3 1;
#X obj 921 130 s InfoBar;
#X obj 917 556 list split 1;
#X obj 951 583 list split 1;
#X obj 890 526 t b l;
#X obj 985 611 list split 1;
#X obj 1019 638 list split 1;
#X obj 890 501 routeOSC /oled/gInvertArea;
#X obj 902 827 s oscOut;
#X text 902 778 gInvertArea Example;
#N canvas 444 273 578 379 invertArea 0;
#X obj 106 45 inlet;
#X obj 170 45 inlet;
#X obj 33 49 inlet;
#X text 34 21 bang;
#X obj 236 42 inlet;
#X obj 302 40 inlet;
#X obj 33 77 bng 15 250 50 0 empty empty empty 17 7 0 10 -262144 -1
-1;
#X obj 102 185 list;
#X obj 33 100 t b b;
#X text 223 18 x length;
#X text 289 15 y length;
#X text 94 19 x coord.;
#X text 158 19 y coord.;
#X obj 102 281 s SidekickI;
#X obj 143 153 pack 0 0 0 0;
#X msg 102 214 \$1 \$2 \$3 \$4;
#X msg 102 250 /nui/gInvertArea \$1 \$2 \$3 \$4;
#X connect 0 0 14 0;
#X connect 1 0 14 1;
#X connect 2 0 6 0;
#X connect 4 0 14 2;
#X connect 5 0 14 3;
#X connect 6 0 8 0;
#X connect 7 0 15 0;
#X connect 8 0 7 0;
#X connect 8 1 14 0;
#X connect 14 0 7 1;
#X connect 15 0 16 0;
#X connect 16 0 13 0;
#X restore 904 747 pd invertArea;
#X f 31;
#X obj 1138 551 list split 1;
#X obj 1172 578 list split 1;
#X obj 1111 521 t b l;
#X obj 1206 606 list split 1;
#X obj 1240 633 list split 1;
#X msg 1274 699 0;
#X obj 1274 671 sel 0 1 2;
#X obj 1123 822 s oscOut;
#X text 1123 773 gInvertArea Example;
#X obj 1111 496 routeOSC /oled/gCircle;
#N canvas 444 273 517 310 gCircle 0;
#X obj 298 40 inlet;
#X obj 106 45 inlet;
#X obj 170 45 inlet;
#X obj 33 49 inlet;
#X text 34 21 bang;
#X obj 236 42 inlet;
#X obj 33 77 bng 15 250 50 0 empty empty empty 17 7 0 10 -262144 -1
-1;
#X obj 102 185 list;
#X obj 33 100 t b b;
#X text 94 19 x coord.;
#X text 158 19 y coord.;
#X text 236 19 size;
#X text 292 17 intensity;
#X obj 143 153 pack 0 0 0 0;
#X msg 102 214 \$1 \$2 \$3 \$4;
#X obj 238 115 + 1;
#X obj 102 277 s SidekickI;
#X msg 102 246 /nui/gCircle \$1 \$2 \$3 \$4;
#X connect 0 0 13 0;
#X connect 1 0 13 1;
#X connect 2 0 13 2;
#X connect 3 0 6 0;
#X connect 5 0 15 0;
#X connect 6 0 8 0;
#X connect 7 0 14 0;
#X connect 8 0 7 0;
#X connect 8 1 13 0;
#X connect 13 0 7 1;
#X connect 14 0 17 0;
#X connect 15 0 13 3;
#X connect 17 0 16 0;
#X restore 1121 742 pd gCircle;
#X f 26;
#X msg 1307 699 16;
#X msg 1123 796 /oled/gCircle 3 10 10 3 1;
#X obj 1420 554 list split 1;
#X obj 1454 581 list split 1;
#X obj 1393 524 t b l;
#X obj 1488 609 list split 1;
#X obj 1522 636 list split 1;
#X msg 1556 702 0;
#X obj 1556 674 sel 0 1 2;
#X obj 1405 825 s oscOut;
#X text 1405 776 gInvertArea Example;
#X msg 1589 702 16;
#X obj 1393 499 routeOSC /oled/gFilledCircle;
#N canvas 510 237 517 310 gFilledCircle 0;
#X obj 298 40 inlet;
#X obj 106 45 inlet;
#X obj 170 45 inlet;
#X obj 33 49 inlet;
#X text 34 21 bang;
#X obj 236 42 inlet;
#X obj 33 77 bng 15 250 50 0 empty empty empty 17 7 0 10 -262144 -1
-1;
#X obj 101 181 list;
#X obj 33 100 t b b;
#X text 94 19 x coord.;
#X text 158 19 y coord.;
#X text 236 19 size;
#X text 292 17 intensity;
#X obj 143 153 pack 0 0 0 0;
#X msg 101 210 \$1 \$2 \$3 \$4;
#X obj 101 272 s SidekickI;
#X msg 101 241 /nui/gFilledCircle \$1 \$2 \$3 \$4;
#X connect 0 0 13 0;
#X connect 1 0 13 1;
#X connect 2 0 13 2;
#X connect 3 0 6 0;
#X connect 5 0 13 3;
#X connect 6 0 8 0;
#X connect 7 0 14 0;
#X connect 8 0 7 0;
#X connect 8 1 13 0;
#X connect 13 0 7 1;
#X connect 14 0 16 0;
#X connect 16 0 15 0;
#X restore 1403 745 pd gFilledCircle;
#X f 26;
#X msg 1405 799 /oled/gFilledCircle 3 10 10 3 1;
#X obj 1675 558 list split 1;
#X obj 1648 525 t b l;
#X msg 1660 655 0;
#X obj 1654 791 s oscOut;
#X msg 1693 655 16;
#X text 1648 447 gWaveform;
#X obj 1648 500 routeOSC /oled/gWaveform;
#N canvas 400 325 404 323 gWaveform 0;
#X obj 85 44 inlet;
#X obj 225 42 inlet;
#X obj 30 44 inlet;
#X text 31 21 bang;
#X obj 30 72 bng 15 250 50 0 empty empty empty 17 7 0 10 -262144 -1
-1;
#X obj 30 103 list;
#X text 79 21 intensity;
#X text 222 18 wave;
#X msg 30 132 \$1;
#X obj 162 209 list append;
#X obj 162 242 list trim;
#X obj 162 277 s SidekickI;
#X msg 30 163 sendtyped /nui/gWaveform \$1;
#X connect 0 0 5 1;
#X connect 1 0 9 1;
#X connect 2 0 4 0;
#X connect 4 0 5 0;
#X connect 5 0 8 0;
#X connect 8 0 12 0;
#X connect 9 0 10 0;
#X connect 10 0 11 0;
#X connect 12 0 9 0;
#X restore 1648 710 pd gWaveform;
#X f 13;
#X msg 1654 765 /oled/gWaveform 3 1;
#X text 1654 742 gWaveform Example;
#N canvas 300 336 637 321 gLine 0;
#X obj 417 39 inlet;
#X obj 153 43 inlet;
#X obj 217 43 inlet;
#X obj 80 47 inlet;
#X text 81 19 bang;
#X obj 283 40 inlet;
#X obj 349 38 inlet;
#X obj 80 75 bng 15 250 50 0 empty empty empty 17 7 0 10 -262144 -1
-1;
#X obj 149 183 list;
#X obj 190 151 pack 0 0 0 0 0;
#X msg 149 212 \$1 \$2 \$3 \$4 \$5;
#X text 410 13 intensity;
#X text 141 17 x1 coord.;
#X text 205 17 y1 coord.;
#X text 270 16 x2 coord.;
#X text 336 13 y2 coord;
#X obj 149 274 s SidekickI;
#X obj 80 98 t b b b;
#X msg 149 243 /nui/gLine \$1 \$2 \$3 \$4 \$5;
#X connect 0 0 9 0;
#X connect 1 0 9 1;
#X connect 2 0 9 2;
#X connect 3 0 7 0;
#X connect 5 0 9 3;
#X connect 6 0 9 4;
#X connect 7 0 17 0;
#X connect 8 0 10 0;
#X connect 9 0 8 1;
#X connect 10 0 18 0;
#X connect 17 1 8 0;
#X connect 17 2 9 0;
#X connect 18 0 16 0;
#X restore 1095 311 pd gLine;
#X f 31;
#X msg 1310 281 1;
#N canvas 0 54 450 300 refreshScreen 0;
#X obj 54 32 inlet;
#X obj 54 95 s SidekickI;
#X msg 54 64 /nui/displayPaint;
#X connect 0 0 2 0;
#X connect 2 0 1 0;
#X restore 15 306 pd refreshScreen;
#X text 1637 19 gInvert;
#X obj 1640 79 routeOSC /oled/gInvert;
#N canvas 427 185 450 280 gInvert 0;
#X obj 23 36 inlet;
#X obj 23 106 s SidekickI;
#X msg 23 74 /nui/gInvert 0;
#X connect 0 0 2 0;
#X connect 2 0 1 0;
#X restore 1640 112 pd gInvert;
#X msg 736 687 /nui/clearLine 0 \$1;
#X obj 592 789 s SidekickI;
#X msg 592 689 /nui/textLine 16 \$1 0;
#X msg 589 836 /oled/line/4 test;
#X msg 86 604 /nui/clearLine 0 5;
#X msg 73 626 /nui/clearLine 0 4;
#X msg 56 648 /nui/clearLine 0 3;
#X msg 41 670 /nui/clearLine 0 2;
#X msg 26 694 /nui/clearLine 0 1;
#X obj 26 732 s SidekickI;
#X msg 384 600 /nui/invertLine 5 0;
#X msg 371 622 /nui/invertLine 4 0;
#X msg 354 643 /nui/invertLine 3 0;
#X msg 339 666 /nui/invertLine 2 0;
#X msg 324 690 /nui/invertLine 1 0;
#X obj 324 728 s SidekickI;
#N canvas 327 227 939 472 drawBox 0;
#X obj 80 94 bng 15 250 50 0 empty empty empty 17 7 0 10 -262144 -1
-1;
#X obj 430 40 inlet;
#X obj 122 40 inlet;
#X obj 195 40 inlet;
#X text 409 15 intensity;
#X obj 39 37 inlet;
#X text 37 14 bang;
#X obj 269 40 inlet;
#X obj 342 40 inlet;
#X obj 125 219 pack 0 0 0 0 0 0 0, f 46;
#X msg 125 246 \$1 \$2 \$3 \$4 \$5 \$6 \$7;
#X obj 79 277 list;
#X obj 81 119 t b b;
#X text 110 17 x coord.;
#X text 183 17 y coord.;
#X text 256 16 x length;
#X text 329 15 y length.;
#X obj 352 157 +;
#X obj 398 158 +;
#X obj 398 187 - 1;
#X msg 79 333 /nui/gFillArea \$1 \$2 \$3 \$4 1;
#X msg 259 333 /nui/gFillArea \$1 \$2 \$7 \$4 1;
#X msg 447 333 /nui/gFillArea \$1 \$6 \$3 1 \$5;
#X msg 640 331 /nui/gFillArea \$1 \$2 \$3 1 \$5;
#X obj 79 398 s SidekickI;
#X connect 0 0 12 0;
#X connect 1 0 9 0;
#X connect 2 0 9 1;
#X connect 2 0 17 0;
#X connect 3 0 9 2;
#X connect 3 0 18 0;
#X connect 5 0 0 0;
#X connect 7 0 9 3;
#X connect 7 0 17 1;
#X connect 8 0 9 4;
#X connect 8 0 18 1;
#X connect 9 0 10 0;
#X connect 10 0 11 1;
#X connect 11 0 20 0;
#X connect 11 0 21 0;
#X connect 11 0 22 0;
#X connect 11 0 23 0;
#X connect 12 0 11 0;
#X connect 12 1 9 0;
#X connect 12 1 17 0;
#X connect 12 1 18 0;
#X connect 17 0 9 5;
#X connect 18 0 19 0;
#X connect 19 0 9 6;
#X connect 20 0 24 0;
#X connect 21 0 24 0;
#X connect 22 0 24 0;
#X connect 23 0 24 0;
#X restore 397 310 pd drawBox;
#X f 26;
#X msg 578 277 16;
#X msg 376 383 /oled/gBox 0 20 30 20 20 0;
#X msg 366 364 /oled/gBox 0 20 30 20 20 1;
#X obj 1652 377 s oscOut;
#X msg 1652 347 /oled/gInvert;
#X text 1645 323 gInvert Example;
#X obj 1660 627 sel 0 1;
#X obj 1689 592 list split 1;
#X obj 1111 468 r oscInternal;
#X msg 902 801 /oled/gInvertArea 3 1 1 10 10;
#X obj 890 473 r oscInternal;
#X obj 17 33 r oscInternal;
#X obj 165 35 r oscInternal;
#X obj 351 34 r oscInternal;
#X obj 608 36 r oscInternal;
#X obj 887 35 r oscInternal;
#X obj 1083 31 r oscInternal;
#X obj 1380 33 r oscInternal;
#X obj 1640 44 r oscInternal;
#X obj 1648 472 r oscInternal;
#X obj 1393 471 r oscInternal;
#X obj 592 468 r oscInternal;
#X obj 406 485 r oscInternal;
#X obj 221 486 r oscInternal;
#X obj 25 477 r oscInternal;
#X obj 15 240 r oscInternal;
#X msg 1395 369 /oled/gPrintln 3 20 30 1 1 Test test;
#X text 12 338 gFlip Example;
#X connect 10 1 11 0;
#X connect 11 0 12 1;
#X connect 11 1 17 0;
#X connect 13 0 12 3;
#X connect 14 0 0 0;
#X connect 15 0 16 0;
#X connect 16 0 12 0;
#X connect 16 1 10 0;
#X connect 17 0 12 2;
#X connect 17 1 117 0;
#X connect 22 1 23 0;
#X connect 23 0 193 1;
#X connect 23 1 28 0;
#X connect 24 0 103 0;
#X connect 24 1 194 0;
#X connect 25 0 193 0;
#X connect 25 1 22 0;
#X connect 26 0 193 4;
#X connect 26 1 24 0;
#X connect 28 0 193 2;
#X connect 28 1 29 0;
#X connect 29 0 193 3;
#X connect 29 1 26 0;
#X connect 32 0 25 0;
#X connect 33 1 34 0;
#X connect 34 0 121 1;
#X connect 34 1 38 0;
#X connect 35 0 121 5;
#X connect 36 0 121 0;
#X connect 36 1 33 0;
#X connect 37 0 121 4;
#X connect 37 1 118 0;
#X connect 38 0 121 2;
#X connect 38 1 39 0;
#X connect 39 0 121 3;
#X connect 39 1 37 0;
#X connect 40 0 36 0;
#X connect 47 0 50 0;
#X connect 49 1 71 0;
#X connect 50 1 72 0;
#X connect 51 0 18 0;
#X connect 54 0 72 0;
#X connect 59 0 60 0;
#X connect 60 0 178 0;
#X connect 61 0 69 0;
#X connect 61 1 59 1;
#X connect 62 0 61 0;
#X connect 63 0 67 0;
#X connect 64 0 67 0;
#X connect 65 0 67 0;
#X connect 66 0 67 0;
#X connect 67 0 68 0;
#X connect 68 0 179 0;
#X connect 68 1 177 0;
#X connect 69 0 63 0;
#X connect 69 1 64 0;
#X connect 69 2 65 0;
#X connect 69 3 66 0;
#X connect 69 4 70 0;
#X connect 70 0 67 0;
#X connect 71 0 185 0;
#X connect 71 1 184 0;
#X connect 71 2 183 0;
#X connect 71 3 182 0;
#X connect 71 4 181 0;
#X connect 72 0 191 0;
#X connect 72 1 190 0;
#X connect 72 2 189 0;
#X connect 72 3 188 0;
#X connect 72 4 187 0;
#X connect 73 0 49 0;
#X connect 74 0 52 0;
#X connect 75 0 43 0;
#X connect 78 1 79 0;
#X connect 79 0 171 1;
#X connect 79 1 83 0;
#X connect 80 0 101 0;
#X connect 80 1 172 0;
#X connect 81 0 171 0;
#X connect 81 1 78 0;
#X connect 82 0 171 4;
#X connect 82 1 80 0;
#X connect 83 0 171 2;
#X connect 83 1 84 0;
#X connect 84 0 171 3;
#X connect 84 1 82 0;
#X connect 85 0 81 0;
#X connect 86 0 76 0;
#X connect 89 1 125 0;
#X connect 90 0 89 0;
#X connect 92 0 41 0;
#X connect 93 0 20 0;
#X connect 97 0 94 0;
#X connect 98 0 18 0;
#X connect 99 0 41 0;
#X connect 100 0 121 5;
#X connect 101 0 171 5;
#X connect 102 0 12 3;
#X connect 103 0 193 5;
#X connect 104 1 105 0;
#X connect 105 0 114 1;
#X connect 105 1 110 0;
#X connect 106 0 114 4;
#X connect 107 0 112 0;
#X connect 107 1 106 0;
#X connect 108 0 114 0;
#X connect 108 1 104 0;
#X connect 109 0 107 0;
#X connect 109 1 114 5;
#X connect 110 0 114 2;
#X connect 110 1 111 0;
#X connect 111 0 114 3;
#X connect 111 1 109 0;
#X connect 112 0 114 4;
#X connect 113 0 108 0;
#X connect 117 0 102 0;
#X connect 117 1 13 0;
#X connect 117 2 120 0;
#X connect 118 0 100 0;
#X connect 118 1 35 0;
#X connect 118 2 119 0;
#X connect 119 0 121 5;
#X connect 120 0 12 3;
#X connect 122 0 45 0;
#X connect 123 0 88 0;
#X connect 124 0 88 0;
#X connect 126 1 127 0;
#X connect 127 0 134 1;
#X connect 127 1 129 0;
#X connect 128 0 134 0;
#X connect 128 1 126 0;
#X connect 129 0 134 2;
#X connect 129 1 130 0;
#X connect 130 0 134 3;
#X connect 130 1 134 4;
#X connect 131 0 128 0;
#X connect 135 1 136 0;
#X connect 136 0 145 1;
#X connect 136 1 138 0;
#X connect 137 0 145 0;
#X connect 137 1 135 0;
#X connect 138 0 145 2;
#X connect 138 1 139 0;
#X connect 139 0 145 3;
#X connect 139 1 141 0;
#X connect 140 0 145 4;
#X connect 141 0 140 0;
#X connect 141 1 146 0;
#X connect 144 0 137 0;
#X connect 146 0 145 4;
#X connect 147 0 142 0;
#X connect 148 1 149 0;
#X connect 149 0 159 1;
#X connect 149 1 151 0;
#X connect 150 0 159 0;
#X connect 150 1 148 0;
#X connect 151 0 159 2;
#X connect 151 1 152 0;
#X connect 152 0 159 3;
#X connect 152 1 154 0;
#X connect 153 0 159 4;
#X connect 154 0 153 0;
#X connect 154 1 157 0;
#X connect 157 0 159 4;
#X connect 158 0 150 0;
#X connect 160 0 155 0;
#X connect 161 1 201 0;
#X connect 162 0 168 0;
#X connect 162 1 161 0;
#X connect 163 0 168 1;
#X connect 165 0 168 1;
#X connect 167 0 162 0;
#X connect 169 0 164 0;
#X connect 172 0 171 5;
#X connect 175 0 176 0;
#X connect 177 0 178 0;
#X connect 179 0 59 0;
#X connect 180 0 57 0;
#X connect 181 0 186 0;
#X connect 182 0 186 0;
#X connect 183 0 186 0;
#X connect 184 0 186 0;
#X connect 185 0 186 0;
#X connect 187 0 192 0;
#X connect 188 0 192 0;
#X connect 189 0 192 0;
#X connect 190 0 192 0;
#X connect 191 0 192 0;
#X connect 194 0 193 5;
#X connect 195 0 30 0;
#X connect 196 0 30 0;
#X connect 198 0 197 0;
#X connect 200 0 163 0;
#X connect 200 1 165 0;
#X connect 201 0 200 0;
#X connect 201 1 168 2;
#X connect 202 0 144 0;
#X connect 203 0 132 0;
#X connect 204 0 131 0;
#X connect 205 0 14 0;
#X connect 206 0 15 0;
#X connect 207 0 32 0;
#X connect 208 0 40 0;
#X connect 209 0 90 0;
#X connect 210 0 85 0;
#X connect 211 0 113 0;
#X connect 212 0 175 0;
#X connect 215 0 62 0;
#X connect 216 0 54 0;
#X connect 217 0 47 0;
#X connect 218 0 73 0;
#X connect 219 0 96 0;
#X connect 220 0 115 0;
#X restore 273 24 pd oscOLED;
#X restore 245 75 pd OLED;
#N canvas 131 113 995 374 keys 0;
#X text 10 12 keyboard;
#X obj 30 167 s key1;
#X obj 30 137 > 0;
#X obj 30 64 r notes;
#X obj 75 137 > 0;
#X obj 75 167 s key2;
#X obj 118 138 > 0;
#X obj 163 138 > 0;
#X obj 118 168 s key3;
#X obj 164 168 s key4;
#X obj 214 138 > 0;
#X obj 259 138 > 0;
#X obj 302 139 > 0;
#X obj 347 139 > 0;
#X obj 214 168 s key5;
#X obj 259 168 s key6;
#X obj 302 169 s key7;
#X obj 348 169 s key8;
#X obj 395 139 > 0;
#X obj 440 139 > 0;
#X obj 492 138 > 0;
#X obj 546 138 > 0;
#X obj 395 169 s key9;
#X obj 440 169 s key10;
#X obj 492 168 s key11;
#X obj 547 168 s key12;
#X obj 30 103 route 60 61 62 63 64 65 66 67 68 69 70 71, f 93;
#X obj 36 275 > 0;
#X obj 36 202 r notes;
#X obj 85 275 > 0;
#X obj 133 275 > 0;
#X obj 181 275 > 0;
#X obj 232 275 > 0;
#X obj 281 275 > 0;
#X obj 330 275 > 0;
#X obj 378 275 > 0;
#X obj 428 274 > 0;
#X obj 477 275 > 0;
#X obj 529 276 > 0;
#X obj 581 276 > 0;
#X obj 36 241 route 72 73 74 75 76 77 78 79 80 81 82 83, f 93;
#X obj 36 305 s key13;
#X obj 85 305 s key14;
#X obj 133 305 s key15;
#X obj 182 305 s key16;
#X obj 232 305 s key17;
#X obj 281 305 s key18;
#X obj 330 305 s key19;
#X obj 379 305 s key20;
#X obj 428 305 s key21;
#X obj 477 305 s key22;
#X obj 529 306 s key23;
#X obj 582 306 s key24;
#X connect 2 0 1 0;
#X connect 3 0 26 0;
#X connect 4 0 5 0;
#X connect 6 0 8 0;
#X connect 7 0 9 0;
#X connect 10 0 14 0;
#X connect 11 0 15 0;
#X connect 12 0 16 0;
#X connect 13 0 17 0;
#X connect 18 0 22 0;
#X connect 19 0 23 0;
#X connect 20 0 24 0;
#X connect 21 0 25 0;
#X connect 26 0 2 0;
#X connect 26 1 4 0;
#X connect 26 2 6 0;
#X connect 26 3 7 0;
#X connect 26 4 10 0;
#X connect 26 5 11 0;
#X connect 26 6 12 0;
#X connect 26 7 13 0;
#X connect 26 8 18 0;
#X connect 26 9 19 0;
#X connect 26 10 20 0;
#X connect 26 11 21 0;
#X connect 27 0 41 0;
#X connect 28 0 40 0;
#X connect 29 0 42 0;
#X connect 30 0 43 0;
#X connect 31 0 44 0;
#X connect 32 0 45 0;
#X connect 33 0 46 0;
#X connect 34 0 47 0;
#X connect 35 0 48 0;
#X connect 36 0 49 0;
#X connect 37 0 50 0;
#X connect 38 0 51 0;
#X connect 39 0 52 0;
#X connect 40 0 27 0;
#X connect 40 1 29 0;
#X connect 40 2 30 0;
#X connect 40 3 31 0;
#X connect 40 4 32 0;
#X connect 40 5 33 0;
#X connect 40 6 34 0;
#X connect 40 7 35 0;
#X connect 40 8 36 0;
#X connect 40 9 37 0;
#X connect 40 10 38 0;
#X connect 40 11 39 0;
#X restore 468 39 pd keys;
#N canvas 20 55 1209 722 analog 0;
#X obj 773 367 s vol;
#X obj 130 364 s knob1;
#X obj 140 253 s knob1Raw;
#X obj 130 302 change -1;
#X obj 773 302 change -1;
#X obj 296 256 s knob2Raw;
#X obj 285 364 s knob2;
#X obj 285 302 change -1;
#X obj 448 302 change -1;
#X obj 462 256 s knob3Raw;
#X obj 448 364 s knob3;
#X obj 608 302 change -1;
#X obj 621 257 s knob4Raw;
#X obj 608 364 s knob4;
#X obj 130 333 / 1023;
#X obj 285 333 / 1023;
#X obj 448 333 / 1023;
#X obj 608 333 / 1023;
#X obj 773 333 / 1023;
#X obj 269 74 route 0 1 2 3;
#X obj 130 224 nbx 5 14 -1e+37 1e+37 0 0 empty empty empty 0 -8 0 10
-262144 -1 -1 824 256;
#X obj 285 229 nbx 5 14 -1e+37 1e+37 0 0 empty empty empty 0 -8 0 10
-262144 -1 -1 888 256;
#X obj 448 232 nbx 5 14 -1e+37 1e+37 0 0 empty empty empty 0 -8 0 10
-262144 -1 -1 904 256;
#X obj 608 232 nbx 5 14 -1e+37 1e+37 0 0 empty empty empty 0 -8 0 10
-262144 -1 -1 656 256;
#X obj 773 233 nbx 5 14 -1e+37 1e+37 0 0 empty empty empty 0 -8 0 10
-262144 -1 -1 632 256;
#X obj 807 119 spigot;
#X obj 876 62 tgl 15 0 empty empty empty 17 7 0 10 -262144 -1 -1 0
1;
#X obj 876 28 r funcBut;
#X obj 876 82 == 0;
#X obj 642 70 spigot 1;
#X obj 121 479 route 0 1 2;
#X obj 142 605 tgl 15 0 empty empty empty 17 7 0 10 -262144 -1 -1 0
1;
#X obj 322 565 tgl 15 0 empty empty empty 17 7 0 10 -262144 -1 -1 0
1;
#X obj 26 672 s aux;
#X obj 142 671 s fs;
#X obj 322 673 s funcBut;
#X obj 53 601 spigot 1;
#X obj 98 575 == 0;
#X obj 224 671 s encbut;
#X obj 224 643 tgl 15 0 empty empty empty 17 7 0 10 -262144 -1 -1 0
1;
#X obj 53 642 tgl 15 0 empty empty empty 17 7 0 10 -262144 -1 -1 0
1;
#X obj 224 568 spigot 0;
#X obj 53 542 == 0;
#X obj 163 121 spigot 1;
#X obj 100 61 tgl 15 0 empty empty empty 17 7 0 10 -262144 -1 -1 0
1;
#X obj 100 27 r funcBut;
#X obj 100 81 == 0;
#X obj 23 130 spigot;
#N canvas 757 277 450 300 encHandler 0;
#X obj 114 23 inlet;
#X obj 114 149 outlet;
#X obj 114 71 sel -1 1;
#X msg 114 107 0;
#X msg 150 107 1;
#X connect 0 0 2 0;
#X connect 2 0 3 0;
#X connect 2 1 4 0;
#X connect 3 0 1 0;
#X connect 4 0 1 0;
#X restore 23 183 pd encHandler;
#N canvas 523 356 450 300 speedlim 0;
#X obj 139 116 spigot 1;
#X msg 188 90 0;
#X msg 234 91 1;
#X obj 135 59 t b f;
#X obj 131 147 t b f;
#X obj 130 25 inlet;
#X obj 150 210 outlet;
#X obj 184 147 delay 100;
#X connect 0 0 4 0;
#X connect 1 0 0 1;
#X connect 2 0 0 1;
#X connect 3 0 1 0;
#X connect 3 1 0 0;
#X connect 4 0 7 0;
#X connect 4 1 6 0;
#X connect 5 0 3 0;
#X connect 7 0 2 0;
#X restore 23 214 pd speedlim;
#X obj 23 362 s enc;
#X obj 252 521 t f f f f;
#X obj 1134 244 t b f;
#X obj 1079 244 t b f;
#X obj 1022 246 t b f;
#X obj 1022 288 spigot 1;
#X obj 1022 320 spigot 1;
#X obj 1022 350 spigot 1;
#X obj 1022 210 route 0 1 2;
#X obj 1022 495 s Save;
#X obj 482 122 spigot 1;
#X obj 914 81 == 1;
#X obj 588 99 spigot 0;
#X obj 318 122 spigot 1;
#X obj 1050 112 loadbang;
#X obj 1050 140 t b b b;
#X msg 1084 170 1;
#X msg 1050 170 0;
#X msg 1119 172 2;
#X obj 1022 466 spigot 1;
#X msg 1067 431 0;
#X obj 1022 380 t b b b;
#X msg 1099 430 1;
#X obj 1099 401 delay 2000;
#X obj 269 594 sel 0 1;
#X msg 269 623 0;
#X obj 198 145 r knob1;
#X obj 98 145 r knob1Override;
#N canvas 1241 287 516 371 encscale2 0;
#X obj 161 82 t b f;
#X obj 161 104 f 0;
#X obj 161 131 +;
#X obj 161 160 clip -64 64;
#X obj 161 186 + 64;
#X obj 161 212 * 8;
#X obj 161 235 - 0;
#X obj 162 33 inlet;
#X obj 161 324 outlet;
#X floatatom 111 82 5 0 0 0 - - -;
#X floatatom 105 204 5 0 0 0 - - -;
#X obj 100 126 f;
#X obj 325 141 / 8;
#X obj 325 168 - 64;
#X obj 325 205 i;
#X obj 67 35 inlet;
#X obj 325 28 inlet;
#X text 6 35 Override;
#X text 372 30 knob input;
#X floatatom 359 252 5 0 0 0 - - -;
#X obj 52 95 t b b;
#X obj 325 111 * 1024;
#X connect 0 0 1 0;
#X connect 0 1 2 1;
#X connect 1 0 2 0;
#X connect 2 0 3 0;
#X connect 3 0 4 0;
#X connect 3 0 1 1;
#X connect 3 0 10 0;
#X connect 4 0 5 0;
#X connect 5 0 6 0;
#X connect 6 0 8 0;
#X connect 7 0 0 0;
#X connect 7 0 9 0;
#X connect 11 0 3 0;
#X connect 12 0 13 0;
#X connect 13 0 14 1;
#X connect 14 0 11 1;
#X connect 14 0 19 0;
#X connect 15 0 20 0;
#X connect 16 0 21 0;
#X connect 20 0 11 0;
#X connect 20 1 14 0;
#X connect 21 0 12 0;
#X restore 284 184 pd encscale2;
#X obj 254 148 r knob2Override;
#X obj 353 147 r knob2;
#X obj 418 149 r knob3Override;
#X obj 517 149 r knob3;
#X obj 577 149 r knob4Override;
#X obj 677 150 r knob4;
#X obj 844 151 r vol;
#X obj 745 152 r volOverride;
#N canvas 1241 287 516 371 encscale2 0;
#X obj 161 82 t b f;
#X obj 161 104 f 0;
#X obj 161 131 +;
#X obj 161 160 clip -64 64;
#X obj 161 186 + 64;
#X obj 161 212 * 8;
#X obj 161 235 - 0;
#X obj 162 33 inlet;
#X obj 161 324 outlet;
#X floatatom 111 82 5 0 0 0 - - -;
#X floatatom 105 204 5 0 0 0 - - -;
#X obj 100 126 f;
#X obj 325 141 / 8;
#X obj 325 168 - 64;
#X obj 325 205 i;
#X obj 67 35 inlet;
#X obj 325 28 inlet;
#X text 6 35 Override;
#X text 372 30 knob input;
#X floatatom 359 252 5 0 0 0 - - -;
#X obj 52 95 t b b;
#X obj 325 111 * 1024;
#X connect 0 0 1 0;
#X connect 0 1 2 1;
#X connect 1 0 2 0;
#X connect 2 0 3 0;
#X connect 3 0 4 0;
#X connect 3 0 1 1;
#X connect 3 0 10 0;
#X connect 4 0 5 0;
#X connect 5 0 6 0;
#X connect 6 0 8 0;
#X connect 7 0 0 0;
#X connect 7 0 9 0;
#X connect 11 0 3 0;
#X connect 12 0 13 0;
#X connect 13 0 14 1;
#X connect 14 0 11 1;
#X connect 14 0 19 0;
#X connect 15 0 20 0;
#X connect 16 0 21 0;
#X connect 20 0 11 0;
#X connect 20 1 14 0;
#X connect 21 0 12 0;
#X restore 130 183 pd encscale2;
#N canvas 1241 287 516 371 encscale2 0;
#X obj 161 82 t b f;
#X obj 161 104 f 0;
#X obj 161 131 +;
#X obj 161 160 clip -64 64;
#X obj 161 186 + 64;
#X obj 161 212 * 8;
#X obj 161 235 - 0;
#X obj 162 33 inlet;
#X obj 161 324 outlet;
#X floatatom 111 82 5 0 0 0 - - -;
#X floatatom 105 204 5 0 0 0 - - -;
#X obj 100 126 f;
#X obj 325 141 / 8;
#X obj 325 168 - 64;
#X obj 325 205 i;
#X obj 67 35 inlet;
#X obj 325 28 inlet;
#X text 6 35 Override;
#X text 372 30 knob input;
#X floatatom 359 252 5 0 0 0 - - -;
#X obj 52 95 t b b;
#X obj 325 111 * 1024;
#X connect 0 0 1 0;
#X connect 0 1 2 1;
#X connect 1 0 2 0;
#X connect 2 0 3 0;
#X connect 3 0 4 0;
#X connect 3 0 1 1;
#X connect 3 0 10 0;
#X connect 4 0 5 0;
#X connect 5 0 6 0;
#X connect 6 0 8 0;
#X connect 7 0 0 0;
#X connect 7 0 9 0;
#X connect 11 0 3 0;
#X connect 12 0 13 0;
#X connect 13 0 14 1;
#X connect 14 0 11 1;
#X connect 14 0 19 0;
#X connect 15 0 20 0;
#X connect 16 0 21 0;
#X connect 20 0 11 0;
#X connect 20 1 14 0;
#X connect 21 0 12 0;
#X restore 448 189 pd encscale2;
#N canvas 1241 287 516 371 encscale2 0;
#X obj 161 82 t b f;
#X obj 161 104 f 0;
#X obj 161 131 +;
#X obj 161 160 clip -64 64;
#X obj 161 186 + 64;
#X obj 161 212 * 8;
#X obj 161 235 - 0;
#X obj 162 33 inlet;
#X obj 161 324 outlet;
#X floatatom 111 82 5 0 0 0 - - -;
#X floatatom 105 204 5 0 0 0 - - -;
#X obj 100 126 f;
#X obj 325 141 / 8;
#X obj 325 168 - 64;
#X obj 325 205 i;
#X obj 67 35 inlet;
#X obj 325 28 inlet;
#X text 6 35 Override;
#X text 372 30 knob input;
#X floatatom 359 252 5 0 0 0 - - -;
#X obj 52 95 t b b;
#X obj 325 111 * 1024;
#X connect 0 0 1 0;
#X connect 0 1 2 1;
#X connect 1 0 2 0;
#X connect 2 0 3 0;
#X connect 3 0 4 0;
#X connect 3 0 1 1;
#X connect 3 0 10 0;
#X connect 4 0 5 0;
#X connect 5 0 6 0;
#X connect 6 0 8 0;
#X connect 7 0 0 0;
#X connect 7 0 9 0;
#X connect 11 0 3 0;
#X connect 12 0 13 0;
#X connect 13 0 14 1;
#X connect 14 0 11 1;
#X connect 14 0 19 0;
#X connect 15 0 20 0;
#X connect 16 0 21 0;
#X connect 20 0 11 0;
#X connect 20 1 14 0;
#X connect 21 0 12 0;
#X restore 608 191 pd encscale2;
#N canvas 1241 287 516 371 encscale2 0;
#X obj 161 82 t b f;
#X obj 161 104 f 0;
#X obj 161 131 +;
#X obj 161 160 clip -64 64;
#X obj 161 186 + 64;
#X obj 161 212 * 8;
#X obj 161 235 - 0;
#X obj 162 33 inlet;
#X obj 161 324 outlet;
#X floatatom 111 82 5 0 0 0 - - -;
#X floatatom 105 204 5 0 0 0 - - -;
#X obj 100 126 f;
#X obj 325 141 / 8;
#X obj 325 168 - 64;
#X obj 325 205 i;
#X obj 67 35 inlet;
#X obj 325 28 inlet;
#X text 6 35 Override;
#X text 372 30 knob input;
#X floatatom 359 252 5 0 0 0 - - -;
#X obj 52 95 t b b;
#X obj 325 111 * 1024;
#X connect 0 0 1 0;
#X connect 0 1 2 1;
#X connect 1 0 2 0;
#X connect 2 0 3 0;
#X connect 3 0 4 0;
#X connect 3 0 1 1;
#X connect 3 0 10 0;
#X connect 4 0 5 0;
#X connect 5 0 6 0;
#X connect 6 0 8 0;
#X connect 7 0 0 0;
#X connect 7 0 9 0;
#X connect 11 0 3 0;
#X connect 12 0 13 0;
#X connect 13 0 14 1;
#X connect 14 0 11 1;
#X connect 14 0 19 0;
#X connect 15 0 20 0;
#X connect 16 0 21 0;
#X connect 20 0 11 0;
#X connect 20 1 14 0;
#X connect 21 0 12 0;
#X restore 773 194 pd encscale2;
#X obj 75 672 s auxRaw;
#X obj 121 416 r SidekickO;
#X obj 121 446 routeOSC /nui/button;
#X obj 269 17 r SidekickO;
#X obj 269 44 routeOSC /nui/encoder;
#X obj 1022 52 r SidekickO;
#X obj 1022 82 routeOSC /nui/button;
#X text 24 13 ENCODERS;
#X text 32 413 BUTTONS;
#X text 1020 17 EXIT STATE;
#X obj 48 278 sel 0 1;
#X obj 48 304 bng 15 250 50 0 encRight empty empty 17 7 0 10 -262144
-1 -1;
#X obj 67 304 bng 15 250 50 0 encLeft empty empty 17 7 0 10 -262144
-1 -1;
#X obj 48 253 r enc;
#X connect 3 0 14 0;
#X connect 4 0 18 0;
#X connect 7 0 15 0;
#X connect 8 0 16 0;
#X connect 11 0 17 0;
#X connect 14 0 1 0;
#X connect 15 0 6 0;
#X connect 16 0 10 0;
#X connect 17 0 13 0;
#X connect 18 0 0 0;
#X connect 19 0 43 0;
#X connect 19 0 47 0;
#X connect 19 1 62 0;
#X connect 19 1 63 0;
#X connect 19 2 25 0;
#X connect 19 2 60 0;
#X connect 19 3 29 0;
#X connect 20 0 2 0;
#X connect 20 0 3 0;
#X connect 21 0 5 0;
#X connect 21 0 7 0;
#X connect 22 0 9 0;
#X connect 22 0 8 0;
#X connect 23 0 12 0;
#X connect 23 0 11 0;
#X connect 24 0 4 0;
#X connect 25 0 90 1;
#X connect 26 0 25 1;
#X connect 26 0 28 0;
#X connect 26 0 61 0;
#X connect 27 0 26 0;
#X connect 28 0 29 1;
#X connect 28 0 60 1;
#X connect 28 0 63 1;
#X connect 29 0 89 1;
#X connect 30 0 36 0;
#X connect 30 0 41 0;
#X connect 30 1 31 0;
#X connect 30 2 51 0;
#X connect 31 0 34 0;
#X connect 32 0 35 0;
#X connect 32 0 74 0;
#X connect 36 0 40 0;
#X connect 37 0 36 1;
#X connect 39 0 38 0;
#X connect 40 0 33 0;
#X connect 40 0 91 0;
#X connect 41 0 39 0;
#X connect 42 0 36 0;
#X connect 43 0 87 1;
#X connect 44 0 46 0;
#X connect 44 0 47 1;
#X connect 45 0 44 0;
#X connect 46 0 43 1;
#X connect 47 0 48 0;
#X connect 48 0 49 0;
#X connect 49 0 50 0;
#X connect 51 0 32 0;
#X connect 51 1 41 1;
#X connect 51 2 37 0;
#X connect 51 3 42 0;
#X connect 52 0 55 0;
#X connect 52 1 57 1;
#X connect 53 0 55 0;
#X connect 53 1 56 1;
#X connect 54 0 55 0;
#X connect 54 1 55 1;
#X connect 55 0 56 0;
#X connect 56 0 57 0;
#X connect 57 0 71 0;
#X connect 58 0 54 0;
#X connect 58 1 53 0;
#X connect 58 2 52 0;
#X connect 60 0 88 1;
#X connect 61 0 62 1;
#X connect 62 0 89 1;
#X connect 63 0 78 1;
#X connect 64 0 65 0;
#X connect 65 0 67 0;
#X connect 65 1 66 0;
#X connect 65 2 68 0;
#X connect 66 0 58 0;
#X connect 67 0 58 0;
#X connect 68 0 58 0;
#X connect 69 0 59 0;
#X connect 70 0 69 1;
#X connect 71 0 70 0;
#X connect 71 1 69 0;
#X connect 71 2 73 0;
#X connect 72 0 69 1;
#X connect 73 0 72 0;
#X connect 74 0 75 0;
#X connect 75 0 39 0;
#X connect 76 0 87 2;
#X connect 77 0 87 0;
#X connect 78 0 21 0;
#X connect 79 0 78 0;
#X connect 80 0 78 2;
#X connect 81 0 88 0;
#X connect 82 0 88 2;
#X connect 83 0 89 0;
#X connect 84 0 89 2;
#X connect 85 0 90 2;
#X connect 86 0 90 0;
#X connect 87 0 20 0;
#X connect 88 0 22 0;
#X connect 89 0 23 0;
#X connect 90 0 24 0;
#X connect 92 0 93 0;
#X connect 93 0 30 0;
#X connect 94 0 95 0;
#X connect 95 0 19 0;
#X connect 96 0 97 0;
#X connect 97 0 58 0;
#X connect 101 0 102 0;
#X connect 101 1 103 0;
#X connect 104 0 101 0;
#X restore 469 74 pd analog;
#N canvas 374 223 743 358 OscCom 0;
#X obj 87 50 r oscOut;
#X obj 377 303 tgl 15 0 skCon empty Sidekick_Con.ON/OFF 17 7 0 10 -262144
-1 -1 1 1;
#X obj 618 190 udpreceive;
#X obj 618 214 unpackOSC;
#X obj 377 228 packOSC;
#X obj 377 264 udpsend;
#X obj 460 80 t b b;
#X obj 460 41 loadbang;
#X msg 618 162 port 3000;
#X text 9 16 Organelle OSC Messages runs localy;
#X text 358 17 Communication with Sidekick >0.2;
#X obj 377 84 r SidekickI;
#X obj 618 238 s SidekickO;
#X msg 460 226 connect localhost 3001;
#X obj 87 142 s oscInternal;
#X obj 87 80 packOSC;
#X obj 87 110 unpackOSC;
#X msg 242 185 /nui/displayPaint;
#X obj 242 85 metro 100;
#X obj 312 148 delay 10;
#X obj 312 118 t b;
#X connect 0 0 15 0;
#X connect 2 0 3 0;
#X connect 3 0 12 0;
#X connect 4 0 5 0;
#X connect 5 0 1 0;
#X connect 6 0 13 0;
#X connect 6 1 8 0;
#X connect 7 0 6 0;
#X connect 7 0 18 0;
#X connect 8 0 2 0;
#X connect 11 0 4 0;
#X connect 11 0 20 0;
#X connect 13 0 5 0;
#X connect 15 0 16 0;
#X connect 16 0 14 0;
#X connect 17 0 4 0;
#X connect 18 0 17 0;
#X connect 19 0 17 0;
#X connect 20 0 19 0;
#X restore 47 42 pd OscCom;
#X text 186 14 Led and Oled visualizations;
#X text 431 13 Physical Controllers;
#X text 10 12 Communication Manager;
#X restore 7 160 pd messageIO;
#N canvas 0 54 1280 724 MIDI 0;
#X obj 48 268 spigot 1;
#X obj 93 229 r midiInGate;
#X obj 75 331 / 127;
#X obj 75 353 s knob1;
#X obj 48 378 s knob1Override;
#X obj 48 229 change;
#X obj 232 267 spigot 1;
#X obj 277 228 r midiInGate;
#X obj 259 335 / 127;
#X obj 232 228 change;
#X obj 423 260 spigot 1;
#X obj 468 226 r midiInGate;
#X obj 450 328 / 127;
#X obj 423 226 change;
#X obj 601 266 spigot 1;
#X obj 646 232 r midiInGate;
#X obj 628 333 / 127;
#X obj 601 232 change;
#X obj 259 357 s knob2;
#X obj 450 350 s knob3;
#X obj 628 355 s knob4;
#X obj 232 382 s knob2Override;
#X obj 423 375 s knob3Override;
#X obj 601 379 s knob4Override;
#X obj 1688 267 spigot 1;
#X obj 756 663 spigot 1;
#X obj 756 695 unpack;
#X obj 756 727 noteout;
#X obj 1733 232 r midiInGate;
#X obj 1688 302 s notes;
#X obj 809 626 r midiOutGate;
#X obj 46 686 i;
#X obj 46 708 change;
#X obj 46 640 spigot 1;
#X obj 99 608 r midiOutGate;
#X obj 218 688 i;
#X obj 218 710 change;
#X obj 218 642 spigot 1;
#X obj 271 610 r midiOutGate;
#X obj 388 692 i;
#X obj 388 714 change;
#X obj 388 646 spigot 1;
#X obj 441 614 r midiOutGate;
#X obj 566 689 i;
#X obj 566 711 change;
#X obj 566 643 spigot 1;
#X obj 619 611 r midiOutGate;
#X obj 566 667 / 8;
#X obj 388 670 / 8;
#X obj 218 666 / 8;
#X obj 46 664 / 8;
#X obj 46 730 ctlout 21 1;
#X obj 218 732 ctlout 22 1;
#X obj 386 736 ctlout 23 1;
#X obj 566 733 ctlout 24 1;
#X obj 46 567 r knob1Raw;
#X obj 218 578 r knob2Raw;
#X obj 388 574 r knob3Raw;
#X obj 566 584 r knob4Raw;
#X text 48 55 MIDI in;
#X text 46 462 MIDI out;
#X obj 944 684 i;
#X obj 944 706 change;
#X obj 944 638 spigot 1;
#X obj 997 606 r midiOutGate;
#X obj 944 579 r auxRaw;
#X obj 944 662 * 127;
#X obj 944 732 ctlout 25 1;
#X obj 1260 235 spigot 1;
#X obj 1305 211 r midiInGate;
#X obj 1260 323 s aux;
#X obj 1125 675 i;
#X obj 1125 697 change;
#X obj 1125 629 spigot 1;
#X obj 1178 597 r midiOutGate;
#X obj 1125 653 * 127;
#X obj 1125 570 r fsRaw;
#X obj 1548 233 spigot 1;
#X obj 1593 208 r midiInGate;
#X obj 1548 322 s fs;
#X obj 1548 263 >= 64;
#X obj 1548 295 change;
#X obj 1260 264 >= 64;
#X obj 1260 296 change;
#N canvas 809 201 653 703 program-change-in 0;
#X obj 116 35 pgmin;
#X obj 141 361 s oscOut;
#X msg 141 332 send /pgmchg \$1;
#X obj 141 171 spigot 1;
#X obj 194 111 r midiInGate;
#X obj 232 139 loadbang;
#X obj 141 231 spigot 0;
#X msg 232 196 1;
#X obj 232 167 delay 500;
#X msg 227 234 0;
#X text 271 220 speed limit these;
#X text 43 4 program change in loads new patch;
#X obj 141 265 t f b b;
#X obj 141 298 i;
#N canvas 1101 410 681 530 chsel 0;
#X obj 159 28 r midiCh;
#X obj 67 61 swap;
#X obj 67 86 pack;
#X obj 44 29 inlet;
#X obj 97 28 inlet;
#X obj 67 347 outlet;
#X obj 67 169 route 1;
#X obj 120 211 spigot;
#X obj 159 167 == 0;
#X obj 120 234 unpack;
#X connect 0 0 6 1;
#X connect 0 0 8 0;
#X connect 1 0 2 0;
#X connect 1 1 2 1;
#X connect 2 0 6 0;
#X connect 3 0 1 0;
#X connect 4 0 1 1;
#X connect 6 0 5 0;
#X connect 6 1 7 0;
#X connect 7 0 9 0;
#X connect 8 0 7 1;
#X connect 9 1 5 0;
#X restore 115 78 pd chsel;
#X connect 0 0 14 0;
#X connect 0 1 14 1;
#X connect 2 0 1 0;
#X connect 3 0 6 0;
#X connect 4 0 3 1;
#X connect 5 0 8 0;
#X connect 6 0 12 0;
#X connect 7 0 6 1;
#X connect 8 0 7 0;
#X connect 9 0 6 1;
#X connect 12 0 13 0;
#X connect 12 1 8 0;
#X connect 12 2 9 0;
#X connect 13 0 2 0;
#X connect 14 0 3 0;
#X restore 941 41 pd program-change-in;
#X obj 1327 678 i;
#X obj 1327 700 change;
#X obj 1327 632 spigot 1;
#X obj 1380 600 r midiOutGate;
#X obj 1327 656 / 8;
#X obj 1327 573 r expRaw;
#X obj 926 270 spigot 1;
#X obj 971 236 r midiInGate;
#X obj 953 332 / 127;
#X obj 926 237 change;
#X obj 926 383 s expOverride;
#X obj 953 356 s exp;
#X obj 48 157 ctlin 21;
#X obj 1694 159 notein;
#N canvas 413 248 743 412 chsel 0;
#X obj 67 61 swap;
#X obj 67 86 pack;
#X obj 44 29 inlet;
#X obj 97 28 inlet;
#X obj 67 347 outlet;
#X obj 67 169 route 1;
#X obj 120 211 spigot;
#X obj 159 167 == 0;
#X obj 120 234 unpack;
#X obj 159 28 r midiWorkCh;
#X connect 0 0 1 0;
#X connect 0 1 1 1;
#X connect 1 0 5 0;
#X connect 2 0 0 0;
#X connect 3 0 0 1;
#X connect 5 0 4 0;
#X connect 5 1 6 0;
#X connect 6 0 8 0;
#X connect 7 0 6 1;
#X connect 8 1 4 0;
#X connect 9 0 5 1;
#X connect 9 0 7 0;
#X restore 48 188 pd chsel;
#N canvas 0 54 1280 755 chsel 0;
#X obj 187 417 pack;
#X obj 207 372 f;
#X obj 168 372 f;
#X obj 237 123 f;
#X obj 152 87 t b f;
#X obj 237 145 sel 1;
#X obj 237 325 t b b;
#X obj 117 35 inlet;
#X obj 199 37 inlet;
#X obj 274 39 inlet;
#X obj 186 444 outlet;
#X obj 325 173 spigot;
#X obj 364 129 == 0;
#X obj 302 246 bng 15 250 50 0 empty empty empty 17 7 0 10 -262144
-1 -1;
#X obj 342 33 r midiWorkCh;
#X connect 0 0 10 0;
#X connect 1 0 0 1;
#X connect 2 0 0 0;
#X connect 3 0 5 0;
#X connect 4 0 3 0;
#X connect 4 1 2 1;
#X connect 5 0 6 0;
#X connect 5 1 11 0;
#X connect 6 0 2 0;
#X connect 6 1 1 0;
#X connect 7 0 4 0;
#X connect 8 0 1 1;
#X connect 9 0 3 1;
#X connect 11 0 13 0;
#X connect 12 0 11 1;
#X connect 13 0 6 0;
#X connect 14 0 5 1;
#X connect 14 0 12 0;
#X restore 1688 207 pd chsel;
#X floatatom 48 113 5 0 0 0 - - -;
#X obj 232 163 ctlin 22;
#X obj 423 162 ctlin 23;
#X obj 601 163 ctlin 24;
#X obj 1260 161 ctlin 25;
#X obj 1260 211 change;
#X obj 1548 207 change;
#X obj 120 696 r midiOutCh;
#X obj 292 700 r midiOutCh;
#X obj 460 700 r midiOutCh;
#X obj 640 686 r midiOutCh;
#X obj 820 693 r midiOutCh;
#X obj 1018 696 r midiOutCh;
#X obj 1199 688 r midiOutCh;
#X obj 1401 689 r midiOutCh;
#N canvas 312 366 743 412 chsel 0;
#X obj 67 61 swap;
#X obj 67 86 pack;
#X obj 44 29 inlet;
#X obj 97 28 inlet;
#X obj 67 347 outlet;
#X obj 67 169 route 1;
#X obj 120 211 spigot;
#X obj 159 167 == 0;
#X obj 120 234 unpack;
#X obj 159 28 r midiWorkCh;
#X connect 0 0 1 0;
#X connect 0 1 1 1;
#X connect 1 0 5 0;
#X connect 2 0 0 0;
#X connect 3 0 0 1;
#X connect 5 0 4 0;
#X connect 5 1 6 0;
#X connect 6 0 8 0;
#X connect 7 0 6 1;
#X connect 8 1 4 0;
#X connect 9 0 5 1;
#X connect 9 0 7 0;
#X restore 232 195 pd chsel;
#N canvas 312 366 743 412 chsel 0;
#X obj 67 61 swap;
#X obj 67 86 pack;
#X obj 44 29 inlet;
#X obj 97 28 inlet;
#X obj 67 347 outlet;
#X obj 67 169 route 1;
#X obj 120 211 spigot;
#X obj 159 167 == 0;
#X obj 120 234 unpack;
#X obj 159 28 r midiWorkCh;
#X connect 0 0 1 0;
#X connect 0 1 1 1;
#X connect 1 0 5 0;
#X connect 2 0 0 0;
#X connect 3 0 0 1;
#X connect 5 0 4 0;
#X connect 5 1 6 0;
#X connect 6 0 8 0;
#X connect 7 0 6 1;
#X connect 8 1 4 0;
#X connect 9 0 5 1;
#X connect 9 0 7 0;
#X restore 423 193 pd chsel;
#N canvas 312 366 743 412 chsel 0;
#X obj 67 61 swap;
#X obj 67 86 pack;
#X obj 44 29 inlet;
#X obj 97 28 inlet;
#X obj 67 347 outlet;
#X obj 67 169 route 1;
#X obj 120 211 spigot;
#X obj 159 167 == 0;
#X obj 120 234 unpack;
#X obj 159 28 r midiWorkCh;
#X connect 0 0 1 0;
#X connect 0 1 1 1;
#X connect 1 0 5 0;
#X connect 2 0 0 0;
#X connect 3 0 0 1;
#X connect 5 0 4 0;
#X connect 5 1 6 0;
#X connect 6 0 8 0;
#X connect 7 0 6 1;
#X connect 8 1 4 0;
#X connect 9 0 5 1;
#X connect 9 0 7 0;
#X restore 601 199 pd chsel;
#N canvas 312 366 743 412 chsel 0;
#X obj 67 61 swap;
#X obj 67 86 pack;
#X obj 44 29 inlet;
#X obj 97 28 inlet;
#X obj 67 347 outlet;
#X obj 67 169 route 1;
#X obj 120 211 spigot;
#X obj 159 167 == 0;
#X obj 120 234 unpack;
#X obj 159 28 r midiWorkCh;
#X connect 0 0 1 0;
#X connect 0 1 1 1;
#X connect 1 0 5 0;
#X connect 2 0 0 0;
#X connect 3 0 0 1;
#X connect 5 0 4 0;
#X connect 5 1 6 0;
#X connect 6 0 8 0;
#X connect 7 0 6 1;
#X connect 8 1 4 0;
#X connect 9 0 5 1;
#X connect 9 0 7 0;
#X restore 1260 187 pd chsel;
#N canvas 312 366 743 412 chsel 0;
#X obj 67 61 swap;
#X obj 67 86 pack;
#X obj 44 29 inlet;
#X obj 97 28 inlet;
#X obj 67 347 outlet;
#X obj 67 169 route 1;
#X obj 120 211 spigot;
#X obj 159 167 == 0;
#X obj 120 234 unpack;
#X obj 159 28 r midiWorkCh;
#X connect 0 0 1 0;
#X connect 0 1 1 1;
#X connect 1 0 5 0;
#X connect 2 0 0 0;
#X connect 3 0 0 1;
#X connect 5 0 4 0;
#X connect 5 1 6 0;
#X connect 6 0 8 0;
#X connect 7 0 6 1;
#X connect 8 1 4 0;
#X connect 9 0 5 1;
#X connect 9 0 7 0;
#X restore 1548 185 pd chsel;
#N canvas 312 366 743 412 chsel 0;
#X obj 67 61 swap;
#X obj 67 86 pack;
#X obj 44 29 inlet;
#X obj 97 28 inlet;
#X obj 67 347 outlet;
#X obj 67 169 route 1;
#X obj 120 211 spigot;
#X obj 159 167 == 0;
#X obj 120 234 unpack;
#X obj 159 28 r midiWorkCh;
#X connect 0 0 1 0;
#X connect 0 1 1 1;
#X connect 1 0 5 0;
#X connect 2 0 0 0;
#X connect 3 0 0 1;
#X connect 5 0 4 0;
#X connect 5 1 6 0;
#X connect 6 0 8 0;
#X connect 7 0 6 1;
#X connect 8 1 4 0;
#X connect 9 0 5 1;
#X connect 9 0 7 0;
#X restore 926 205 pd chsel;
#X obj 133 86 r midiInGate;
#X floatatom 133 113 5 0 0 0 - - -;
#X floatatom 48 527 5 0 0 0 - - -;
#X floatatom 132 527 5 0 0 0 - - -;
#X obj 48 498 r midiOutCh;
#X obj 132 496 r midiOutGate;
#N canvas 310 79 892 657 readMidiInfo 0;
#X obj 162 191 textfile;
#X msg 179 135 rewind;
#X obj 145 89 t b b b b;
#X floatatom 123 258 5 0 0 0 - - -;
#X floatatom 209 258 5 0 0 0 - - -;
#X msg 235 135 read midi.txt, f 17;
#X obj 145 224 unpack f f f f, f 35;
#X floatatom 294 258 5 0 0 0 - - -;
#X floatatom 374 258 5 0 0 0 - - -;
#X obj 209 294 s midiInGate;
#X obj 63 292 s midiCh;
#X obj 374 294 s midiOutGate;
#X obj 294 294 s midiOutCh;
#X obj 145 34 loadbang;
#X obj 145 60 bng 15 250 50 0 empty empty empty 17 7 0 10 -262144 -1
-1;
#X text 51 60 Force Read -->;
#X obj 123 293 s midiWorkCh;
#X msg 64 203 17;
#X connect 0 0 6 0;
#X connect 1 0 0 0;
#X connect 2 0 6 0;
#X connect 2 0 17 0;
#X connect 2 1 0 0;
#X connect 2 2 1 0;
#X connect 2 3 5 0;
#X connect 3 0 16 0;
#X connect 4 0 9 0;
#X connect 5 0 0 0;
#X connect 6 0 3 0;
#X connect 6 1 4 0;
#X connect 6 2 7 0;
#X connect 6 3 8 0;
#X connect 7 0 12 0;
#X connect 8 0 11 0;
#X connect 13 0 14 0;
#X connect 14 0 2 0;
#X connect 17 0 10 0;
#X restore 939 15 pd readMidiInfo;
#X text 580 16 All MIDI in/out conf. info are get from the midi.txt
file;
#X text 790 42 Manage Program Changes;
#X obj 1541 568 r ledStateRaw;
#X obj 1540 672 i;
#X obj 1540 694 change;
#X obj 1540 626 spigot 1;
#X obj 1593 594 r midiOutGate;
#X obj 1614 683 r midiOutCh;
#X obj 1540 716 ctlout 27 1;
#X obj 1540 650 * 18;
#X text 1481 527 Sends the led state 0->7 to CC-27 0=OFF \, 1=RED \,
2=BLUE \, 3=GREEN \, 4=PURPLE...;
#X obj 769 267 spigot 1;
#X obj 814 232 r midiInGate;
#X obj 796 331 / 127;
#X obj 769 232 change;
#N canvas 312 366 743 412 chsel 0;
#X obj 67 61 swap;
#X obj 67 86 pack;
#X obj 44 29 inlet;
#X obj 97 28 inlet;
#X obj 67 347 outlet;
#X obj 67 169 route 1;
#X obj 120 211 spigot;
#X obj 159 167 == 0;
#X obj 120 234 unpack;
#X obj 159 28 r midiWorkCh;
#X connect 0 0 1 0;
#X connect 0 1 1 1;
#X connect 1 0 5 0;
#X connect 2 0 0 0;
#X connect 3 0 0 1;
#X connect 5 0 4 0;
#X connect 5 1 6 0;
#X connect 6 0 8 0;
#X connect 7 0 6 1;
#X connect 8 1 4 0;
#X connect 9 0 5 1;
#X connect 9 0 7 0;
#X restore 769 200 pd chsel;
#X obj 769 164 ctlin 7;
#X obj 769 380 s volOverride;
#X obj 796 356 s vol;
#X obj 232 297 t b f;
#X obj 48 298 t b f;
#X obj 423 290 t b f;
#X obj 601 296 t b f;
#X obj 769 297 t b f;
#X obj 926 303 t b f;
#X obj 1406 234 spigot 1;
#X obj 1451 210 r midiInGate;
#X obj 1406 263 >= 64;
#X obj 1406 295 change;
#X obj 1406 210 change;
#N canvas 312 366 743 412 chsel 0;
#X obj 67 61 swap;
#X obj 67 86 pack;
#X obj 44 29 inlet;
#X obj 97 28 inlet;
#X obj 67 347 outlet;
#X obj 67 169 route 1;
#X obj 120 211 spigot;
#X obj 159 167 == 0;
#X obj 120 234 unpack;
#X obj 159 28 r midiWorkCh;
#X connect 0 0 1 0;
#X connect 0 1 1 1;
#X connect 1 0 5 0;
#X connect 2 0 0 0;
#X connect 3 0 0 1;
#X connect 5 0 4 0;
#X connect 5 1 6 0;
#X connect 6 0 8 0;
#X connect 7 0 6 1;
#X connect 8 1 4 0;
#X connect 9 0 5 1;
#X connect 9 0 7 0;
#X restore 1406 186 pd chsel;
#X obj 1406 322 s encbut;
#X obj 926 165 ctlin 11;
#X obj 1548 161 ctlin 4;
#X obj 1125 723 ctlout 4 1;
#X obj 1327 722 ctlout 11 1;
#X obj 1406 160 ctlin 26;
#X obj 1086 272 spigot 1;
#X obj 1131 238 r midiInGate;
#N canvas 312 366 743 412 chsel 0;
#X obj 67 61 swap;
#X obj 67 86 pack;
#X obj 44 29 inlet;
#X obj 97 28 inlet;
#X obj 67 347 outlet;
#X obj 67 169 route 1;
#X obj 120 211 spigot;
#X obj 159 167 == 0;
#X obj 120 234 unpack;
#X obj 159 28 r midiWorkCh;
#X connect 0 0 1 0;
#X connect 0 1 1 1;
#X connect 1 0 5 0;
#X connect 2 0 0 0;
#X connect 3 0 0 1;
#X connect 5 0 4 0;
#X connect 5 1 6 0;
#X connect 6 0 8 0;
#X connect 7 0 6 1;
#X connect 8 1 4 0;
#X connect 9 0 5 1;
#X connect 9 0 7 0;
#X restore 1086 207 pd chsel;
#X obj 1086 167 ctlin 28;
#N canvas 707 206 570 475 midiEnc 0;
#X obj 162 17 inlet;
#X obj 186 379 outlet;
#X obj 186 108 -;
#X obj 162 43 t f b f;
#X obj 162 79 f;
#X obj 186 133 clip -1 1;
#X obj 186 264 f;
#X obj 186 162 t b f;
#X msg 246 219 1;
#X msg 213 219 0;
#X obj 213 186 sel -1 1 0;
#X obj 186 345 spigot 1;
#X obj 355 248 f;
#X obj 285 218 t b b b;
#X obj 285 262 f;
#X msg 242 263 1;
#X msg 328 323 0;
#X obj 395 248 + 1;
#X obj 383 282 sel 1 0;
#X msg 378 322 1;
#X connect 0 0 3 0;
#X connect 2 0 5 0;
#X connect 3 0 4 1;
#X connect 3 1 4 0;
#X connect 3 2 2 1;
#X connect 4 0 2 0;
#X connect 5 0 7 0;
#X connect 6 0 11 0;
#X connect 7 0 6 0;
#X connect 7 1 10 0;
#X connect 8 0 6 1;
#X connect 8 0 15 0;
#X connect 9 0 6 1;
#X connect 9 0 15 0;
#X connect 10 0 9 0;
#X connect 10 1 8 0;
#X connect 10 2 13 0;
#X connect 11 0 1 0;
#X connect 12 0 17 0;
#X connect 12 0 18 0;
#X connect 13 0 14 0;
#X connect 13 2 12 0;
#X connect 14 0 11 1;
#X connect 15 0 11 1;
#X connect 15 0 12 1;
#X connect 16 0 12 1;
#X connect 16 0 14 1;
#X connect 17 0 12 1;
#X connect 18 0 16 0;
#X connect 18 1 19 0;
#X connect 19 0 14 1;
#X restore 1086 314 pd midiEnc;
#X obj 1086 355 s enc;
#X obj 23 753 s MidiOut;
#X obj 192 757 s MidiOut;
#X obj 352 759 s MidiOut;
#X obj 544 754 s MidiOut;
#X obj 733 751 s MidiOut;
#X obj 912 752 s MidiOut;
#X obj 1106 751 s MidiOut;
#X obj 1298 743 s MidiOut;
#X obj 1509 739 s MidiOut;
#X obj 1748 302 s notesRaw;
#X obj 48 86 r midiWorkCh;
#X obj 756 589 r notesRaw;
#N canvas 0 54 450 300 midiClock 0;
#X obj 76 19 midirealtimein;
#X obj 76 64 sel 248, f 8;
#X connect 0 0 1 0;
#X restore 940 69 pd midiClock;
#X obj 1589 323 s fsRaw;
#X connect 0 0 149 0;
#X connect 1 0 0 1;
#X connect 2 0 3 0;
#X connect 5 0 0 0;
#X connect 6 0 148 0;
#X connect 7 0 6 1;
#X connect 8 0 18 0;
#X connect 9 0 6 0;
#X connect 10 0 150 0;
#X connect 11 0 10 1;
#X connect 12 0 19 0;
#X connect 13 0 10 0;
#X connect 14 0 151 0;
#X connect 15 0 14 1;
#X connect 16 0 20 0;
#X connect 17 0 14 0;
#X connect 24 0 29 0;
#X connect 24 0 181 0;
#X connect 25 0 26 0;
#X connect 25 0 176 0;
#X connect 26 0 27 0;
#X connect 26 1 27 1;
#X connect 28 0 24 1;
#X connect 30 0 25 1;
#X connect 31 0 32 0;
#X connect 32 0 51 0;
#X connect 32 0 172 0;
#X connect 33 0 50 0;
#X connect 34 0 33 1;
#X connect 35 0 36 0;
#X connect 36 0 52 0;
#X connect 36 0 173 0;
#X connect 37 0 49 0;
#X connect 38 0 37 1;
#X connect 39 0 40 0;
#X connect 40 0 53 0;
#X connect 40 0 174 0;
#X connect 41 0 48 0;
#X connect 42 0 41 1;
#X connect 43 0 44 0;
#X connect 44 0 54 0;
#X connect 44 0 175 0;
#X connect 45 0 47 0;
#X connect 46 0 45 1;
#X connect 47 0 43 0;
#X connect 48 0 39 0;
#X connect 49 0 35 0;
#X connect 50 0 31 0;
#X connect 55 0 33 0;
#X connect 56 0 37 0;
#X connect 57 0 41 0;
#X connect 58 0 45 0;
#X connect 61 0 62 0;
#X connect 62 0 67 0;
#X connect 62 0 177 0;
#X connect 63 0 66 0;
#X connect 64 0 63 1;
#X connect 65 0 63 0;
#X connect 66 0 61 0;
#X connect 68 0 82 0;
#X connect 69 0 68 1;
#X connect 71 0 72 0;
#X connect 72 0 163 0;
#X connect 72 0 178 0;
#X connect 73 0 75 0;
#X connect 74 0 73 1;
#X connect 75 0 71 0;
#X connect 76 0 73 0;
#X connect 77 0 80 0;
#X connect 78 0 77 1;
#X connect 80 0 81 0;
#X connect 81 0 79 0;
#X connect 81 0 185 0;
#X connect 82 0 83 0;
#X connect 83 0 70 0;
#X connect 85 0 86 0;
#X connect 86 0 164 0;
#X connect 86 0 179 0;
#X connect 87 0 89 0;
#X connect 88 0 87 1;
#X connect 89 0 85 0;
#X connect 90 0 87 0;
#X connect 91 0 153 0;
#X connect 92 0 91 1;
#X connect 93 0 96 0;
#X connect 94 0 91 0;
#X connect 97 0 99 0;
#X connect 97 1 99 1;
#X connect 98 0 100 0;
#X connect 98 1 100 1;
#X connect 98 2 100 2;
#X connect 99 0 5 0;
#X connect 100 0 24 0;
#X connect 102 0 116 0;
#X connect 102 1 116 1;
#X connect 103 0 117 0;
#X connect 103 1 117 1;
#X connect 104 0 118 0;
#X connect 104 1 118 1;
#X connect 105 0 119 0;
#X connect 105 1 119 1;
#X connect 106 0 68 0;
#X connect 107 0 77 0;
#X connect 108 0 51 2;
#X connect 109 0 52 2;
#X connect 110 0 53 2;
#X connect 111 0 54 2;
#X connect 112 0 27 2;
#X connect 113 0 67 2;
#X connect 114 0 163 2;
#X connect 115 0 164 2;
#X connect 116 0 9 0;
#X connect 117 0 13 0;
#X connect 118 0 17 0;
#X connect 119 0 106 0;
#X connect 120 0 107 0;
#X connect 121 0 94 0;
#X connect 122 0 123 0;
#X connect 126 0 124 0;
#X connect 127 0 125 0;
#X connect 131 0 134 0;
#X connect 132 0 133 0;
#X connect 133 0 137 0;
#X connect 133 0 180 0;
#X connect 134 0 138 0;
#X connect 135 0 134 1;
#X connect 136 0 137 2;
#X connect 138 0 132 0;
#X connect 140 0 152 0;
#X connect 141 0 140 1;
#X connect 142 0 147 0;
#X connect 143 0 140 0;
#X connect 144 0 143 0;
#X connect 145 0 144 0;
#X connect 145 1 144 1;
#X connect 148 0 21 0;
#X connect 148 1 8 0;
#X connect 149 0 4 0;
#X connect 149 1 2 0;
#X connect 150 0 22 0;
#X connect 150 1 12 0;
#X connect 151 0 23 0;
#X connect 151 1 16 0;
#X connect 152 0 146 0;
#X connect 152 1 142 0;
#X connect 153 0 95 0;
#X connect 153 1 93 0;
#X connect 154 0 156 0;
#X connect 155 0 154 1;
#X connect 156 0 157 0;
#X connect 157 0 160 0;
#X connect 158 0 154 0;
#X connect 159 0 158 0;
#X connect 161 0 121 0;
#X connect 161 1 121 1;
#X connect 162 0 120 0;
#X connect 162 1 120 1;
#X connect 165 0 159 0;
#X connect 165 1 159 1;
#X connect 166 0 170 0;
#X connect 167 0 166 1;
#X connect 168 0 166 0;
#X connect 169 0 168 0;
#X connect 169 1 168 1;
#X connect 170 0 171 0;
#X connect 182 0 101 0;
#X connect 183 0 25 0;
#X coords 0 0 5 1 0 0 0;
#X restore 7 192 pd MIDI;
#N canvas 739 177 541 549 menuControl 0;
#X obj 139 196 s oscOut;
#X msg 112 144 send /gohome 1;
#X obj 231 87 r enableSubMenu;
#X obj 112 111 bang;
#X obj 112 89 r goHome;
#X msg 231 143 send /enablepatchsub 1;
#X obj 231 115 bang;
#X text 64 10 If we get a bang to enableSubMenu we start recieving
messages from the selector encoder. A goHome menu returns to the Organelle
main menu.;
#X obj 122 389 bng 15 250 50 0 empty empty empty 17 7 0 10 -262144
-1 -1;
#X obj 122 354 routeOSC /gohome;
#X obj 122 419 s Save;
#X obj 212 421 s exit;
#X obj 122 319 r oscInternal;
#X connect 1 0 0 0;
#X connect 2 0 6 0;
#X connect 3 0 1 0;
#X connect 4 0 3 0;
#X connect 5 0 0 0;
#X connect 6 0 5 0;
#X connect 8 0 10 0;
#X connect 8 0 11 0;
#X connect 9 0 8 0;
#X connect 12 0 9 0;
#X restore 7 224 pd menuControl;
#N canvas 295 201 867 378 init 0;
#X msg 54 265 \; pd dsp 1, f 10;
#X obj 54 217 delay 200;
#X obj 144 217 delay 100;
#N canvas 115 54 1165 724 checkAndRecallKnobState 0;
#X obj 426 503 textfile;
#X obj 505 154 sel 1;
#X msg 177 177 rewind;
#X obj 140 119 bng 15 250 50 0 empty empty empty 17 7 0 10 -262144
-1 -1;
#X obj 140 141 t b b b;
#X obj 652 186 r knob1;
#X obj 710 186 r knob2;
#X obj 774 186 r knob3;
#X obj 839 186 r knob4;
#X msg 553 209 set;
#X obj 602 265 list trim;
#X obj 228 580 t b f;
#X obj 228 698 s recallState;
#X obj 505 94 r oscIn;
#X obj 505 124 routeOSC /saveState;
#X obj 359 218 s saveState;
#X obj 505 184 t b b b;
#X text 266 22 Save and recall knob states. We always save to the /tmp/state
directory which gets copied to the current patch or new patch whe the
Save or Save New system command is selected.;
#X obj 282 647 s knob1;
#X obj 255 671 s knob1Override;
#X obj 140 93 inlet;
#X obj 387 643 s knob2;
#X obj 360 670 s knob2Override;
#X obj 489 642 s knob3;
#X obj 462 669 s knob3Override;
#X obj 589 643 s knob4;
#X obj 562 668 s knob4Override;
#X msg 427 117 1;
#X obj 427 85 r Save;
#X msg 248 170 read knobs.txt;
#X msg 398 268 write knobs.txt;
#X obj 367 158 print SAVE VALUES!;
#X obj 602 236 pack s 0 0 0 0 0;
#X obj 898 187 r vol;
#X obj 426 527 unpack 0 0 0 0 0;
#X obj 690 639 s vol;
#X obj 663 667 s volOverride;
#X obj 255 613 t b f;
#X obj 360 609 t b f;
#X obj 462 609 t b f;
#X obj 562 604 t b f;
#X obj 663 601 t b f;
#X connect 0 0 34 0;
#X connect 1 0 16 0;
#X connect 2 0 0 0;
#X connect 3 0 4 0;
#X connect 4 0 0 0;
#X connect 4 1 2 0;
#X connect 4 2 29 0;
#X connect 5 0 32 1;
#X connect 6 0 32 2;
#X connect 7 0 32 3;
#X connect 8 0 32 4;
#X connect 9 0 32 0;
#X connect 10 0 0 0;
#X connect 11 0 12 0;
#X connect 11 1 37 0;
#X connect 13 0 14 0;
#X connect 14 0 1 0;
#X connect 16 0 15 0;
#X connect 16 1 30 0;
#X connect 16 2 9 0;
#X connect 20 0 3 0;
#X connect 27 0 1 0;
#X connect 28 0 27 0;
#X connect 28 0 31 0;
#X connect 29 0 0 0;
#X connect 30 0 0 0;
#X connect 32 0 10 0;
#X connect 33 0 32 5;
#X connect 34 0 11 0;
#X connect 34 1 38 0;
#X connect 34 2 39 0;
#X connect 34 3 40 0;
#X connect 34 4 41 0;
#X connect 37 0 19 0;
#X connect 37 1 18 0;
#X connect 38 0 22 0;
#X connect 38 1 21 0;
#X connect 39 0 24 0;
#X connect 39 1 23 0;
#X connect 40 0 26 0;
#X connect 40 1 25 0;
#X connect 41 0 36 0;
#X connect 41 1 35 0;
#X restore 144 265 pd checkAndRecallKnobState;
#X text 53 18 1 check for basic knobs.txt preset file to override knob
values;
#X text 55 56 2 signal mother host patch is loaded \, casuing initial
knob values to be sent.;
#X text 54 96 3 start audio;
#N canvas 995 282 450 300 knobinit 0;
#X obj 159 44 inlet;
#X obj 62 147 s knob1;
#X obj 116 147 s knob2;
#X obj 165 147 s knob3;
#X obj 215 147 s knob4;
#X obj 268 147 s vol;
#X msg 159 103 0.5;
#X msg 201 103 0;
#X obj 313 147 s exp;
#X text 112 14 Initialize knobs values.;
#X connect 0 0 6 0;
#X connect 0 0 7 0;
#X connect 6 0 1 0;
#X connect 6 0 5 0;
#X connect 6 0 4 0;
#X connect 6 0 3 0;
#X connect 6 0 2 0;
#X connect 7 0 8 0;
#X restore 628 267 pd knobinit;
#X obj 628 219 delay 1;
#X obj 336 250 s oscOut;
#X msg 336 219 /oled/gShowInfoBar 3 1;
#N canvas 0 23 450 300 CPU-load 0;
#X floatatom 118 256 0 0 0 0 - - -;
#X obj 118 168 cputime;
#X obj 118 28 loadbang;
#X obj 118 112 metro 1000;
#X msg 118 56 1;
#X floatatom 118 84 0 0 0 0 - - -;
#X obj 118 140 t b b;
#X obj 118 228 * 0.1;
#X obj 118 197 int;
#X text 163 84 <-- on/off;
#X obj 118 279 s CPU;
#X connect 0 0 10 0;
#X connect 1 0 8 0;
#X connect 2 0 4 0;
#X connect 3 0 6 0;
#X connect 4 0 5 0;
#X connect 5 0 3 0;
#X connect 6 0 1 0;
#X connect 6 1 1 1;
#X connect 7 0 0 0;
#X connect 8 0 7 0;
#X restore 448 21 pd CPU-load;
#X obj 296 110 loadbang;
#X obj 498 252 s oscOut;
#X msg 498 222 /oled/gClear 3 1;
#X obj 296 142 t b b b b b;
#X connect 1 0 0 0;
#X connect 2 0 3 0;
#X connect 8 0 7 0;
#X connect 10 0 9 0;
#X connect 12 0 15 0;
#X connect 14 0 13 0;
#X connect 15 0 1 0;
#X connect 15 1 2 0;
#X connect 15 2 10 0;
#X connect 15 3 14 0;
#X connect 15 4 8 0;
#X restore 7 96 pd init;
#N canvas 200 58 606 300 onClose 0;
#X obj 58 114 t b b;
#X obj 58 64 r exit;
#X text 22 18 When mother is closed...;
#X obj 58 159 delay 200;
#X obj 58 239 s SidekickI;
#X msg 58 196 /sk/activate;
#X msg 188 159 \; pd dsp 0, f 10;
#X connect 0 0 3 0;
#X connect 0 1 6 0;
#X connect 1 0 0 0;
#X connect 3 0 5 0;
#X connect 5 0 4 0;
#X restore 7 256 pd onClose;
#N canvas 518 364 404 139 README 0;
#X text 12 25 LICENSE BSD;
#X text 12 45 DESCRIPTION: This patch bridges Norns hardware and Pd
;
#X text 12 65 WEBSITE https://github.com/oxbown;
#X text 12 105 VERSION 1.0.1;
#X text 12 85 AUTHOR Oxbown (based on Critter & Guitari Mother);
#X text 12 5 KEYWORDS NornsMother;
#X restore 8 49 pd README;
#X obj 103 56 tgl 8 0 empty empty NORNS_MOTHER 10 5 0 15 -1 -1 -1 0
1;
#X text 500 137 -MIDI;
#X text 104 73 -BUTTONS;
#X text 105 151 -ENCODER;
#X text 526 327 By: @oxbown;
#X obj 503 95 tgl 15 0 empty skCon SK_Connection 17 7 0 10 -262144
-1 -1 1 1;
#X text 501 77 -SYSTEM INFO;
#X text 7 360 Norns Mother Patch. This patch is the bridge between
the Norns hardware and Pd. It should not need to be edited under most
circumstances., f 98;
#X obj 208 277 tgl 15 0 key2 key2 empty 17 7 0 10 -33289 -262144 -1
0 1;
#X obj 221 298 tgl 15 0 key3 key3 empty 17 7 0 10 -262144 -1 -1 0 1
;
#X obj 234 276 tgl 15 0 key4 key4 empty 17 7 0 10 -33289 -262144 -1
0 1;
#X obj 246 298 tgl 15 0 key5 key5 empty 17 7 0 10 -262144 -1 -1 0 1
;
#X obj 271 298 tgl 15 0 key6 key6 empty 17 7 0 10 -262144 -1 -1 0 1
;
#X obj 282 277 tgl 15 0 key7 key7 empty 17 7 0 10 -33289 -262144 -1
0 1;
#X obj 296 298 tgl 15 0 key8 key8 empty 17 7 0 10 -262144 -1 -1 0 1
;
#X obj 307 277 tgl 15 0 key9 key9 empty 17 7 0 10 -33289 -262144 -1
0 1;
#X obj 321 298 tgl 15 0 key10 key10 empty 17 7 0 10 -262144 -1 -1 0
1;
#X obj 333 277 tgl 15 0 key11 key11 empty 17 7 0 10 -33289 -262144
-1 0 1;
#X obj 346 298 tgl 15 0 key12 key12 empty 17 7 0 10 -262144 -33289
-1 0 1;
#X obj 389 298 tgl 15 0 key13 key13 empty 17 7 0 10 -262144 -1 -1 0
1;
#X obj 400 277 tgl 15 0 key14 key14 empty 17 7 0 10 -33289 -262144
-1 0 1;
#X obj 413 298 tgl 15 0 key15 key15 empty 17 7 0 10 -262144 -1 -1 0
1;
#X obj 426 276 tgl 15 0 key16 key16 empty 17 7 0 10 -33289 -262144
-1 0 1;
#X obj 438 298 tgl 15 0 key17 key17 empty 17 7 0 10 -262144 -1 -1 0
1;
#X obj 463 298 tgl 15 0 key18 key18 empty 17 7 0 10 -262144 -1 -1 0
1;
#X obj 474 277 tgl 15 0 key19 key19 empty 17 7 0 10 -33289 -262144
-1 0 1;
#X obj 488 298 tgl 15 0 key20 key20 empty 17 7 0 10 -262144 -1 -1 0
1;
#X obj 499 277 tgl 15 0 key21 key21 empty 17 7 0 10 -33289 -262144
-1 0 1;
#X obj 513 298 tgl 15 0 key22 key22 empty 17 7 0 10 -262144 -1 -1 0
1;
#X obj 525 277 tgl 15 0 key23 key23 empty 17 7 0 10 -33289 -262144
-1 0 1;
#X obj 538 298 tgl 15 0 key24 key24 empty 17 7 0 10 -262144 -33289
-1 0 1;
#X obj 197 298 tgl 15 0 key1 key1 empty 17 7 0 10 -262144 -1 -1 0 1
;
#X coords 0 -1 1 1 500 300 2 100 50;
#X restore 23 23 pd motherMain;
