#N canvas 10 50 659 713 10;
#X obj 163 57 inlet;
#X obj 159 103 t b b b b b;
#X msg 457 136 0;
#X msg 207 194 rewind;
#X obj 200 290 textfile;
#X obj 197 351 f;
#X obj 199 445 sel 1 0;
#X obj 166 513 outlet;
#X obj 247 481 f \$1;
#X obj 84 388 print version;
#X obj 200 380 >= \$1;
#X msg 285 516 \; screenLine1 This Patch is not \; screenLine2 compatible
yet \; screenLine3 \; screenLine4 Oxbown is working on it!! \; screenLine5
Stay tunned for updates! \;;
#X msg 300 181 read /home/we/sidekick/patches/Organelle/mother/version
;
#X connect 0 0 1 0;
#X connect 1 0 5 0;
#X connect 1 1 4 0;
#X connect 1 2 3 0;
#X connect 1 3 12 0;
#X connect 1 4 2 0;
#X connect 2 0 5 1;
#X connect 3 0 4 0;
#X connect 4 0 5 1;
#X connect 4 0 9 0;
#X connect 5 0 10 0;
#X connect 6 0 7 0;
#X connect 6 1 8 0;
#X connect 8 0 11 0;
#X connect 10 0 6 0;
#X connect 12 0 4 0;
