#N canvas 430 255 976 532 10;
#X obj 21 76 loadbang;
#X obj 277 148 r knob1;
#X obj 277 182 vsl 15 128 0 1 0 0 empty empty empty 0 -9 0 10 -262144
-1 -1 6356 1;
#X obj 340 182 vsl 15 128 0 1 0 0 empty empty empty 0 -9 0 10 -262144
-1 -1 2284 1;
#X obj 401 182 vsl 15 128 0 1 0 0 empty empty empty 0 -9 0 10 -262144
-1 -1 5363 1;
#X obj 463 182 vsl 15 128 0 1 0 0 empty empty empty 0 -9 0 10 -262144
-1 -1 2284 1;
#X obj 340 148 r knob2;
#X obj 401 148 r knob3;
#X obj 463 148 r knob4;
#X obj 572 182 vsl 15 128 0 1 0 0 empty empty empty 0 -9 0 10 -262144
-1 -1 0 1;
#X obj 415 399 r notes;
#X obj 415 425 unpack;
#X floatatom 415 454 5 0 0 0 - - -;
#X floatatom 454 454 5 0 0 0 - - -;
#X obj 311 395 r aux;
#X obj 311 421 tgl 15 0 empty empty empty 17 7 0 10 -262144 -1 -1 0
1;
#X obj 567 397 r fs;
#X obj 567 425 tgl 15 0 empty empty empty 17 7 0 10 -262144 -1 -1 0
1;
#X obj 572 148 r exp;
#N canvas 146 185 922 513 audioIO 0;
#X obj 478 317 dac~;
#X obj 595 147 catch~ outR;
#X obj 443 147 catch~ outL;
#X obj 201 146 adc~, f 6;
#X obj 281 199 s~ inR;
#X obj 123 201 s~ inL;
#X obj 444 267 *~;
#X obj 533 269 *~;
#X obj 707 103 r vol;
#X obj 707 155 *;
#X obj 707 129 t f f;
#X obj 443 191 tb_peakcomp~ -3 8 10 100 0;
#X obj 707 181 sig~;
#X obj 443 220 clip~ -1 1;
#X obj 534 220 clip~ -1 1;
#X obj 710 290 vsl 15 128 0 1 0 0 empty empty empty 0 -9 0 10 -262144
-1 -1 9137 1;
#X obj 710 262 r vol;
#X obj 707 207 lop~ 5;
#X obj 246 289 s inLRaw;
#X obj 181 289 s inRRaw;
#X obj 443 394 s outLRaw;
#X obj 533 394 s outRRaw;
#X obj 533 353 env~;
#X obj 443 353 env~;
#X obj 246 246 env~;
#X obj 181 246 env~;
#X text 202 101 Input;
#X text 509 102 Output;
#X text 36 30 Receives and sends audio to patch. Outgoing audio is
run through a compressor to provide some headroom if things get too
loud. Also sends values to the OLED VU meter.;
#X connect 1 0 11 1;
#X connect 2 0 11 0;
#X connect 3 0 5 0;
#X connect 3 0 25 0;
#X connect 3 1 4 0;
#X connect 3 1 24 0;
#X connect 6 0 0 0;
#X connect 6 0 23 0;
#X connect 7 0 0 1;
#X connect 7 0 22 0;
#X connect 8 0 10 0;
#X connect 9 0 12 0;
#X connect 10 0 9 0;
#X connect 10 1 9 1;
#X connect 11 0 13 0;
#X connect 11 1 14 0;
#X connect 12 0 17 0;
#X connect 13 0 6 0;
#X connect 14 0 7 0;
#X connect 16 0 15 0;
#X connect 17 0 7 1;
#X connect 17 0 6 1;
#X connect 22 0 21 0;
#X connect 23 0 20 0;
#X connect 24 0 18 0;
#X connect 25 0 19 0;
#X restore 22 176 pd audioIO;
#N canvas 472 162 624 169 messageIO 0;
#N canvas 357 197 923 387 LED 0;
#X obj 132 100 % 8;
#X obj 132 34 r led;
#X msg 180 99 0;
#X obj 180 34 r quitting;
#X obj 132 163 sel 0 1 2 3 4 5 6 7, f 49;
#X msg 132 194 0;
#X msg 168 194 4;
#X msg 204 194 5;
#X msg 241 194 1;
#X msg 277 194 3;
#X msg 313 194 2;
#X msg 350 194 6;
#X msg 386 194 7;
#X obj 132 266 i;
#X obj 132 305 s ledState;
#X obj 210 305 s ledStateRaw;
#X obj 509 49 r ledState;
#X obj 509 90 sel 0 1 2 3 4 5 6 7, f 63;
#X msg 555 120 13;
#X msg 602 120 15;
#X msg 649 120 16;
#X msg 696 120 17;
#X msg 743 120 18;
#X msg 790 120 19;
#X msg 509 194 \; led-canvas color \$1;
#X msg 509 120 22;
#X msg 837 120 0;
#X text 410 247 0 - OFF 1 - RED 2 - YELLOW 3 - GREEN 4 - BLUE 5 - DARK
BLUE 6 - PURPLE 7 - WHITE;
#X connect 0 0 4 0;
#X connect 1 0 0 0;
#X connect 2 0 4 0;
#X connect 3 0 2 0;
#X connect 4 0 5 0;
#X connect 4 1 6 0;
#X connect 4 2 7 0;
#X connect 4 3 8 0;
#X connect 4 4 9 0;
#X connect 4 5 10 0;
#X connect 4 6 11 0;
#X connect 4 7 12 0;
#X connect 5 0 13 0;
#X connect 6 0 13 0;
#X connect 7 0 13 0;
#X connect 8 0 13 0;
#X connect 9 0 13 0;
#X connect 10 0 13 0;
#X connect 11 0 13 0;
#X connect 12 0 13 0;
#X connect 13 0 14 0;
#X connect 13 0 15 0;
#X connect 16 0 17 0;
#X connect 17 0 25 0;
#X connect 17 1 18 0;
#X connect 17 2 19 0;
#X connect 17 3 20 0;
#X connect 17 4 21 0;
#X connect 17 5 22 0;
#X connect 17 6 23 0;
#X connect 17 7 26 0;
#X connect 18 0 24 0;
#X connect 19 0 24 0;
#X connect 20 0 24 0;
#X connect 21 0 24 0;
#X connect 22 0 24 0;
#X connect 23 0 24 0;
#X connect 25 0 24 0;
#X connect 26 0 24 0;
#X restore 245 46 pd LED;
#N canvas 18 58 444 113 OLED 0;
#N canvas 164 172 1133 348 screenline 0;
#X obj 107 230 list append;
#X obj 107 255 list trim;
#X obj 137 78 list;
#X obj 137 37 r screenLine1;
#X obj 294 226 list append;
#X obj 294 251 list trim;
#X obj 324 74 list;
#X obj 502 255 list trim;
#X obj 532 78 list;
#X obj 502 230 list append;
#X obj 694 227 list append;
#X obj 694 252 list trim;
#X obj 724 75 list;
#X obj 911 227 list append;
#X obj 911 252 list trim;
#X obj 941 75 list;
#X obj 322 40 r screenLine2;
#X obj 530 44 r screenLine3;
#X obj 722 41 r screenLine4;
#X obj 939 41 r screenLine5;
#X obj 107 280 s nuiOut;
#X obj 294 276 s nuiOut;
#X obj 502 280 s nuiOut;
#X obj 694 277 s nuiOut;
#X obj 911 277 s nuiOut;
#X obj 137 110 t b l b;
#X obj 324 106 t b l b;
#X obj 941 107 t b l b;
#X obj 724 107 t b l b;
#X obj 532 110 t b l b;
#X msg 980 147 clearText 0 5;
#X msg 836 192 displayText 15 5 0;
#X msg 763 145 clearText 0 4;
#X msg 619 193 displayText 15 4 0;
#X msg 580 142 clearText 0 3;
#X msg 427 195 displayText 15 3 0;
#X msg 363 139 clearText 0 2;
#X msg 219 190 displayText 15 2 0;
#X msg 176 142 clearText 0 1;
#X msg 32 195 displayText 15 1 0;
#X connect 0 0 1 0;
#X connect 1 0 20 0;
#X connect 2 0 25 0;
#X connect 3 0 2 0;
#X connect 4 0 5 0;
#X connect 5 0 21 0;
#X connect 6 0 26 0;
#X connect 7 0 22 0;
#X connect 8 0 29 0;
#X connect 9 0 7 0;
#X connect 10 0 11 0;
#X connect 11 0 23 0;
#X connect 12 0 28 0;
#X connect 13 0 14 0;
#X connect 14 0 24 0;
#X connect 15 0 27 0;
#X connect 16 0 6 0;
#X connect 17 0 8 0;
#X connect 18 0 12 0;
#X connect 19 0 15 0;
#X connect 25 0 39 0;
#X connect 25 1 0 1;
#X connect 25 2 38 0;
#X connect 26 0 37 0;
#X connect 26 1 4 1;
#X connect 26 2 36 0;
#X connect 27 0 31 0;
#X connect 27 1 13 1;
#X connect 27 2 30 0;
#X connect 28 0 33 0;
#X connect 28 1 10 1;
#X connect 28 2 32 0;
#X connect 29 0 35 0;
#X connect 29 1 9 1;
#X connect 29 2 34 0;
#X connect 30 0 24 0;
#X connect 31 0 13 0;
#X connect 32 0 23 0;
#X connect 33 0 10 0;
#X connect 34 0 22 0;
#X connect 35 0 9 0;
#X connect 36 0 21 0;
#X connect 37 0 4 0;
#X connect 38 0 20 0;
#X connect 39 0 0 0;
#X restore 39 24 pd screenline;
#N canvas 453 265 639 359 infobar 0;
#N canvas 517 118 623 507 vumeters 0;
#X obj 25 8 inlet;
#X obj 209 110 r outRRaw;
#X obj 197 204 r outLRaw;
#X obj 197 314 r inRRaw;
#X obj 196 419 r inLRaw;
#X msg 118 315 5;
#X msg 121 422 5;
#X obj 81 77 t f b;
#X obj 77 175 t f b;
#X obj 81 280 t f b;
#X obj 81 387 t f b;
#N canvas 712 263 916 727 vumeterIn 0;
#X obj 303 11 inlet;
#X floatatom 303 45 5 0 0 0 - - -;
#X obj 303 194 div 2;
#X obj 303 126 i;
#X obj 303 97 spigot 0;
#X msg 400 44 15;
#X obj 400 75 i;
#X obj 348 70 >;
#X obj 303 149 max;
#X obj 303 172 -;
#X obj 187 12 inlet;
#X obj 229 12 inlet;
#X obj 40 13 inlet;
#X obj 40 47 t b f;
#X obj 39 226 spigot;
#X obj 400 12 loadbang;
#X obj 303 254 change;
#X obj 135 127 r vumeterTime;
#X obj 108 198 delay;
#X obj 50 150 spigot;
#X obj 83 126 tgl 15 0 empty empty empty 17 7 0 10 -262144 -1 -1 1
1;
#X obj 83 96 metro;
#X obj 87 12 r vumeterTime;
#X obj 135 161 - 1;
#X obj 325 306 spigot;
#X obj 358 255 == 0;
#X obj 303 282 delay 1;
#X obj 78 592 s oscOut;
#X obj 277 400 * -1;
#X obj 78 446 +;
#X obj 78 483 pack 0 0 0;
#X obj 176 481 pack 0 0 0;
#X msg 78 511 \$1 \$2 \$3;
#X msg 176 508 \$1 \$2 \$3;
#X msg 78 559 /oled/gFillArea 3 \$1 \$2 \$3 2 2;
#X msg 176 532 /oled/gFillArea 3 \$1 \$2 \$3 2 1;
#X obj 148 341 i;
#X obj 184 341 i;
#X obj 277 370 - 41;
#X obj 303 222 min 41;
#X obj 220 341 i;
#X obj 39 256 t b b b;
#X connect 0 0 1 0;
#X connect 1 0 4 0;
#X connect 1 0 7 0;
#X connect 2 0 39 0;
#X connect 3 0 8 0;
#X connect 4 0 3 0;
#X connect 5 0 6 0;
#X connect 6 0 7 1;
#X connect 6 0 8 1;
#X connect 6 0 9 1;
#X connect 7 0 4 1;
#X connect 8 0 9 0;
#X connect 9 0 2 0;
#X connect 10 0 36 1;
#X connect 11 0 37 1;
#X connect 12 0 13 0;
#X connect 13 0 21 0;
#X connect 13 0 14 0;
#X connect 13 1 14 1;
#X connect 14 0 41 0;
#X connect 15 0 5 0;
#X connect 16 0 19 0;
#X connect 16 0 26 0;
#X connect 17 0 23 0;
#X connect 18 0 14 0;
#X connect 19 0 18 0;
#X connect 20 0 19 1;
#X connect 21 0 20 0;
#X connect 22 0 21 1;
#X connect 23 0 18 1;
#X connect 24 0 14 0;
#X connect 25 0 24 1;
#X connect 26 0 24 0;
#X connect 28 0 30 2;
#X connect 29 0 30 0;
#X connect 30 0 32 0;
#X connect 31 0 33 0;
#X connect 32 0 34 0;
#X connect 33 0 35 0;
#X connect 34 0 27 0;
#X connect 35 0 27 0;
#X connect 36 0 29 0;
#X connect 36 0 31 0;
#X connect 37 0 30 1;
#X connect 37 0 31 1;
#X connect 38 0 28 0;
#X connect 39 0 16 0;
#X connect 39 0 25 0;
#X connect 39 0 40 1;
#X connect 40 0 38 0;
#X connect 40 0 31 2;
#X connect 40 0 29 1;
#X connect 41 0 30 0;
#X connect 41 0 31 0;
#X connect 41 1 36 0;
#X connect 41 1 37 0;
#X connect 41 2 40 0;
#X restore 103 352 pd vumeterIn;
#X obj 301 111 s vumeterTime;
#X obj 301 19 loadbang;
#X text 352 68 Vumeters Refresh Time (ms);
#N canvas 640 193 639 678 vumeterOut 0;
#X obj 286 28 inlet;
#X obj 194 29 inlet;
#X obj 236 29 inlet;
#X obj 46 235 t b b b b;
#X floatatom 286 52 5 0 0 0 - - -;
#X obj 286 110 div 2;
#X obj 286 82 i;
#X obj 287 184 change;
#X obj 46 30 inlet;
#X obj 46 64 t b f;
#X obj 46 198 spigot;
#X obj 98 143 spigot;
#X obj 131 119 tgl 15 0 empty empty empty 17 7 0 10 -262144 -1 -1 1
1;
#X obj 156 124 r vumeterTime;
#X obj 116 187 delay;
#X obj 131 89 metro;
#X obj 100 29 r vumeterTime;
#X obj 155 163 - 1;
#X obj 289 238 spigot;
#X obj 356 194 == 0;
#X obj 289 207 delay 1;
#X obj 98 529 s oscOut;
#X obj 271 336 * -1;
#X obj 98 383 +;
#X obj 98 420 pack 0 0 0;
#X obj 196 418 pack 0 0 0;
#X msg 98 448 \$1 \$2 \$3;
#X msg 196 445 \$1 \$2 \$3;
#X obj 168 278 i;
#X obj 204 278 i;
#X obj 243 277 i 0;
#X obj 286 145 min 41;
#X obj 271 306 - 41;
#X msg 98 496 /oled/gFillArea 3 \$1 \$2 \$3 2 2;
#X msg 196 469 /oled/gFillArea 3 \$1 \$2 \$3 2 1;
#X connect 0 0 4 0;
#X connect 1 0 28 1;
#X connect 2 0 29 1;
#X connect 3 0 25 0;
#X connect 3 0 24 0;
#X connect 3 1 28 0;
#X connect 3 1 29 0;
#X connect 3 2 30 0;
#X connect 4 0 6 0;
#X connect 5 0 31 0;
#X connect 6 0 5 0;
#X connect 7 0 11 0;
#X connect 7 0 20 0;
#X connect 8 0 9 0;
#X connect 9 0 15 0;
#X connect 9 0 10 0;
#X connect 9 1 10 1;
#X connect 10 0 3 0;
#X connect 11 0 14 0;
#X connect 12 0 11 1;
#X connect 13 0 17 0;
#X connect 14 0 10 0;
#X connect 15 0 12 0;
#X connect 16 0 15 1;
#X connect 17 0 14 1;
#X connect 18 0 10 0;
#X connect 19 0 18 1;
#X connect 20 0 18 0;
#X connect 22 0 24 2;
#X connect 23 0 24 0;
#X connect 24 0 26 0;
#X connect 25 0 27 0;
#X connect 26 0 33 0;
#X connect 27 0 34 0;
#X connect 28 0 23 0;
#X connect 28 0 25 0;
#X connect 29 0 24 1;
#X connect 29 0 25 1;
#X connect 30 0 23 1;
#X connect 30 0 25 2;
#X connect 30 0 32 0;
#X connect 31 0 7 0;
#X connect 31 0 19 0;
#X connect 31 0 30 1;
#X connect 32 0 22 0;
#X connect 33 0 21 0;
#X connect 34 0 21 0;
#X restore 125 147 pd vumeterOut;
#X msg 152 208 4;
#X msg 156 422 4;
#N canvas 245 368 639 678 vumeterOut 0;
#X obj 286 28 inlet;
#X obj 194 29 inlet;
#X obj 236 29 inlet;
#X obj 46 235 t b b b b;
#X floatatom 286 52 5 0 0 0 - - -;
#X obj 286 110 div 2;
#X obj 286 82 i;
#X obj 287 184 change;
#X obj 46 30 inlet;
#X obj 46 64 t b f;
#X obj 46 198 spigot;
#X obj 98 143 spigot;
#X obj 131 119 tgl 15 0 empty empty empty 17 7 0 10 -262144 -1 -1 1
1;
#X obj 156 124 r vumeterTime;
#X obj 128 203 delay;
#X obj 131 89 metro;
#X obj 100 29 r vumeterTime;
#X obj 155 163 - 1;
#X obj 289 238 spigot;
#X obj 350 203 == 0;
#X obj 289 207 delay 1;
#X obj 98 529 s oscOut;
#X obj 271 336 * -1;
#X obj 98 383 +;
#X obj 98 420 pack 0 0 0;
#X obj 196 418 pack 0 0 0;
#X msg 98 448 \$1 \$2 \$3;
#X msg 196 445 \$1 \$2 \$3;
#X msg 98 496 /oled/gFillArea 3 \$1 \$2 \$3 2 2;
#X msg 196 469 /oled/gFillArea 3 \$1 \$2 \$3 2 1;
#X obj 168 278 i;
#X obj 204 278 i;
#X obj 243 277 i 0;
#X obj 286 145 min 41;
#X obj 271 306 - 41;
#X connect 0 0 4 0;
#X connect 1 0 30 1;
#X connect 2 0 31 1;
#X connect 3 0 25 0;
#X connect 3 0 24 0;
#X connect 3 1 30 0;
#X connect 3 1 31 0;
#X connect 3 2 32 0;
#X connect 4 0 6 0;
#X connect 5 0 33 0;
#X connect 6 0 5 0;
#X connect 7 0 11 0;
#X connect 7 0 20 0;
#X connect 8 0 9 0;
#X connect 9 0 15 0;
#X connect 9 0 10 0;
#X connect 9 1 10 1;
#X connect 10 0 3 0;
#X connect 11 0 14 0;
#X connect 12 0 11 1;
#X connect 13 0 17 0;
#X connect 14 0 10 0;
#X connect 15 0 12 0;
#X connect 16 0 15 1;
#X connect 17 0 14 1;
#X connect 18 0 10 0;
#X connect 19 0 18 1;
#X connect 20 0 18 0;
#X connect 22 0 24 2;
#X connect 23 0 24 0;
#X connect 24 0 26 0;
#X connect 25 0 27 0;
#X connect 26 0 28 0;
#X connect 27 0 29 0;
#X connect 28 0 21 0;
#X connect 29 0 21 0;
#X connect 30 0 23 0;
#X connect 30 0 25 0;
#X connect 31 0 24 1;
#X connect 31 0 25 1;
#X connect 32 0 23 1;
#X connect 32 0 25 2;
#X connect 32 0 34 0;
#X connect 33 0 7 0;
#X connect 33 0 19 0;
#X connect 33 0 32 1;
#X connect 34 0 22 0;
#X restore 111 246 pd vumeterOut;
#N canvas 712 263 916 727 vumeterIn 0;
#X obj 303 11 inlet;
#X floatatom 303 45 5 0 0 0 - - -;
#X obj 303 194 div 2;
#X obj 303 126 i;
#X obj 303 97 spigot 0;
#X msg 400 44 15;
#X obj 400 75 i;
#X obj 348 70 >;
#X obj 303 149 max;
#X obj 303 172 -;
#X obj 187 12 inlet;
#X obj 229 12 inlet;
#X obj 40 13 inlet;
#X obj 40 47 t b f;
#X obj 39 226 spigot;
#X obj 400 12 loadbang;
#X obj 303 254 change;
#X obj 135 127 r vumeterTime;
#X obj 108 198 delay;
#X obj 50 150 spigot;
#X obj 83 126 tgl 15 0 empty empty empty 17 7 0 10 -262144 -1 -1 1
1;
#X obj 83 96 metro;
#X obj 87 12 r vumeterTime;
#X obj 135 161 - 1;
#X obj 325 306 spigot;
#X obj 358 255 == 0;
#X obj 303 282 delay 1;
#X obj 78 592 s oscOut;
#X obj 277 400 * -1;
#X obj 78 446 +;
#X obj 78 483 pack 0 0 0;
#X obj 176 481 pack 0 0 0;
#X msg 78 511 \$1 \$2 \$3;
#X msg 176 508 \$1 \$2 \$3;
#X msg 78 559 /oled/gFillArea 3 \$1 \$2 \$3 2 2;
#X msg 176 532 /oled/gFillArea 3 \$1 \$2 \$3 2 1;
#X obj 148 341 i;
#X obj 184 341 i;
#X obj 277 370 - 41;
#X obj 303 222 min 41;
#X obj 220 341 i;
#X obj 39 256 t b b b;
#X connect 0 0 1 0;
#X connect 1 0 4 0;
#X connect 1 0 7 0;
#X connect 2 0 39 0;
#X connect 3 0 8 0;
#X connect 4 0 3 0;
#X connect 5 0 6 0;
#X connect 6 0 7 1;
#X connect 6 0 8 1;
#X connect 6 0 9 1;
#X connect 7 0 4 1;
#X connect 8 0 9 0;
#X connect 9 0 2 0;
#X connect 10 0 36 1;
#X connect 11 0 37 1;
#X connect 12 0 13 0;
#X connect 13 0 21 0;
#X connect 13 0 14 0;
#X connect 13 1 14 1;
#X connect 14 0 41 0;
#X connect 15 0 5 0;
#X connect 16 0 19 0;
#X connect 16 0 26 0;
#X connect 17 0 23 0;
#X connect 18 0 14 0;
#X connect 19 0 18 0;
#X connect 20 0 19 1;
#X connect 21 0 20 0;
#X connect 22 0 21 1;
#X connect 23 0 18 1;
#X connect 24 0 14 0;
#X connect 25 0 24 1;
#X connect 26 0 24 0;
#X connect 28 0 30 2;
#X connect 29 0 30 0;
#X connect 30 0 32 0;
#X connect 31 0 33 0;
#X connect 32 0 34 0;
#X connect 33 0 35 0;
#X connect 34 0 27 0;
#X connect 35 0 27 0;
#X connect 36 0 29 0;
#X connect 36 0 31 0;
#X connect 37 0 30 1;
#X connect 37 0 31 1;
#X connect 38 0 28 0;
#X connect 39 0 16 0;
#X connect 39 0 25 0;
#X connect 39 0 40 1;
#X connect 40 0 38 0;
#X connect 40 0 31 2;
#X connect 40 0 29 1;
#X connect 41 0 30 0;
#X connect 41 0 31 0;
#X connect 41 1 36 0;
#X connect 41 1 37 0;
#X connect 41 2 40 0;
#X restore 103 460 pd vumeterIn;
#X msg 134 112 55;
#X msg 120 207 55;
#X msg 301 67 100;
#X msg 171 111 0;
#X msg 155 314 0;
#X connect 0 0 7 0;
#X connect 0 0 8 0;
#X connect 0 0 9 0;
#X connect 0 0 10 0;
#X connect 1 0 15 3;
#X connect 2 0 18 3;
#X connect 3 0 11 3;
#X connect 4 0 19 3;
#X connect 5 0 11 1;
#X connect 6 0 19 1;
#X connect 7 0 15 0;
#X connect 7 1 20 0;
#X connect 7 1 23 0;
#X connect 8 0 18 0;
#X connect 8 1 21 0;
#X connect 8 1 16 0;
#X connect 9 0 11 0;
#X connect 9 1 24 0;
#X connect 9 1 5 0;
#X connect 10 0 19 0;
#X connect 10 1 17 0;
#X connect 10 1 6 0;
#X connect 13 0 22 0;
#X connect 16 0 18 2;
#X connect 17 0 19 2;
#X connect 20 0 15 1;
#X connect 21 0 18 1;
#X connect 22 0 12 0;
#X connect 23 0 15 2;
#X connect 24 0 11 2;
#X restore 105 246 pd vumeters;
#N canvas 689 334 472 536 volIndicator 0;
#X obj 214 19 r vol;
#X obj 214 47 * 100;
#X obj 214 75 i;
#X floatatom 214 259 5 0 0 0 - - -;
#X obj 151 175 change;
#X obj 214 227 max 0;
#X obj 280 178 + 1;
#X obj 214 199 i;
#X obj 227 142 == 0;
#X obj 288 128 > 0, f 4;
#X obj 280 152 spigot;
#X obj 214 169 spigot;
#X obj 59 24 inlet;
#X obj 59 58 t b f;
#X obj 59 89 spigot;
#X obj 59 471 s oscOut;
#X msg 59 390 \$1 \$2;
#X msg 127 388 \$1 \$2;
#X obj 59 362 pack 0 0;
#X obj 127 361 pack 0 0;
#X obj 214 102 / 3.4;
#X obj 214 289 - 30;
#X obj 214 319 * -1;
#X msg 127 250 98;
#X obj 68 327 +;
#X obj 59 205 t b b;
#X msg 127 412 /oled/gFillArea 3 \$1 0 \$2 2 1;
#X msg 59 438 /oled/gFillArea 3 \$1 0 \$2 2 2;
#X connect 0 0 1 0;
#X connect 1 0 2 0;
#X connect 2 0 20 0;
#X connect 3 0 21 0;
#X connect 3 0 19 1;
#X connect 3 0 24 1;
#X connect 4 0 14 0;
#X connect 5 0 3 0;
#X connect 5 0 4 0;
#X connect 6 0 7 0;
#X connect 7 0 5 0;
#X connect 8 0 11 1;
#X connect 9 0 10 1;
#X connect 10 0 6 0;
#X connect 11 0 7 0;
#X connect 12 0 13 0;
#X connect 13 0 14 0;
#X connect 13 1 14 1;
#X connect 14 0 25 0;
#X connect 16 0 27 0;
#X connect 17 0 26 0;
#X connect 18 0 16 0;
#X connect 19 0 17 0;
#X connect 20 0 8 0;
#X connect 20 0 9 0;
#X connect 20 0 10 0;
#X connect 20 0 11 0;
#X connect 21 0 22 0;
#X connect 22 0 18 1;
#X connect 23 0 19 0;
#X connect 23 0 24 0;
#X connect 24 0 18 0;
#X connect 25 0 18 0;
#X connect 25 0 19 0;
#X connect 25 1 23 0;
#X connect 26 0 15 0;
#X connect 27 0 15 0;
#X restore 90 268 pd volIndicator;
#N canvas 637 126 580 650 midiSigInd 0;
#X obj 82 40 inlet;
#X obj 156 35 midiin;
#X obj 156 107 bng 15 250 50 0 empty empty empty 17 7 0 10 -262144
-1 -1;
#N canvas 678 357 743 412 chsel 0;
#X obj 67 61 swap;
#X obj 67 86 pack;
#X obj 44 29 inlet;
#X obj 97 28 inlet;
#X obj 67 347 outlet;
#X obj 67 169 route 1;
#X obj 120 211 spigot;
#X obj 159 167 == 0;
#X obj 120 234 unpack;
#X obj 159 28 r midiWorkCh;
#X connect 0 0 1 0;
#X connect 0 1 1 1;
#X connect 1 0 5 0;
#X connect 2 0 0 0;
#X connect 3 0 0 1;
#X connect 5 0 4 0;
#X connect 5 1 6 0;
#X connect 6 0 8 0;
#X connect 7 0 6 1;
#X connect 8 1 4 0;
#X connect 9 0 5 1;
#X connect 9 0 7 0;
#X restore 400 64 pd chsel;
#X obj 400 118 bng 15 250 50 0 empty empty empty 17 7 0 10 -262144
-1 -1;
#X obj 400 35 ctlin;
#X obj 476 35 notein;
#X obj 49 334 r MidiOut;
#X text 16 14 MIDI IN;
#X text 27 288 MIDI OUT;
#X obj 49 457 delay 1000;
#X obj 49 424 bng 15 250 50 0 empty empty empty 17 7 0 10 -262144 -1
-1;
#X msg 70 483 1;
#X msg 185 495 0, f 2;
#X obj 138 457 spigot 1;
#X obj 49 391 spigot;
#X msg 215 248 0, f 2;
#X obj 156 222 spigot 1;
#X obj 155 170 spigot;
#X obj 295 227 delay 1000;
#X msg 257 252 1, f 2;
#X msg 404 261 0;
#X obj 392 227 spigot 1;
#X obj 400 147 spigot;
#X obj 155 138 spigot;
#X msg 304 149 0, f 2;
#X obj 267 35 loadbang;
#X msg 267 72 1, f 2;
#X obj 224 408 s oscOut;
#X msg 224 339 \$1;
#X msg 263 303 0;
#X msg 305 304 1;
#X msg 224 302 2;
#X msg 224 371 /oled/gSetPixel 3 3 3 \$1;
#X msg 49 517 0;
#X msg 83 517 1;
#X obj 49 615 s oscOut;
#X msg 49 546 \$1;
#X msg 49 578 /oled/gSetPixel 3 53 3 \$1;
#N canvas 421 297 1280 956 chselesp 0;
#X obj 207 372 f;
#X obj 168 372 f;
#X obj 238 152 f;
#X obj 35 100 t b f;
#X obj 238 174 sel 1;
#X obj 237 325 t b b;
#X obj 35 26 inlet;
#X obj 199 37 inlet;
#X obj 274 39 inlet;
#X obj 189 442 outlet;
#X obj 303 199 spigot;
#X obj 342 155 == 0;
#X obj 303 246 bng 15 250 50 0 empty empty empty 17 7 0 10 -262144
-1 -1;
#X obj 342 33 r midiWorkCh;
#X obj 189 408 bng 15 250 50 0 empty empty empty 17 7 0 10 -262144
-1 -1;
#X obj 96 77 metro 500;
#X obj 57 62 bng 15 250 50 0 empty empty empty 17 7 0 10 -262144 -1
-1;
#X connect 0 0 14 0;
#X connect 1 0 14 0;
#X connect 2 0 4 0;
#X connect 3 1 1 1;
#X connect 4 0 5 0;
#X connect 4 1 10 0;
#X connect 5 0 1 0;
#X connect 5 1 0 0;
#X connect 6 0 3 0;
#X connect 6 0 16 0;
#X connect 7 0 0 1;
#X connect 8 0 2 1;
#X connect 10 0 12 0;
#X connect 11 0 10 1;
#X connect 12 0 5 0;
#X connect 13 0 4 1;
#X connect 13 0 11 0;
#X connect 14 0 9 0;
#X connect 15 0 2 0;
#X connect 16 0 15 0;
#X restore 471 64 pd chselesp;
#X connect 0 0 15 1;
#X connect 0 0 18 1;
#X connect 0 0 23 1;
#X connect 1 0 2 0;
#X connect 2 0 24 0;
#X connect 3 0 4 0;
#X connect 4 0 23 0;
#X connect 4 0 25 0;
#X connect 5 0 3 0;
#X connect 5 2 3 1;
#X connect 6 0 39 0;
#X connect 6 1 39 1;
#X connect 6 2 39 2;
#X connect 7 0 15 0;
#X connect 10 0 12 0;
#X connect 10 0 34 0;
#X connect 11 0 10 0;
#X connect 11 0 14 0;
#X connect 12 0 14 1;
#X connect 13 0 14 1;
#X connect 14 0 13 0;
#X connect 14 0 34 0;
#X connect 14 0 35 0;
#X connect 15 0 11 0;
#X connect 16 0 17 1;
#X connect 17 0 16 0;
#X connect 17 0 32 0;
#X connect 18 0 17 0;
#X connect 18 0 19 0;
#X connect 19 0 20 0;
#X connect 19 0 30 0;
#X connect 20 0 22 1;
#X connect 20 0 24 1;
#X connect 20 0 17 1;
#X connect 21 0 22 1;
#X connect 22 0 21 0;
#X connect 22 0 31 0;
#X connect 23 0 19 0;
#X connect 23 0 22 0;
#X connect 24 0 18 0;
#X connect 25 0 24 1;
#X connect 26 0 27 0;
#X connect 27 0 24 1;
#X connect 29 0 33 0;
#X connect 30 0 29 0;
#X connect 31 0 29 0;
#X connect 32 0 29 0;
#X connect 33 0 28 0;
#X connect 34 0 37 0;
#X connect 35 0 37 0;
#X connect 37 0 38 0;
#X connect 38 0 36 0;
#X connect 39 0 4 0;
#X restore 75 289 pd midiSigInd;
#X text 27 16 Uses 128px X 14px;
#N canvas 623 235 1103 533 ledIndicator 0;
#X obj 482 13 r ledState;
#X obj 482 146 sel 0 1 2 3 4 5 6 7, f 63;
#X obj 328 93 change;
#X obj 482 70 i;
#X obj 111 178 t b b b b b b b b b;
#X obj 626 283 f;
#X obj 174 286 f;
#X obj 112 26 inlet;
#X obj 112 60 t b f;
#X obj 112 91 spigot;
#X obj 406 182 delay 10;
#X obj 263 124 spigot;
#X obj 174 391 s oscOut;
#X msg 174 358 /oled/gFillArea 3 \$1 4 2 2 2;
#X msg 174 324 \$1;
#X obj 627 434 s oscOut;
#X msg 627 367 \$1;
#X msg 627 401 /oled/gFillArea 3 \$1 4 2 2 1;
#X obj 519 276 != 0;
#X obj 627 331 spigot;
#X msg 48 232 100;
#X msg 94 230 104;
#X msg 142 230 108;
#X msg 189 230 112;
#X msg 236 230 116;
#X msg 280 231 120;
#X msg 330 230 124;
#X msg 528 182 100;
#X msg 575 182 104;
#X msg 622 182 108;
#X msg 669 182 112;
#X msg 716 182 116;
#X msg 763 182 120;
#X msg 810 182 124;
#X obj 406 13 loadbang;
#X connect 0 0 3 0;
#X connect 1 0 9 0;
#X connect 1 1 27 0;
#X connect 1 2 28 0;
#X connect 1 3 29 0;
#X connect 1 4 30 0;
#X connect 1 5 31 0;
#X connect 1 6 32 0;
#X connect 1 7 33 0;
#X connect 2 0 11 0;
#X connect 3 0 1 0;
#X connect 3 0 2 0;
#X connect 3 0 18 0;
#X connect 4 2 20 0;
#X connect 4 3 21 0;
#X connect 4 4 22 0;
#X connect 4 5 23 0;
#X connect 4 6 24 0;
#X connect 4 7 25 0;
#X connect 4 8 26 0;
#X connect 5 0 19 0;
#X connect 6 0 14 0;
#X connect 7 0 8 0;
#X connect 8 0 9 0;
#X connect 8 1 9 1;
#X connect 8 1 11 1;
#X connect 9 0 4 0;
#X connect 10 0 5 0;
#X connect 11 0 10 0;
#X connect 11 0 4 0;
#X connect 13 0 12 0;
#X connect 14 0 13 0;
#X connect 16 0 17 0;
#X connect 17 0 15 0;
#X connect 18 0 19 1;
#X connect 19 0 16 0;
#X connect 20 0 6 0;
#X connect 21 0 6 0;
#X connect 22 0 6 0;
#X connect 23 0 6 0;
#X connect 24 0 6 0;
#X connect 25 0 6 0;
#X connect 26 0 6 0;
#X connect 27 0 5 1;
#X connect 28 0 5 1;
#X connect 29 0 5 1;
#X connect 30 0 5 1;
#X connect 31 0 5 1;
#X connect 32 0 5 1;
#X connect 33 0 5 1;
#X connect 34 0 10 0;
#X restore 60 309 pd ledIndicator;
#N canvas 362 236 684 372 infoGraphics 0;
#X obj 24 15 inlet;
#X obj 24 49 t b f;
#X obj 24 80 spigot;
#X obj 24 192 s oscOut;
#X msg 24 135 /oled/gPrintln 3 0 1 1 1 I;
#X msg 200 134 /oled/gPrintln 3 48 1 1 1 O;
#X connect 0 0 1 0;
#X connect 1 0 2 0;
#X connect 1 1 2 1;
#X connect 2 0 4 0;
#X connect 2 0 5 0;
#X connect 4 0 3 0;
#X connect 5 0 3 0;
#X restore 120 225 pd infoGraphics;
#N canvas 157 155 450 280 clearInfoBar 0;
#X obj 21 13 inlet;
#X obj 21 121 s oscOut;
#X obj 21 46 t b;
#X msg 21 85 /oled/gFillArea 3 0 0 128 7 0;
#X connect 0 0 2 0;
#X connect 2 0 3 0;
#X connect 3 0 1 0;
#X restore 135 204 pd clearInfoBar;
#X obj 60 169 t f f f f f b;
#X obj 75 46 r InfoBar;
#X obj 25 85 delay 1;
#X obj 60 123 f;
#X connect 7 0 4 0;
#X connect 7 1 2 0;
#X connect 7 2 1 0;
#X connect 7 3 0 0;
#X connect 7 4 5 0;
#X connect 7 5 6 0;
#X connect 8 0 9 0;
#X connect 8 0 10 1;
#X connect 9 0 10 0;
#X connect 10 0 7 0;
#X restore 165 24 pd infobar;
#N canvas 144 102 1675 1030 oscOLED 0;
#X obj 17 33 r oscIn;
#N canvas 427 185 450 280 clearDisplay 0;
#X obj 23 36 inlet;
#X msg 183 104 clear;
#X obj 183 143 s nuiOut;
#X text 75 37 Whants a bang to clear the entire display;
#X obj 23 139 spigot;
#X msg 23 181 1;
#X obj 58 110 r InfoBar;
#X obj 23 220 s InfoBar;
#X obj 23 73 t b b;
#X connect 0 0 8 0;
#X connect 1 0 2 0;
#X connect 4 0 5 0;
#X connect 5 0 7 0;
#X connect 6 0 4 1;
#X connect 8 0 4 0;
#X connect 8 1 1 0;
#X restore 17 107 pd clearDisplay;
#X text 14 8 gClear;
#X text 163 8 gSetPixel;
#X text 1081 6 gLine;
#X text 603 8 gFillArea;
#X text 1049 452 gCircle;
#X text 1203 448 gFilledCircle;
#X text 1378 9 gPrintln;
#X text 14 445 gCleanln;
#X text 868 449 gInvertArea;
#X obj 211 470 r oscIn;
#X obj 211 716 s nuiOut;
#X msg 211 678 invertText 1 0;
#X msg 226 654 invertText 2 0;
#X msg 241 631 invertText 3 0;
#X msg 258 610 invertText 4 0;
#X msg 271 588 invertText 5 0;
#X obj 25 477 r oscIn;
#X obj 26 732 s nuiOut;
#X obj 1083 31 r oscIn;
#X obj 192 118 list split 1;
#X obj 226 145 list split 1;
#N canvas 650 409 559 337 drawPixel 0;
#X obj 98 129 int;
#X obj 168 129 int;
#X obj 241 128 int;
#X msg 77 251 clearRect \$1 \$2 \$3 1 1;
#X obj 33 76 bng 15 250 50 0 empty empty empty 17 7 0 10 -262144 -1
-1;
#X obj 303 43 inlet;
#X obj 124 46 inlet;
#X obj 197 46 inlet;
#X text 282 17 intensity;
#X text 100 19 x coordenade;
#X text 186 18 y coordenade;
#X obj 33 49 inlet;
#X text 34 21 bang;
#X obj 98 165 pack 0 0 0;
#X msg 77 222 \$1 \$2 \$3;
#X obj 77 285 s nuiOut;
#X obj 77 193 list;
#X obj 33 97 t b b b;
#X connect 0 0 13 0;
#X connect 1 0 13 1;
#X connect 2 0 13 2;
#X connect 3 0 15 0;
#X connect 4 0 17 0;
#X connect 5 0 0 1;
#X connect 6 0 1 1;
#X connect 7 0 2 1;
#X connect 11 0 4 0;
#X connect 13 0 16 1;
#X connect 14 0 3 0;
#X connect 16 0 14 0;
#X connect 17 0 16 0;
#X connect 17 1 13 0;
#X connect 17 2 0 0;
#X connect 17 2 1 0;
#X connect 17 2 2 0;
#X restore 205 261 pd drawPixel;
#X obj 165 35 r oscIn;
#X msg 308 224 16;
#X obj 17 68 routeOSC /oled/gClear;
#X obj 165 63 routeOSC /oled/gSetPixel;
#X obj 165 88 t b l;
#X obj 260 172 list split 1;
#X obj 163 384 s oscOut;
#X text 162 297 gSetPixel Example;
#X obj 15 187 s oscOut;
#X text 14 131 gClear Example;
#X obj 378 117 list split 1;
#X obj 412 144 list split 1;
#X obj 351 34 r oscIn;
#X msg 578 277 16;
#X obj 548 249 sel 0 1;
#X obj 351 87 t b l;
#X obj 514 226 list split 1;
#X text 352 8 gBox;
#N canvas 594 266 939 472 drawBox 0;
#X obj 80 94 bng 15 250 50 0 empty empty empty 17 7 0 10 -262144 -1
-1;
#X obj 430 40 inlet;
#X obj 122 40 inlet;
#X obj 195 40 inlet;
#X text 409 15 intensity;
#X obj 39 37 inlet;
#X text 37 14 bang;
#X obj 269 40 inlet;
#X obj 342 40 inlet;
#X msg 79 333 clearRect \$1 \$2 \$3 \$4 1;
#X obj 125 219 pack 0 0 0 0 0 0 0, f 46;
#X msg 125 246 \$1 \$2 \$3 \$4 \$5 \$6 \$7;
#X obj 79 277 list;
#X obj 79 398 s nuiOut;
#X msg 235 333 clearRect \$1 \$2 \$7 \$4 1;
#X msg 554 331 clearRect \$1 \$2 \$3 1 \$5;
#X obj 81 119 t b b;
#X text 110 17 x coord.;
#X text 183 17 y coord.;
#X text 256 16 x length;
#X text 329 15 y length.;
#X obj 352 157 +;
#X obj 398 158 +;
#X msg 392 332 clearRect \$1 \$6 \$3 1 \$5;
#X obj 398 187 - 1;
#X connect 0 0 16 0;
#X connect 1 0 10 0;
#X connect 2 0 10 1;
#X connect 2 0 21 0;
#X connect 3 0 10 2;
#X connect 3 0 22 0;
#X connect 5 0 0 0;
#X connect 7 0 10 3;
#X connect 7 0 21 1;
#X connect 8 0 10 4;
#X connect 8 0 22 1;
#X connect 9 0 13 0;
#X connect 10 0 11 0;
#X connect 11 0 12 1;
#X connect 12 0 9 0;
#X connect 12 0 14 0;
#X connect 12 0 23 0;
#X connect 12 0 15 0;
#X connect 14 0 13 0;
#X connect 15 0 13 0;
#X connect 16 0 12 0;
#X connect 16 1 10 0;
#X connect 16 1 21 0;
#X connect 16 1 22 0;
#X connect 21 0 10 5;
#X connect 22 0 24 0;
#X connect 23 0 13 0;
#X connect 24 0 10 6;
#X restore 387 314 pd drawBox;
#X f 26;
#X obj 446 172 list split 1;
#X obj 480 199 list split 1;
#X obj 366 404 s oscOut;
#X text 366 338 gBox Example;
#X obj 351 62 routeOSC /oled/gBox;
#X msg 366 364 /oled/gBox 0 20 30 30 40 1;
#X obj 635 119 list split 1;
#X obj 669 146 list split 1;
#X obj 608 36 r oscIn;
#X msg 835 279 16;
#X obj 608 89 t b l;
#X obj 771 227 list split 1;
#X obj 703 174 list split 1;
#X obj 737 201 list split 1;
#X obj 608 64 routeOSC /oled/gFillArea;
#X obj 629 405 s oscOut;
#X text 629 335 gFillArea Example;
#X obj 15 815 s oscOut;
#X text 15 759 gCleanln Example;
#X obj 212 815 s oscOut;
#X text 212 762 gInvertLine Example;
#X obj 211 502 routeOSC /oled/gInvertLine;
#X text 198 446 gInvertLine;
#X obj 25 541 list split 1;
#X obj 211 529 list split 1;
#X msg 163 323 /oled/gSetPixel 0 30 40 1;
#X obj 396 469 r oscIn;
#X obj 396 715 s nuiOut;
#X msg 396 677 invertText 1 0;
#X msg 411 653 invertText 2 0;
#X msg 426 630 invertText 3 0;
#X msg 443 609 invertText 4 0;
#X msg 456 587 invertText 5 0;
#X obj 397 815 s oscOut;
#X text 397 761 gInvertLine Example;
#X obj 396 501 routeOSC /oled/invertline;
#X text 383 445 invertline;
#X text 594 442 line;
#X obj 589 864 s oscOut;
#X text 589 814 line Example;
#X obj 592 468 r oscIn;
#X obj 592 719 list append;
#X obj 592 748 list trim;
#X obj 592 789 s nuiOut;
#X obj 592 527 list split 1;
#X obj 592 499 routeOSC /oled/line;
#X msg 592 590 1;
#X msg 622 590 2;
#X msg 652 590 3;
#X msg 682 590 4;
#X msg 592 625 \$1;
#X msg 592 689 displayText 15 \$1 0;
#X msg 723 687 clearText 0 \$1;
#X obj 592 656 t f f;
#X obj 592 561 sel /1 /2 /3 /4 /5;
#X msg 718 590 5;
#X obj 26 575 sel 0 1 2 3 4;
#X obj 211 559 sel 0 1 2 3 4;
#X obj 396 558 sel 0 1 2 3 4;
#X msg 589 836 /oled/line/4 test;
#X obj 25 509 routeOSC /oled/gCleanln;
#X msg 397 785 /oled/invertline 3;
#X msg 15 785 /oled/gCleanln 0 3;
#X msg 86 604 clearText 0 5;
#X msg 73 626 clearText 0 4;
#X msg 56 648 clearText 0 3;
#X msg 41 670 clearText 0 2;
#X msg 26 694 clearText 0 1;
#X obj 1093 396 s oscOut;
#X text 1086 342 gLine Example;
#X obj 1110 121 list split 1;
#X obj 1144 148 list split 1;
#X msg 1310 281 16;
#X obj 1280 253 sel 0 1;
#X obj 1083 91 t b l;
#X obj 1246 227 list split 1;
#X obj 1178 176 list split 1;
#X obj 1212 203 list split 1;
#X obj 1083 66 routeOSC /oled/gLine;
#X msg 1093 366 /oled/gLine 0 20 30 20 40 1;
#X text 887 8 gShowInfoBar;
#X obj 888 250 s oscOut;
#X obj 887 35 r oscIn;
#X obj 887 95 list split 1;
#X obj 887 67 routeOSC /oled/gShowInfoBar;
#X text 876 171 gShowInfoBar Example (OFF-ON);
#X msg 642 376 /oled/gFillArea 0 64 1 128 64 1;
#X msg 15 157 /oled/gClear 3 1;
#X obj 15 240 r oscIn;
#X obj 13 394 s oscOut;
#X text 12 338 gClear Example;
#X text 12 215 gFlip;
#X obj 15 275 routeOSC /oled/gFlip;
#X msg 13 364 /oled/gFlip 3;
#X msg 173 347 /oled/gSetPixel 0 30 40 0;
#X msg 376 383 /oled/gBox 0 20 30 30 40 0;
#X msg 629 354 /oled/gFillArea 0 128 64 64 1 0;
#X msg 805 279 0;
#X msg 1280 281 0;
#X msg 278 224 0;
#X msg 548 277 0;
#N canvas 636 178 830 540 drawLine 0;
#X obj 626 45 inlet;
#X obj 190 48 inlet;
#X obj 263 48 inlet;
#X text 605 19 intensity;
#X obj 33 49 inlet;
#X text 34 21 bang;
#X obj 426 46 inlet;
#X obj 522 44 inlet;
#X text 251 22 y1 coord.;
#X text 509 19 y2 coord.;
#X text 178 22 x1 coord.;
#X text 413 22 x2 coord.;
#X obj 93 194 int;
#X obj 33 77 bng 15 250 50 0 empty empty empty 17 7 0 10 -262144 -1
-1;
#X obj 52 393 s nuiOut;
#X obj 52 304 list;
#X obj 379 215 -;
#X obj 335 214 -;
#X obj 93 272 pack 0 0 0 0 0;
#X msg 52 333 \$1 \$2 \$3 \$4 \$5;
#X msg 52 362 clearRect \$1 \$2 \$3 \$4 \$5;
#X obj 335 239 + 1;
#X obj 379 244 + 1;
#X obj 33 100 t b b b b;
#X obj 190 147 min;
#X obj 257 146 min;
#X obj 415 135 max;
#X obj 477 133 max;
#X connect 0 0 12 1;
#X connect 1 0 24 0;
#X connect 1 0 26 0;
#X connect 2 0 25 0;
#X connect 2 0 27 0;
#X connect 4 0 13 0;
#X connect 6 0 24 1;
#X connect 6 0 26 1;
#X connect 7 0 25 1;
#X connect 7 0 27 1;
#X connect 12 0 18 0;
#X connect 13 0 23 0;
#X connect 15 0 19 0;
#X connect 16 0 22 0;
#X connect 17 0 21 0;
#X connect 18 0 15 1;
#X connect 19 0 20 0;
#X connect 20 0 14 0;
#X connect 21 0 18 3;
#X connect 22 0 18 4;
#X connect 23 0 15 0;
#X connect 23 1 18 0;
#X connect 23 2 12 0;
#X connect 23 2 17 0;
#X connect 23 2 16 0;
#X connect 23 3 24 0;
#X connect 23 3 25 0;
#X connect 23 3 26 0;
#X connect 23 3 27 0;
#X connect 24 0 18 1;
#X connect 24 0 17 1;
#X connect 25 0 18 2;
#X connect 25 0 16 1;
#X connect 26 0 17 0;
#X connect 27 0 16 0;
#X restore 1083 312 pd drawLine;
#X f 31;
#X obj 1407 116 list split 1;
#X obj 1441 143 list split 1;
#X obj 1380 33 r oscIn;
#X msg 1546 283 16;
#X obj 1516 257 sel 0 1;
#X obj 1380 86 t b l;
#X obj 1543 224 list split 1;
#X obj 1475 171 list split 1;
#X obj 1509 198 list split 1;
#X msg 1516 283 0;
#X obj 1380 61 routeOSC /oled/gPrintln;
#N canvas 893 288 568 434 drawText 0;
#X obj 301 42 inlet;
#X obj 106 45 inlet;
#X obj 170 45 inlet;
#X text 294 16 intensity;
#X obj 33 49 inlet;
#X text 34 21 bang;
#X obj 236 42 inlet;
#X obj 375 41 inlet;
#X obj 33 77 bng 15 250 50 0 empty empty empty 17 7 0 10 -262144 -1
-1;
#X obj 102 339 s nuiOut;
#X obj 102 185 list;
#X obj 33 100 t b b;
#X text 94 19 x coord.;
#X text 158 19 y coord.;
#X text 223 18 Font Size;
#X text 362 16 Text to Print;
#X obj 102 277 list append;
#X obj 102 306 list trim;
#X msg 102 247 drawText \$1 \$2 \$3;
#X obj 143 153 pack 0 0 0 0;
#X msg 102 214 \$1 \$2 \$3 \$4;
#X obj 170 90 + 5;
#X connect 0 0 19 0;
#X connect 1 0 19 1;
#X connect 2 0 21 0;
#X connect 4 0 8 0;
#X connect 6 0 19 3;
#X connect 7 0 16 1;
#X connect 8 0 11 0;
#X connect 10 0 20 0;
#X connect 11 0 10 0;
#X connect 11 1 19 0;
#X connect 16 0 17 0;
#X connect 17 0 9 0;
#X connect 18 0 16 0;
#X connect 19 0 10 1;
#X connect 20 0 18 0;
#X connect 21 0 19 2;
#X restore 1390 320 pd drawText;
#X f 31;
#X obj 1395 399 s oscOut;
#X text 1388 345 gPrintln Example;
#X msg 1395 369 /oled/gPrintln 3 20 30 1 1 Test;
#X obj 294 195 sel 0 1 2;
#X obj 805 251 sel 0 1 2;
#X msg 867 279 1;
#X msg 338 224 1;
#N canvas 893 288 462 311 drawArea 0;
#X obj 370 41 inlet;
#X obj 106 45 inlet;
#X obj 170 45 inlet;
#X text 363 15 intensity;
#X obj 33 49 inlet;
#X text 34 21 bang;
#X obj 236 42 inlet;
#X obj 302 40 inlet;
#X obj 33 77 bng 15 250 50 0 empty empty empty 17 7 0 10 -262144 -1
-1;
#X obj 102 274 s nuiOut;
#X obj 102 185 list;
#X obj 143 153 pack 0 0 0 0 0;
#X msg 102 214 \$1 \$2 \$3 \$4 \$5;
#X msg 102 243 clearRect \$1 \$2 \$3 \$4 \$5;
#X obj 33 100 t b b;
#X text 223 18 x length;
#X text 289 15 y length;
#X text 94 19 x coord.;
#X text 158 19 y coord.;
#X connect 0 0 11 0;
#X connect 1 0 11 1;
#X connect 2 0 11 2;
#X connect 4 0 8 0;
#X connect 6 0 11 3;
#X connect 7 0 11 4;
#X connect 8 0 14 0;
#X connect 10 0 12 0;
#X connect 11 0 10 1;
#X connect 12 0 13 0;
#X connect 13 0 9 0;
#X connect 14 0 10 0;
#X connect 14 1 11 0;
#X restore 622 310 pd drawArea;
#X f 31;
#X msg 212 785 /oled/gInvertLine 3 3;
#X msg 888 197 /oled/gShowInfoBar 3 0;
#X msg 901 220 /oled/gShowInfoBar 3 1;
#X obj 921 130 s InfoBar;
#X connect 0 0 26 0;
#X connect 11 0 64 0;
#X connect 13 0 12 0;
#X connect 14 0 12 0;
#X connect 15 0 12 0;
#X connect 16 0 12 0;
#X connect 17 0 12 0;
#X connect 18 0 103 0;
#X connect 20 0 121 0;
#X connect 21 1 22 0;
#X connect 22 0 23 1;
#X connect 22 1 29 0;
#X connect 24 0 27 0;
#X connect 25 0 23 3;
#X connect 26 0 1 0;
#X connect 27 0 28 0;
#X connect 28 0 23 0;
#X connect 28 1 21 0;
#X connect 29 0 23 2;
#X connect 29 1 160 0;
#X connect 34 1 35 0;
#X connect 35 0 42 1;
#X connect 35 1 43 0;
#X connect 36 0 47 0;
#X connect 37 0 42 5;
#X connect 38 0 143 0;
#X connect 38 1 37 0;
#X connect 39 0 42 0;
#X connect 39 1 34 0;
#X connect 40 0 42 4;
#X connect 40 1 38 0;
#X connect 43 0 42 2;
#X connect 43 1 44 0;
#X connect 44 0 42 3;
#X connect 44 1 40 0;
#X connect 47 0 39 0;
#X connect 48 0 45 0;
#X connect 49 1 50 0;
#X connect 50 0 164 1;
#X connect 50 1 55 0;
#X connect 51 0 57 0;
#X connect 52 0 164 5;
#X connect 53 0 164 0;
#X connect 53 1 49 0;
#X connect 54 0 164 4;
#X connect 54 1 161 0;
#X connect 55 0 164 2;
#X connect 55 1 56 0;
#X connect 56 0 164 3;
#X connect 56 1 54 0;
#X connect 57 0 53 0;
#X connect 64 0 67 0;
#X connect 66 1 99 0;
#X connect 67 1 100 0;
#X connect 68 0 30 0;
#X connect 69 0 78 0;
#X connect 71 0 70 0;
#X connect 72 0 70 0;
#X connect 73 0 70 0;
#X connect 74 0 70 0;
#X connect 75 0 70 0;
#X connect 78 0 101 0;
#X connect 83 0 88 0;
#X connect 84 0 85 0;
#X connect 85 0 86 0;
#X connect 87 0 97 0;
#X connect 87 1 84 1;
#X connect 88 0 87 0;
#X connect 89 0 93 0;
#X connect 90 0 93 0;
#X connect 91 0 93 0;
#X connect 92 0 93 0;
#X connect 93 0 96 0;
#X connect 94 0 84 0;
#X connect 95 0 86 0;
#X connect 96 0 94 0;
#X connect 96 1 95 0;
#X connect 97 0 89 0;
#X connect 97 1 90 0;
#X connect 97 2 91 0;
#X connect 97 3 92 0;
#X connect 97 4 98 0;
#X connect 98 0 93 0;
#X connect 99 0 110 0;
#X connect 99 1 109 0;
#X connect 99 2 108 0;
#X connect 99 3 107 0;
#X connect 99 4 106 0;
#X connect 100 0 13 0;
#X connect 100 1 14 0;
#X connect 100 2 15 0;
#X connect 100 3 16 0;
#X connect 100 4 17 0;
#X connect 101 0 71 0;
#X connect 101 1 72 0;
#X connect 101 2 73 0;
#X connect 101 3 74 0;
#X connect 101 4 75 0;
#X connect 102 0 81 0;
#X connect 103 0 66 0;
#X connect 104 0 76 0;
#X connect 105 0 60 0;
#X connect 106 0 19 0;
#X connect 107 0 19 0;
#X connect 108 0 19 0;
#X connect 109 0 19 0;
#X connect 110 0 19 0;
#X connect 113 1 114 0;
#X connect 114 0 144 1;
#X connect 114 1 119 0;
#X connect 115 0 144 5;
#X connect 116 0 141 0;
#X connect 116 1 115 0;
#X connect 117 0 144 0;
#X connect 117 1 113 0;
#X connect 118 0 144 4;
#X connect 118 1 116 0;
#X connect 119 0 144 2;
#X connect 119 1 120 0;
#X connect 120 0 144 3;
#X connect 120 1 118 0;
#X connect 121 0 117 0;
#X connect 122 0 111 0;
#X connect 125 0 127 0;
#X connect 126 1 168 0;
#X connect 127 0 126 0;
#X connect 129 0 58 0;
#X connect 130 0 32 0;
#X connect 131 0 135 0;
#X connect 136 0 132 0;
#X connect 137 0 30 0;
#X connect 138 0 45 0;
#X connect 139 0 58 0;
#X connect 140 0 164 5;
#X connect 141 0 144 5;
#X connect 142 0 23 3;
#X connect 143 0 42 5;
#X connect 145 1 146 0;
#X connect 146 0 156 1;
#X connect 146 1 152 0;
#X connect 147 0 155 0;
#X connect 148 0 156 4;
#X connect 149 0 154 0;
#X connect 149 1 148 0;
#X connect 150 0 156 0;
#X connect 150 1 145 0;
#X connect 151 0 149 0;
#X connect 151 1 156 5;
#X connect 152 0 156 2;
#X connect 152 1 153 0;
#X connect 153 0 156 3;
#X connect 153 1 151 0;
#X connect 154 0 156 4;
#X connect 155 0 150 0;
#X connect 159 0 157 0;
#X connect 160 0 142 0;
#X connect 160 1 25 0;
#X connect 160 2 163 0;
#X connect 161 0 140 0;
#X connect 161 1 52 0;
#X connect 161 2 162 0;
#X connect 162 0 164 5;
#X connect 163 0 23 3;
#X connect 165 0 62 0;
#X connect 166 0 124 0;
#X connect 167 0 124 0;
#X restore 273 24 pd oscOLED;
#X restore 245 75 pd OLED;
#N canvas 603 354 516 343 keys 0;
#X obj 119 56 routeOSC /key;
#X obj 206 114 unpack;
#X floatatom 206 144 5 0 0 0 - - -;
#X floatatom 253 146 5 0 0 0 - - -;
#X obj 206 212 pack;
#X obj 206 247 s notes;
#X obj 253 173 / 1;
#X obj 206 171 + 59;
#X obj 119 112 sel 100;
#X msg 119 145 1;
#X msg 165 145 0;
#X obj 119 178 s aux;
#X obj 119 83 route 0;
#X obj 119 26 r oscIn;
#X obj 284 249 s notesRaw;
#X obj 39 181 s auxRaw;
#X connect 0 0 12 0;
#X connect 1 0 2 0;
#X connect 1 1 3 0;
#X connect 2 0 7 0;
#X connect 3 0 6 0;
#X connect 4 0 5 0;
#X connect 4 0 14 0;
#X connect 6 0 4 1;
#X connect 7 0 4 0;
#X connect 8 0 9 0;
#X connect 8 1 10 0;
#X connect 9 0 11 0;
#X connect 9 0 15 0;
#X connect 10 0 11 0;
#X connect 10 0 15 0;
#X connect 12 0 8 0;
#X connect 12 1 1 0;
#X connect 13 0 0 0;
#X restore 468 39 pd keys;
#N canvas 1 23 1279 755 analog 0;
#X obj 860 455 s vol;
#X obj 130 506 s knob1;
#X obj 140 253 s knob1Raw;
#X obj 130 441 change -1;
#X obj 860 368 change -1;
#X obj 296 265 s knob2Raw;
#X obj 285 499 s knob2;
#X obj 285 446 change -1;
#X obj 448 452 change -1;
#X obj 465 264 s knob3Raw;
#X obj 448 504 s knob3;
#X obj 608 456 change -1;
#X obj 621 257 s knob4Raw;
#X obj 608 508 s knob4;
#X obj 130 472 / 1023;
#X obj 285 474 / 1023;
#X obj 448 480 / 1023;
#X obj 608 484 / 1023;
#X obj 860 401 / 1023;
#X text 18 616 knobs pass thru override2 if their value is coming from
somewhere else (knobs.txt preset file or MIDI CC);
#X obj 269 51 r nui_encoder;
#X obj 269 74 route 0 1 2 3;
#X obj 130 224 nbx 5 14 -1e+37 1e+37 0 0 empty empty empty 0 -8 0 10
-262144 -1 -1 512 256;
#X obj 285 229 nbx 5 14 -1e+37 1e+37 0 0 empty empty empty 0 -8 0 10
-262144 -1 -1 184 256;
#X obj 448 232 nbx 5 14 -1e+37 1e+37 0 0 empty empty empty 0 -8 0 10
-262144 -1 -1 432 256;
#X obj 608 232 nbx 5 14 -1e+37 1e+37 0 0 empty empty empty 0 -8 0 10
-262144 -1 -1 184 256;
#X obj 860 311 nbx 5 14 -1e+37 1e+37 0 0 empty empty empty 0 -8 0 10
-262144 -1 -1 736 256;
#X obj 894 154 spigot;
#X obj 963 97 tgl 15 0 empty empty empty 17 7 0 10 -262144 -1 -1 0
1;
#X obj 963 63 r funcBut;
#X obj 963 117 == 0;
#X obj 642 70 spigot 1;
#X obj 119 672 r nui_button;
#X obj 119 695 route 0 1 2;
#X obj 80 711 tgl 15 0 empty empty empty 17 7 0 10 -262144 -1 -1 0
1;
#X obj 140 821 tgl 15 0 empty empty empty 17 7 0 10 -262144 -1 -1 0
1;
#X obj 352 781 tgl 15 0 empty empty empty 17 7 0 10 -262144 -1 -1 0
1;
#X obj 24 888 s aux;
#X obj 140 887 s fs;
#X obj 353 889 s funcBut;
#X obj 51 817 spigot 1;
#X obj 96 791 == 0;
#X obj 222 887 s encbut;
#X obj 222 859 tgl 15 0 empty empty empty 17 7 0 10 -262144 -1 -1 0
1;
#X obj 51 858 tgl 15 0 empty empty empty 17 7 0 10 -262144 -1 -1 0
1;
#X obj 222 784 spigot 0;
#X obj 51 758 == 0;
#X obj 163 121 spigot 1;
#X obj 100 61 tgl 15 0 empty empty empty 17 7 0 10 -262144 -1 -1 0
1;
#X obj 100 27 r funcBut;
#X obj 100 81 == 0;
#X obj 23 126 spigot;
#N canvas 757 277 450 300 encHandler 0;
#X obj 114 23 inlet;
#X obj 114 149 outlet;
#X obj 114 71 sel -1 1;
#X msg 114 107 0;
#X msg 150 107 1;
#X connect 0 0 2 0;
#X connect 2 0 3 0;
#X connect 2 1 4 0;
#X connect 3 0 1 0;
#X connect 4 0 1 0;
#X restore 23 212 pd encHandler;
#N canvas 523 356 450 300 speedlim 0;
#X obj 139 116 spigot 1;
#X msg 188 90 0;
#X msg 234 91 1;
#X obj 135 59 t b f;
#X obj 131 147 t b f;
#X obj 130 25 inlet;
#X obj 150 210 outlet;
#X obj 184 147 delay 100;
#X connect 0 0 4 0;
#X connect 1 0 0 1;
#X connect 2 0 0 1;
#X connect 3 0 1 0;
#X connect 3 1 0 0;
#X connect 4 0 7 0;
#X connect 4 1 6 0;
#X connect 5 0 3 0;
#X connect 7 0 2 0;
#X restore 23 297 pd speedlim;
#X obj 23 446 s enc;
#X obj 250 737 t f f f f;
#X obj 1053 388 bng 15 250 50 0 empty empty empty 17 7 0 10 -262144
-1 -1;
#X obj 1163 219 t b f;
#X obj 1108 219 t b f;
#X obj 1051 221 t b f;
#X obj 1051 277 spigot 1;
#X obj 1053 318 spigot 1;
#X obj 1052 352 spigot 1;
#X obj 1051 31 r nui_button;
#X obj 1051 170 route 0 1 2;
#X obj 1052 586 s Save;
#X obj 482 122 spigot 1;
#X obj 1001 116 == 1;
#X obj 588 99 spigot 0;
#X obj 318 122 spigot 1;
#X obj 1146 30 loadbang;
#X obj 1146 64 bng 15 250 50 0 empty empty empty 17 7 0 10 -262144
-1 -1;
#X obj 1146 97 t b b b;
#X msg 1164 130 1;
#X msg 1130 130 0;
#X msg 1199 132 2;
#X obj 1052 549 bng 15 250 50 0 empty empty empty 17 7 0 10 -262144
-1 -1;
#X obj 1052 501 spigot 1;
#X msg 1084 472 0;
#X obj 1053 415 t b b b;
#X msg 1129 471 1;
#X obj 1129 436 delay 2000;
#X obj 267 810 sel 0 1;
#X msg 267 839 0;
#X obj 198 145 r knob1;
#X obj 98 145 r knob1Override;
#N canvas 1241 287 516 371 encscale2 0;
#X obj 161 82 t b f;
#X obj 161 104 f 0;
#X obj 161 131 +;
#X obj 161 160 clip -64 64;
#X obj 161 186 + 64;
#X obj 161 212 * 8;
#X obj 161 235 - 0;
#X obj 162 33 inlet;
#X obj 161 324 outlet;
#X floatatom 111 82 5 0 0 0 - - -;
#X floatatom 105 204 5 0 0 0 - - -;
#X obj 100 126 f;
#X obj 325 141 / 8;
#X obj 325 168 - 64;
#X obj 325 205 i;
#X obj 67 35 inlet;
#X obj 325 28 inlet;
#X text 6 35 Override;
#X text 372 30 knob input;
#X floatatom 359 252 5 0 0 0 - - -;
#X obj 52 95 t b b;
#X obj 325 111 * 1024;
#X connect 0 0 1 0;
#X connect 0 1 2 1;
#X connect 1 0 2 0;
#X connect 2 0 3 0;
#X connect 3 0 4 0;
#X connect 3 0 1 1;
#X connect 3 0 10 0;
#X connect 4 0 5 0;
#X connect 5 0 6 0;
#X connect 6 0 8 0;
#X connect 7 0 0 0;
#X connect 7 0 9 0;
#X connect 11 0 3 0;
#X connect 12 0 13 0;
#X connect 13 0 14 1;
#X connect 14 0 11 1;
#X connect 14 0 19 0;
#X connect 15 0 20 0;
#X connect 16 0 21 0;
#X connect 20 0 11 0;
#X connect 20 1 14 0;
#X connect 21 0 12 0;
#X restore 284 184 pd encscale2;
#X obj 254 148 r knob2Override;
#X obj 353 147 r knob2;
#X obj 418 149 r knob3Override;
#X obj 517 149 r knob3;
#X obj 577 149 r knob4Override;
#X obj 677 150 r knob4;
#X obj 929 213 r vol;
#X obj 830 214 r volOverride;
#N canvas 1241 287 516 371 encscale2 0;
#X obj 161 82 t b f;
#X obj 161 104 f 0;
#X obj 161 131 +;
#X obj 161 160 clip -64 64;
#X obj 161 186 + 64;
#X obj 161 212 * 8;
#X obj 161 235 - 0;
#X obj 162 33 inlet;
#X obj 161 324 outlet;
#X floatatom 111 82 5 0 0 0 - - -;
#X floatatom 105 204 5 0 0 0 - - -;
#X obj 100 126 f;
#X obj 325 141 / 8;
#X obj 325 168 - 64;
#X obj 325 205 i;
#X obj 67 35 inlet;
#X obj 325 28 inlet;
#X text 6 35 Override;
#X text 372 30 knob input;
#X floatatom 359 252 5 0 0 0 - - -;
#X obj 52 95 t b b;
#X obj 325 111 * 1024;
#X connect 0 0 1 0;
#X connect 0 1 2 1;
#X connect 1 0 2 0;
#X connect 2 0 3 0;
#X connect 3 0 4 0;
#X connect 3 0 1 1;
#X connect 3 0 10 0;
#X connect 4 0 5 0;
#X connect 5 0 6 0;
#X connect 6 0 8 0;
#X connect 7 0 0 0;
#X connect 7 0 9 0;
#X connect 11 0 3 0;
#X connect 12 0 13 0;
#X connect 13 0 14 1;
#X connect 14 0 11 1;
#X connect 14 0 19 0;
#X connect 15 0 20 0;
#X connect 16 0 21 0;
#X connect 20 0 11 0;
#X connect 20 1 14 0;
#X connect 21 0 12 0;
#X restore 130 183 pd encscale2;
#N canvas 1241 287 516 371 encscale2 0;
#X obj 161 82 t b f;
#X obj 161 104 f 0;
#X obj 161 131 +;
#X obj 161 160 clip -64 64;
#X obj 161 186 + 64;
#X obj 161 212 * 8;
#X obj 161 235 - 0;
#X obj 162 33 inlet;
#X obj 161 324 outlet;
#X floatatom 111 82 5 0 0 0 - - -;
#X floatatom 105 204 5 0 0 0 - - -;
#X obj 100 126 f;
#X obj 325 141 / 8;
#X obj 325 168 - 64;
#X obj 325 205 i;
#X obj 67 35 inlet;
#X obj 325 28 inlet;
#X text 6 35 Override;
#X text 372 30 knob input;
#X floatatom 359 252 5 0 0 0 - - -;
#X obj 52 95 t b b;
#X obj 325 111 * 1024;
#X connect 0 0 1 0;
#X connect 0 1 2 1;
#X connect 1 0 2 0;
#X connect 2 0 3 0;
#X connect 3 0 4 0;
#X connect 3 0 1 1;
#X connect 3 0 10 0;
#X connect 4 0 5 0;
#X connect 5 0 6 0;
#X connect 6 0 8 0;
#X connect 7 0 0 0;
#X connect 7 0 9 0;
#X connect 11 0 3 0;
#X connect 12 0 13 0;
#X connect 13 0 14 1;
#X connect 14 0 11 1;
#X connect 14 0 19 0;
#X connect 15 0 20 0;
#X connect 16 0 21 0;
#X connect 20 0 11 0;
#X connect 20 1 14 0;
#X connect 21 0 12 0;
#X restore 448 189 pd encscale2;
#N canvas 1241 287 516 371 encscale2 0;
#X obj 161 82 t b f;
#X obj 161 104 f 0;
#X obj 161 131 +;
#X obj 161 160 clip -64 64;
#X obj 161 186 + 64;
#X obj 161 212 * 8;
#X obj 161 235 - 0;
#X obj 162 33 inlet;
#X obj 161 324 outlet;
#X floatatom 111 82 5 0 0 0 - - -;
#X floatatom 105 204 5 0 0 0 - - -;
#X obj 100 126 f;
#X obj 325 141 / 8;
#X obj 325 168 - 64;
#X obj 325 205 i;
#X obj 67 35 inlet;
#X obj 325 28 inlet;
#X text 6 35 Override;
#X text 372 30 knob input;
#X floatatom 359 252 5 0 0 0 - - -;
#X obj 52 95 t b b;
#X obj 325 111 * 1024;
#X connect 0 0 1 0;
#X connect 0 1 2 1;
#X connect 1 0 2 0;
#X connect 2 0 3 0;
#X connect 3 0 4 0;
#X connect 3 0 1 1;
#X connect 3 0 10 0;
#X connect 4 0 5 0;
#X connect 5 0 6 0;
#X connect 6 0 8 0;
#X connect 7 0 0 0;
#X connect 7 0 9 0;
#X connect 11 0 3 0;
#X connect 12 0 13 0;
#X connect 13 0 14 1;
#X connect 14 0 11 1;
#X connect 14 0 19 0;
#X connect 15 0 20 0;
#X connect 16 0 21 0;
#X connect 20 0 11 0;
#X connect 20 1 14 0;
#X connect 21 0 12 0;
#X restore 608 191 pd encscale2;
#N canvas 1241 287 516 371 encscale2 0;
#X obj 161 82 t b f;
#X obj 161 104 f 0;
#X obj 161 131 +;
#X obj 161 160 clip -64 64;
#X obj 161 186 + 64;
#X obj 161 212 * 8;
#X obj 161 235 - 0;
#X obj 162 33 inlet;
#X obj 161 324 outlet;
#X floatatom 111 82 5 0 0 0 - - -;
#X floatatom 105 204 5 0 0 0 - - -;
#X obj 100 126 f;
#X obj 325 141 / 8;
#X obj 325 168 - 64;
#X obj 325 205 i;
#X obj 67 35 inlet;
#X obj 325 28 inlet;
#X text 6 35 Override;
#X text 372 30 knob input;
#X floatatom 359 252 5 0 0 0 - - -;
#X obj 52 95 t b b;
#X obj 325 111 * 1024;
#X connect 0 0 1 0;
#X connect 0 1 2 1;
#X connect 1 0 2 0;
#X connect 2 0 3 0;
#X connect 3 0 4 0;
#X connect 3 0 1 1;
#X connect 3 0 10 0;
#X connect 4 0 5 0;
#X connect 5 0 6 0;
#X connect 6 0 8 0;
#X connect 7 0 0 0;
#X connect 7 0 9 0;
#X connect 11 0 3 0;
#X connect 12 0 13 0;
#X connect 13 0 14 1;
#X connect 14 0 11 1;
#X connect 14 0 19 0;
#X connect 15 0 20 0;
#X connect 16 0 21 0;
#X connect 20 0 11 0;
#X connect 20 1 14 0;
#X connect 21 0 12 0;
#X restore 858 256 pd encscale2;
#X obj 73 888 s auxRaw;
#X connect 3 0 14 0;
#X connect 4 0 18 0;
#X connect 7 0 15 0;
#X connect 8 0 16 0;
#X connect 11 0 17 0;
#X connect 14 0 1 0;
#X connect 15 0 6 0;
#X connect 16 0 10 0;
#X connect 17 0 13 0;
#X connect 18 0 0 0;
#X connect 20 0 21 0;
#X connect 21 0 47 0;
#X connect 21 0 51 0;
#X connect 21 1 68 0;
#X connect 21 1 69 0;
#X connect 21 2 27 0;
#X connect 21 2 66 0;
#X connect 21 3 31 0;
#X connect 22 0 2 0;
#X connect 22 0 3 0;
#X connect 23 0 5 0;
#X connect 23 0 7 0;
#X connect 24 0 9 0;
#X connect 24 0 8 0;
#X connect 25 0 12 0;
#X connect 25 0 11 0;
#X connect 26 0 4 0;
#X connect 27 0 98 1;
#X connect 28 0 27 1;
#X connect 28 0 30 0;
#X connect 28 0 67 0;
#X connect 29 0 28 0;
#X connect 30 0 31 1;
#X connect 30 0 66 1;
#X connect 30 0 69 1;
#X connect 31 0 97 1;
#X connect 32 0 33 0;
#X connect 33 0 40 0;
#X connect 33 0 34 0;
#X connect 33 0 45 0;
#X connect 33 1 35 0;
#X connect 33 2 55 0;
#X connect 35 0 38 0;
#X connect 36 0 39 0;
#X connect 36 0 82 0;
#X connect 40 0 44 0;
#X connect 41 0 40 1;
#X connect 43 0 42 0;
#X connect 44 0 37 0;
#X connect 44 0 99 0;
#X connect 45 0 43 0;
#X connect 46 0 40 0;
#X connect 47 0 95 1;
#X connect 48 0 50 0;
#X connect 48 0 51 1;
#X connect 49 0 48 0;
#X connect 50 0 47 1;
#X connect 51 0 52 0;
#X connect 52 0 53 0;
#X connect 53 0 54 0;
#X connect 55 0 36 0;
#X connect 55 1 45 1;
#X connect 55 2 41 0;
#X connect 55 3 46 0;
#X connect 56 0 79 0;
#X connect 57 0 60 0;
#X connect 57 1 62 1;
#X connect 58 0 60 0;
#X connect 58 1 61 1;
#X connect 59 0 60 0;
#X connect 59 1 60 1;
#X connect 60 0 61 0;
#X connect 61 0 62 0;
#X connect 62 0 56 0;
#X connect 63 0 64 0;
#X connect 64 0 59 0;
#X connect 64 1 58 0;
#X connect 64 2 57 0;
#X connect 66 0 96 1;
#X connect 67 0 68 1;
#X connect 68 0 97 1;
#X connect 69 0 86 1;
#X connect 70 0 71 0;
#X connect 71 0 72 0;
#X connect 72 0 74 0;
#X connect 72 1 73 0;
#X connect 72 2 75 0;
#X connect 73 0 64 0;
#X connect 74 0 64 0;
#X connect 75 0 64 0;
#X connect 76 0 65 0;
#X connect 77 0 76 0;
#X connect 78 0 77 1;
#X connect 79 0 78 0;
#X connect 79 1 77 0;
#X connect 79 2 81 0;
#X connect 80 0 77 1;
#X connect 81 0 80 0;
#X connect 82 0 83 0;
#X connect 83 0 43 0;
#X connect 84 0 95 2;
#X connect 85 0 95 0;
#X connect 86 0 23 0;
#X connect 87 0 86 0;
#X connect 88 0 86 2;
#X connect 89 0 96 0;
#X connect 90 0 96 2;
#X connect 91 0 97 0;
#X connect 92 0 97 2;
#X connect 93 0 98 2;
#X connect 94 0 98 0;
#X connect 95 0 22 0;
#X connect 96 0 24 0;
#X connect 97 0 25 0;
#X connect 98 0 26 0;
#X restore 469 74 pd analog;
#N canvas 749 273 531 242 NornsHWCom 0;
#X obj 8 180 NuiPd;
#X obj 8 56 tgl 15 0 empty empty empty 17 7 0 10 -262144 -1 -1 1 1
;
#X msg 8 112 process 1;
#X obj 8 7 loadbang;
#X obj 8 32 delay 1;
#X obj 47 149 r nuiOut;
#X obj 8 80 metro 1 10 msec;
#X connect 1 0 6 0;
#X connect 2 0 0 0;
#X connect 3 0 4 0;
#X connect 4 0 1 0;
#X connect 5 0 0 0;
#X connect 6 0 2 0;
#X restore 35 43 pd NornsHWCom;
#N canvas 809 432 403 225 OscCom 0;
#X obj 64 55 r oscOut;
#X obj 64 145 s oscIn;
#X text 28 14 OSC Messages router All the stuff stay in Norns;
#X obj 64 85 packOSC;
#X obj 64 115 unpackOSC;
#X connect 0 0 3 0;
#X connect 3 0 4 0;
#X connect 4 0 1 0;
#X restore 35 75 pd OscCom;
#X text 10 12 Communication Managers;
#X text 186 14 Led and Oled visualizations;
#X text 431 13 Physical Controllers;
#X restore 22 203 pd messageIO;
#N canvas 340 56 1452 976 MIDI 0;
#X obj 48 268 spigot 1;
#X obj 93 229 r midiInGate;
#X obj 75 331 / 127;
#X obj 75 353 s knob1;
#X obj 48 378 s knob1Override;
#X obj 48 229 change;
#X obj 232 267 spigot 1;
#X obj 277 228 r midiInGate;
#X obj 259 335 / 127;
#X obj 232 228 change;
#X obj 423 260 spigot 1;
#X obj 468 226 r midiInGate;
#X obj 450 328 / 127;
#X obj 423 226 change;
#X obj 601 266 spigot 1;
#X obj 646 232 r midiInGate;
#X obj 628 333 / 127;
#X obj 601 232 change;
#X obj 259 357 s knob2;
#X obj 450 350 s knob3;
#X obj 628 355 s knob4;
#X obj 232 382 s knob2Override;
#X obj 423 375 s knob3Override;
#X obj 601 379 s knob4Override;
#X obj 1688 267 spigot 1;
#X obj 756 663 spigot 1;
#X obj 756 695 unpack;
#X obj 756 727 noteout;
#X obj 1733 232 r midiInGate;
#X obj 1688 302 s notes;
#X obj 809 626 r midiOutGate;
#X obj 46 686 i;
#X obj 46 708 change;
#X obj 46 640 spigot 1;
#X obj 99 608 r midiOutGate;
#X obj 218 688 i;
#X obj 218 710 change;
#X obj 218 642 spigot 1;
#X obj 271 610 r midiOutGate;
#X obj 388 692 i;
#X obj 388 714 change;
#X obj 388 646 spigot 1;
#X obj 441 614 r midiOutGate;
#X obj 566 689 i;
#X obj 566 711 change;
#X obj 566 643 spigot 1;
#X obj 619 611 r midiOutGate;
#X obj 566 667 / 8;
#X obj 388 670 / 8;
#X obj 218 666 / 8;
#X obj 46 664 / 8;
#X obj 46 730 ctlout 21 1;
#X obj 218 732 ctlout 22 1;
#X obj 386 736 ctlout 23 1;
#X obj 566 733 ctlout 24 1;
#X obj 46 567 r knob1Raw;
#X obj 218 578 r knob2Raw;
#X obj 388 574 r knob3Raw;
#X obj 566 584 r knob4Raw;
#X text 48 55 MIDI in;
#X text 46 462 MIDI out;
#X obj 944 684 i;
#X obj 944 706 change;
#X obj 944 638 spigot 1;
#X obj 997 606 r midiOutGate;
#X obj 944 579 r auxRaw;
#X obj 944 662 * 127;
#X obj 944 732 ctlout 25 1;
#X obj 1260 235 spigot 1;
#X obj 1305 211 r midiInGate;
#X obj 1260 323 s aux;
#X obj 1125 675 i;
#X obj 1125 697 change;
#X obj 1125 629 spigot 1;
#X obj 1178 597 r midiOutGate;
#X obj 1125 653 * 127;
#X obj 1125 570 r fsRaw;
#X obj 1548 233 spigot 1;
#X obj 1593 208 r midiInGate;
#X obj 1548 322 s fs;
#X obj 1548 263 >= 64;
#X obj 1548 295 change;
#X obj 1260 264 >= 64;
#X obj 1260 296 change;
#N canvas 809 201 653 703 program-change-in 0;
#X obj 116 35 pgmin;
#X obj 141 361 s oscOut;
#X msg 141 332 send /pgmchg \$1;
#X obj 141 171 spigot 1;
#X obj 194 111 r midiInGate;
#X obj 232 139 loadbang;
#X obj 141 231 spigot 0;
#X msg 232 196 1;
#X obj 232 167 delay 500;
#X msg 227 234 0;
#X text 271 220 speed limit these;
#X text 43 4 program change in loads new patch;
#X obj 141 265 t f b b;
#X obj 141 298 i;
#N canvas 1101 410 681 530 chsel 0;
#X obj 159 28 r midiCh;
#X obj 67 61 swap;
#X obj 67 86 pack;
#X obj 44 29 inlet;
#X obj 97 28 inlet;
#X obj 67 347 outlet;
#X obj 67 169 route 1;
#X obj 120 211 spigot;
#X obj 159 167 == 0;
#X obj 120 234 unpack;
#X connect 0 0 6 1;
#X connect 0 0 8 0;
#X connect 1 0 2 0;
#X connect 1 1 2 1;
#X connect 2 0 6 0;
#X connect 3 0 1 0;
#X connect 4 0 1 1;
#X connect 6 0 5 0;
#X connect 6 1 7 0;
#X connect 7 0 9 0;
#X connect 8 0 7 1;
#X connect 9 1 5 0;
#X restore 115 78 pd chsel;
#X connect 0 0 14 0;
#X connect 0 1 14 1;
#X connect 2 0 1 0;
#X connect 3 0 6 0;
#X connect 4 0 3 1;
#X connect 5 0 8 0;
#X connect 6 0 12 0;
#X connect 7 0 6 1;
#X connect 8 0 7 0;
#X connect 9 0 6 1;
#X connect 12 0 13 0;
#X connect 12 1 8 0;
#X connect 12 2 9 0;
#X connect 13 0 2 0;
#X connect 14 0 3 0;
#X restore 941 41 pd program-change-in;
#X obj 1327 678 i;
#X obj 1327 700 change;
#X obj 1327 632 spigot 1;
#X obj 1380 600 r midiOutGate;
#X obj 1327 656 / 8;
#X obj 1327 573 r expRaw;
#X obj 926 270 spigot 1;
#X obj 971 236 r midiInGate;
#X obj 953 332 / 127;
#X obj 926 237 change;
#X obj 926 383 s expOverride;
#X obj 953 356 s exp;
#X obj 48 157 ctlin 21;
#X obj 1694 159 notein;
#N canvas 413 248 743 412 chsel 0;
#X obj 67 61 swap;
#X obj 67 86 pack;
#X obj 44 29 inlet;
#X obj 97 28 inlet;
#X obj 67 347 outlet;
#X obj 67 169 route 1;
#X obj 120 211 spigot;
#X obj 159 167 == 0;
#X obj 120 234 unpack;
#X obj 159 28 r midiWorkCh;
#X connect 0 0 1 0;
#X connect 0 1 1 1;
#X connect 1 0 5 0;
#X connect 2 0 0 0;
#X connect 3 0 0 1;
#X connect 5 0 4 0;
#X connect 5 1 6 0;
#X connect 6 0 8 0;
#X connect 7 0 6 1;
#X connect 8 1 4 0;
#X connect 9 0 5 1;
#X connect 9 0 7 0;
#X restore 48 188 pd chsel;
#N canvas 0 54 1280 755 chsel 0;
#X obj 187 417 pack;
#X obj 207 372 f;
#X obj 168 372 f;
#X obj 237 123 f;
#X obj 152 87 t b f;
#X obj 237 145 sel 1;
#X obj 237 325 t b b;
#X obj 117 35 inlet;
#X obj 199 37 inlet;
#X obj 274 39 inlet;
#X obj 186 444 outlet;
#X obj 325 173 spigot;
#X obj 364 129 == 0;
#X obj 302 246 bng 15 250 50 0 empty empty empty 17 7 0 10 -262144
-1 -1;
#X obj 342 33 r midiWorkCh;
#X connect 0 0 10 0;
#X connect 1 0 0 1;
#X connect 2 0 0 0;
#X connect 3 0 5 0;
#X connect 4 0 3 0;
#X connect 4 1 2 1;
#X connect 5 0 6 0;
#X connect 5 1 11 0;
#X connect 6 0 2 0;
#X connect 6 1 1 0;
#X connect 7 0 4 0;
#X connect 8 0 1 1;
#X connect 9 0 3 1;
#X connect 11 0 13 0;
#X connect 12 0 11 1;
#X connect 13 0 6 0;
#X connect 14 0 5 1;
#X connect 14 0 12 0;
#X restore 1688 207 pd chsel;
#X floatatom 48 113 5 0 0 0 - - -;
#X obj 232 163 ctlin 22;
#X obj 423 162 ctlin 23;
#X obj 601 163 ctlin 24;
#X obj 1260 161 ctlin 25;
#X obj 1260 211 change;
#X obj 1548 207 change;
#X obj 120 696 r midiOutCh;
#X obj 292 700 r midiOutCh;
#X obj 460 700 r midiOutCh;
#X obj 640 686 r midiOutCh;
#X obj 820 693 r midiOutCh;
#X obj 1018 696 r midiOutCh;
#X obj 1199 688 r midiOutCh;
#X obj 1401 689 r midiOutCh;
#N canvas 312 366 743 412 chsel 0;
#X obj 67 61 swap;
#X obj 67 86 pack;
#X obj 44 29 inlet;
#X obj 97 28 inlet;
#X obj 67 347 outlet;
#X obj 67 169 route 1;
#X obj 120 211 spigot;
#X obj 159 167 == 0;
#X obj 120 234 unpack;
#X obj 159 28 r midiWorkCh;
#X connect 0 0 1 0;
#X connect 0 1 1 1;
#X connect 1 0 5 0;
#X connect 2 0 0 0;
#X connect 3 0 0 1;
#X connect 5 0 4 0;
#X connect 5 1 6 0;
#X connect 6 0 8 0;
#X connect 7 0 6 1;
#X connect 8 1 4 0;
#X connect 9 0 5 1;
#X connect 9 0 7 0;
#X restore 232 195 pd chsel;
#N canvas 312 366 743 412 chsel 0;
#X obj 67 61 swap;
#X obj 67 86 pack;
#X obj 44 29 inlet;
#X obj 97 28 inlet;
#X obj 67 347 outlet;
#X obj 67 169 route 1;
#X obj 120 211 spigot;
#X obj 159 167 == 0;
#X obj 120 234 unpack;
#X obj 159 28 r midiWorkCh;
#X connect 0 0 1 0;
#X connect 0 1 1 1;
#X connect 1 0 5 0;
#X connect 2 0 0 0;
#X connect 3 0 0 1;
#X connect 5 0 4 0;
#X connect 5 1 6 0;
#X connect 6 0 8 0;
#X connect 7 0 6 1;
#X connect 8 1 4 0;
#X connect 9 0 5 1;
#X connect 9 0 7 0;
#X restore 423 193 pd chsel;
#N canvas 312 366 743 412 chsel 0;
#X obj 67 61 swap;
#X obj 67 86 pack;
#X obj 44 29 inlet;
#X obj 97 28 inlet;
#X obj 67 347 outlet;
#X obj 67 169 route 1;
#X obj 120 211 spigot;
#X obj 159 167 == 0;
#X obj 120 234 unpack;
#X obj 159 28 r midiWorkCh;
#X connect 0 0 1 0;
#X connect 0 1 1 1;
#X connect 1 0 5 0;
#X connect 2 0 0 0;
#X connect 3 0 0 1;
#X connect 5 0 4 0;
#X connect 5 1 6 0;
#X connect 6 0 8 0;
#X connect 7 0 6 1;
#X connect 8 1 4 0;
#X connect 9 0 5 1;
#X connect 9 0 7 0;
#X restore 601 199 pd chsel;
#N canvas 312 366 743 412 chsel 0;
#X obj 67 61 swap;
#X obj 67 86 pack;
#X obj 44 29 inlet;
#X obj 97 28 inlet;
#X obj 67 347 outlet;
#X obj 67 169 route 1;
#X obj 120 211 spigot;
#X obj 159 167 == 0;
#X obj 120 234 unpack;
#X obj 159 28 r midiWorkCh;
#X connect 0 0 1 0;
#X connect 0 1 1 1;
#X connect 1 0 5 0;
#X connect 2 0 0 0;
#X connect 3 0 0 1;
#X connect 5 0 4 0;
#X connect 5 1 6 0;
#X connect 6 0 8 0;
#X connect 7 0 6 1;
#X connect 8 1 4 0;
#X connect 9 0 5 1;
#X connect 9 0 7 0;
#X restore 1260 187 pd chsel;
#N canvas 312 366 743 412 chsel 0;
#X obj 67 61 swap;
#X obj 67 86 pack;
#X obj 44 29 inlet;
#X obj 97 28 inlet;
#X obj 67 347 outlet;
#X obj 67 169 route 1;
#X obj 120 211 spigot;
#X obj 159 167 == 0;
#X obj 120 234 unpack;
#X obj 159 28 r midiWorkCh;
#X connect 0 0 1 0;
#X connect 0 1 1 1;
#X connect 1 0 5 0;
#X connect 2 0 0 0;
#X connect 3 0 0 1;
#X connect 5 0 4 0;
#X connect 5 1 6 0;
#X connect 6 0 8 0;
#X connect 7 0 6 1;
#X connect 8 1 4 0;
#X connect 9 0 5 1;
#X connect 9 0 7 0;
#X restore 1548 185 pd chsel;
#N canvas 312 366 743 412 chsel 0;
#X obj 67 61 swap;
#X obj 67 86 pack;
#X obj 44 29 inlet;
#X obj 97 28 inlet;
#X obj 67 347 outlet;
#X obj 67 169 route 1;
#X obj 120 211 spigot;
#X obj 159 167 == 0;
#X obj 120 234 unpack;
#X obj 159 28 r midiWorkCh;
#X connect 0 0 1 0;
#X connect 0 1 1 1;
#X connect 1 0 5 0;
#X connect 2 0 0 0;
#X connect 3 0 0 1;
#X connect 5 0 4 0;
#X connect 5 1 6 0;
#X connect 6 0 8 0;
#X connect 7 0 6 1;
#X connect 8 1 4 0;
#X connect 9 0 5 1;
#X connect 9 0 7 0;
#X restore 926 205 pd chsel;
#X obj 133 86 r midiInGate;
#X floatatom 133 113 5 0 0 0 - - -;
#X floatatom 48 527 5 0 0 0 - - -;
#X floatatom 132 527 5 0 0 0 - - -;
#X obj 48 498 r midiOutCh;
#X obj 132 496 r midiOutGate;
#N canvas 310 79 892 657 readMidiInfo 0;
#X obj 162 191 textfile;
#X msg 179 135 rewind;
#X obj 145 89 t b b b b;
#X floatatom 123 258 5 0 0 0 - - -;
#X floatatom 209 258 5 0 0 0 - - -;
#X msg 235 135 read midi.txt, f 17;
#X obj 145 224 unpack f f f f, f 35;
#X floatatom 294 258 5 0 0 0 - - -;
#X floatatom 374 258 5 0 0 0 - - -;
#X obj 209 294 s midiInGate;
#X obj 63 292 s midiCh;
#X obj 374 294 s midiOutGate;
#X obj 294 294 s midiOutCh;
#X obj 145 34 loadbang;
#X obj 145 60 bng 15 250 50 0 empty empty empty 17 7 0 10 -262144 -1
-1;
#X text 51 60 Force Read -->;
#X obj 123 293 s midiWorkCh;
#X msg 64 203 17;
#X connect 0 0 6 0;
#X connect 1 0 0 0;
#X connect 2 0 6 0;
#X connect 2 0 17 0;
#X connect 2 1 0 0;
#X connect 2 2 1 0;
#X connect 2 3 5 0;
#X connect 3 0 16 0;
#X connect 4 0 9 0;
#X connect 5 0 0 0;
#X connect 6 0 3 0;
#X connect 6 1 4 0;
#X connect 6 2 7 0;
#X connect 6 3 8 0;
#X connect 7 0 12 0;
#X connect 8 0 11 0;
#X connect 13 0 14 0;
#X connect 14 0 2 0;
#X connect 17 0 10 0;
#X restore 939 15 pd readMidiInfo;
#X text 580 16 All MIDI in/out conf. info are get from the midi.txt
file;
#X text 790 42 Manage Program Changes;
#X obj 1541 568 r ledStateRaw;
#X obj 1540 672 i;
#X obj 1540 694 change;
#X obj 1540 626 spigot 1;
#X obj 1593 594 r midiOutGate;
#X obj 1614 683 r midiOutCh;
#X obj 1540 716 ctlout 27 1;
#X obj 1540 650 * 18;
#X text 1481 527 Sends the led state 0->7 to CC-27 0=OFF \, 1=RED \,
2=BLUE \, 3=GREEN \, 4=PURPLE...;
#X obj 769 267 spigot 1;
#X obj 814 232 r midiInGate;
#X obj 796 331 / 127;
#X obj 769 232 change;
#N canvas 312 366 743 412 chsel 0;
#X obj 67 61 swap;
#X obj 67 86 pack;
#X obj 44 29 inlet;
#X obj 97 28 inlet;
#X obj 67 347 outlet;
#X obj 67 169 route 1;
#X obj 120 211 spigot;
#X obj 159 167 == 0;
#X obj 120 234 unpack;
#X obj 159 28 r midiWorkCh;
#X connect 0 0 1 0;
#X connect 0 1 1 1;
#X connect 1 0 5 0;
#X connect 2 0 0 0;
#X connect 3 0 0 1;
#X connect 5 0 4 0;
#X connect 5 1 6 0;
#X connect 6 0 8 0;
#X connect 7 0 6 1;
#X connect 8 1 4 0;
#X connect 9 0 5 1;
#X connect 9 0 7 0;
#X restore 769 200 pd chsel;
#X obj 769 164 ctlin 7;
#X obj 769 380 s volOverride;
#X obj 796 356 s vol;
#X obj 232 297 t b f;
#X obj 48 298 t b f;
#X obj 423 290 t b f;
#X obj 601 296 t b f;
#X obj 769 297 t b f;
#X obj 926 303 t b f;
#X obj 1406 234 spigot 1;
#X obj 1451 210 r midiInGate;
#X obj 1406 263 >= 64;
#X obj 1406 295 change;
#X obj 1406 210 change;
#N canvas 312 366 743 412 chsel 0;
#X obj 67 61 swap;
#X obj 67 86 pack;
#X obj 44 29 inlet;
#X obj 97 28 inlet;
#X obj 67 347 outlet;
#X obj 67 169 route 1;
#X obj 120 211 spigot;
#X obj 159 167 == 0;
#X obj 120 234 unpack;
#X obj 159 28 r midiWorkCh;
#X connect 0 0 1 0;
#X connect 0 1 1 1;
#X connect 1 0 5 0;
#X connect 2 0 0 0;
#X connect 3 0 0 1;
#X connect 5 0 4 0;
#X connect 5 1 6 0;
#X connect 6 0 8 0;
#X connect 7 0 6 1;
#X connect 8 1 4 0;
#X connect 9 0 5 1;
#X connect 9 0 7 0;
#X restore 1406 186 pd chsel;
#X obj 1406 322 s encbut;
#X obj 926 165 ctlin 11;
#X obj 1548 161 ctlin 4;
#X obj 1125 723 ctlout 4 1;
#X obj 1327 722 ctlout 11 1;
#X obj 1406 160 ctlin 26;
#X obj 1086 272 spigot 1;
#X obj 1131 238 r midiInGate;
#N canvas 312 366 743 412 chsel 0;
#X obj 67 61 swap;
#X obj 67 86 pack;
#X obj 44 29 inlet;
#X obj 97 28 inlet;
#X obj 67 347 outlet;
#X obj 67 169 route 1;
#X obj 120 211 spigot;
#X obj 159 167 == 0;
#X obj 120 234 unpack;
#X obj 159 28 r midiWorkCh;
#X connect 0 0 1 0;
#X connect 0 1 1 1;
#X connect 1 0 5 0;
#X connect 2 0 0 0;
#X connect 3 0 0 1;
#X connect 5 0 4 0;
#X connect 5 1 6 0;
#X connect 6 0 8 0;
#X connect 7 0 6 1;
#X connect 8 1 4 0;
#X connect 9 0 5 1;
#X connect 9 0 7 0;
#X restore 1086 207 pd chsel;
#X obj 1086 167 ctlin 28;
#N canvas 707 206 570 475 midiEnc 0;
#X obj 162 17 inlet;
#X obj 186 379 outlet;
#X obj 186 108 -;
#X obj 162 43 t f b f;
#X obj 162 79 f;
#X obj 186 133 clip -1 1;
#X obj 186 264 f;
#X obj 186 162 t b f;
#X msg 246 219 1;
#X msg 213 219 0;
#X obj 213 186 sel -1 1 0;
#X obj 186 345 spigot 1;
#X obj 355 248 f;
#X obj 285 218 t b b b;
#X obj 285 262 f;
#X msg 242 263 1;
#X msg 328 323 0;
#X obj 395 248 + 1;
#X obj 383 282 sel 1 0;
#X msg 378 322 1;
#X connect 0 0 3 0;
#X connect 2 0 5 0;
#X connect 3 0 4 1;
#X connect 3 1 4 0;
#X connect 3 2 2 1;
#X connect 4 0 2 0;
#X connect 5 0 7 0;
#X connect 6 0 11 0;
#X connect 7 0 6 0;
#X connect 7 1 10 0;
#X connect 8 0 6 1;
#X connect 8 0 15 0;
#X connect 9 0 6 1;
#X connect 9 0 15 0;
#X connect 10 0 9 0;
#X connect 10 1 8 0;
#X connect 10 2 13 0;
#X connect 11 0 1 0;
#X connect 12 0 17 0;
#X connect 12 0 18 0;
#X connect 13 0 14 0;
#X connect 13 2 12 0;
#X connect 14 0 11 1;
#X connect 15 0 11 1;
#X connect 15 0 12 1;
#X connect 16 0 12 1;
#X connect 16 0 14 1;
#X connect 17 0 12 1;
#X connect 18 0 16 0;
#X connect 18 1 19 0;
#X connect 19 0 14 1;
#X restore 1086 314 pd midiEnc;
#X obj 1086 355 s enc;
#X obj 23 753 s MidiOut;
#X obj 192 757 s MidiOut;
#X obj 352 759 s MidiOut;
#X obj 544 754 s MidiOut;
#X obj 733 751 s MidiOut;
#X obj 912 752 s MidiOut;
#X obj 1106 751 s MidiOut;
#X obj 1298 743 s MidiOut;
#X obj 1509 739 s MidiOut;
#X obj 1748 302 s notesRaw;
#X obj 48 86 r midiWorkCh;
#X obj 756 589 r notesRaw;
#N canvas 0 54 450 300 midiClock 0;
#X obj 76 19 midirealtimein;
#X obj 76 64 sel 248, f 8;
#X connect 0 0 1 0;
#X restore 940 69 pd midiClock;
#X connect 0 0 149 0;
#X connect 1 0 0 1;
#X connect 2 0 3 0;
#X connect 5 0 0 0;
#X connect 6 0 148 0;
#X connect 7 0 6 1;
#X connect 8 0 18 0;
#X connect 9 0 6 0;
#X connect 10 0 150 0;
#X connect 11 0 10 1;
#X connect 12 0 19 0;
#X connect 13 0 10 0;
#X connect 14 0 151 0;
#X connect 15 0 14 1;
#X connect 16 0 20 0;
#X connect 17 0 14 0;
#X connect 24 0 29 0;
#X connect 24 0 181 0;
#X connect 25 0 26 0;
#X connect 25 0 176 0;
#X connect 26 0 27 0;
#X connect 26 1 27 1;
#X connect 28 0 24 1;
#X connect 30 0 25 1;
#X connect 31 0 32 0;
#X connect 32 0 51 0;
#X connect 32 0 172 0;
#X connect 33 0 50 0;
#X connect 34 0 33 1;
#X connect 35 0 36 0;
#X connect 36 0 52 0;
#X connect 36 0 173 0;
#X connect 37 0 49 0;
#X connect 38 0 37 1;
#X connect 39 0 40 0;
#X connect 40 0 53 0;
#X connect 40 0 174 0;
#X connect 41 0 48 0;
#X connect 42 0 41 1;
#X connect 43 0 44 0;
#X connect 44 0 54 0;
#X connect 44 0 175 0;
#X connect 45 0 47 0;
#X connect 46 0 45 1;
#X connect 47 0 43 0;
#X connect 48 0 39 0;
#X connect 49 0 35 0;
#X connect 50 0 31 0;
#X connect 55 0 33 0;
#X connect 56 0 37 0;
#X connect 57 0 41 0;
#X connect 58 0 45 0;
#X connect 61 0 62 0;
#X connect 62 0 67 0;
#X connect 62 0 177 0;
#X connect 63 0 66 0;
#X connect 64 0 63 1;
#X connect 65 0 63 0;
#X connect 66 0 61 0;
#X connect 68 0 82 0;
#X connect 69 0 68 1;
#X connect 71 0 72 0;
#X connect 72 0 163 0;
#X connect 72 0 178 0;
#X connect 73 0 75 0;
#X connect 74 0 73 1;
#X connect 75 0 71 0;
#X connect 76 0 73 0;
#X connect 77 0 80 0;
#X connect 78 0 77 1;
#X connect 80 0 81 0;
#X connect 81 0 79 0;
#X connect 82 0 83 0;
#X connect 83 0 70 0;
#X connect 85 0 86 0;
#X connect 86 0 164 0;
#X connect 86 0 179 0;
#X connect 87 0 89 0;
#X connect 88 0 87 1;
#X connect 89 0 85 0;
#X connect 90 0 87 0;
#X connect 91 0 153 0;
#X connect 92 0 91 1;
#X connect 93 0 96 0;
#X connect 94 0 91 0;
#X connect 97 0 99 0;
#X connect 97 1 99 1;
#X connect 98 0 100 0;
#X connect 98 1 100 1;
#X connect 98 2 100 2;
#X connect 99 0 5 0;
#X connect 100 0 24 0;
#X connect 102 0 116 0;
#X connect 102 1 116 1;
#X connect 103 0 117 0;
#X connect 103 1 117 1;
#X connect 104 0 118 0;
#X connect 104 1 118 1;
#X connect 105 0 119 0;
#X connect 105 1 119 1;
#X connect 106 0 68 0;
#X connect 107 0 77 0;
#X connect 108 0 51 2;
#X connect 109 0 52 2;
#X connect 110 0 53 2;
#X connect 111 0 54 2;
#X connect 112 0 27 2;
#X connect 113 0 67 2;
#X connect 114 0 163 2;
#X connect 115 0 164 2;
#X connect 116 0 9 0;
#X connect 117 0 13 0;
#X connect 118 0 17 0;
#X connect 119 0 106 0;
#X connect 120 0 107 0;
#X connect 121 0 94 0;
#X connect 122 0 123 0;
#X connect 126 0 124 0;
#X connect 127 0 125 0;
#X connect 131 0 134 0;
#X connect 132 0 133 0;
#X connect 133 0 137 0;
#X connect 133 0 180 0;
#X connect 134 0 138 0;
#X connect 135 0 134 1;
#X connect 136 0 137 2;
#X connect 138 0 132 0;
#X connect 140 0 152 0;
#X connect 141 0 140 1;
#X connect 142 0 147 0;
#X connect 143 0 140 0;
#X connect 144 0 143 0;
#X connect 145 0 144 0;
#X connect 145 1 144 1;
#X connect 148 0 21 0;
#X connect 148 1 8 0;
#X connect 149 0 4 0;
#X connect 149 1 2 0;
#X connect 150 0 22 0;
#X connect 150 1 12 0;
#X connect 151 0 23 0;
#X connect 151 1 16 0;
#X connect 152 0 146 0;
#X connect 152 1 142 0;
#X connect 153 0 95 0;
#X connect 153 1 93 0;
#X connect 154 0 156 0;
#X connect 155 0 154 1;
#X connect 156 0 157 0;
#X connect 157 0 160 0;
#X connect 158 0 154 0;
#X connect 159 0 158 0;
#X connect 161 0 121 0;
#X connect 161 1 121 1;
#X connect 162 0 120 0;
#X connect 162 1 120 1;
#X connect 165 0 159 0;
#X connect 165 1 159 1;
#X connect 166 0 170 0;
#X connect 167 0 166 1;
#X connect 168 0 166 0;
#X connect 169 0 168 0;
#X connect 169 1 168 1;
#X connect 170 0 171 0;
#X connect 182 0 101 0;
#X connect 183 0 25 0;
#X coords 0 0 5 1 0 0 0;
#X restore 22 231 pd MIDI;
#X text 294 371 aux button;
#X text 411 371 keyboard;
#N canvas 739 177 541 549 menuControl 0;
#X obj 139 196 s oscOut;
#X msg 112 144 send /gohome 1;
#X obj 231 87 r enableSubMenu;
#X obj 112 111 bang;
#X obj 112 89 r goHome;
#X msg 231 143 send /enablepatchsub 1;
#X obj 231 115 bang;
#X text 64 10 If we get a bang to enableSubMenu we start recieving
messages from the selector encoder. A goHome menu returns to the Organelle
main menu.;
#X obj 122 319 r oscIn;
#X obj 122 389 bng 15 250 50 0 empty empty empty 17 7 0 10 -262144
-1 -1;
#X obj 122 354 routeOSC /gohome;
#X obj 122 419 s Save;
#X obj 212 421 s exit;
#X connect 1 0 0 0;
#X connect 2 0 6 0;
#X connect 3 0 1 0;
#X connect 4 0 3 0;
#X connect 5 0 0 0;
#X connect 6 0 5 0;
#X connect 8 0 10 0;
#X connect 9 0 11 0;
#X connect 9 0 12 0;
#X connect 10 0 9 0;
#X restore 21 284 pd menuControl;
#N canvas 518 364 404 139 META 0;
#X text 12 25 LICENSE BSD;
#X text 12 45 DESCRIPTION: This patch bridges Norns hardware and Pd
;
#X text 12 65 WEBSITE https://github.com/oxbown;
#X text 12 105 VERSION 1.0.1;
#X text 12 85 AUTHOR Oxbown (based on Critter & Guitari Mother);
#X text 12 5 KEYWORDS NornsMother;
#X restore 23 23 pd META;
#N canvas 295 201 867 378 init 0;
#X msg 54 265 \; pd dsp 1, f 10;
#X obj 54 217 delay 200;
#X obj 144 217 delay 100;
#X obj 296 107 inlet;
#N canvas 115 24 1165 754 checkAndRecallKnobState 0;
#X obj 426 503 textfile;
#X obj 505 154 sel 1;
#X msg 177 177 rewind;
#X obj 140 119 bng 15 250 50 0 empty empty empty 17 7 0 10 -262144
-1 -1;
#X obj 140 141 t b b b;
#X obj 652 186 r knob1;
#X obj 710 186 r knob2;
#X obj 774 186 r knob3;
#X obj 839 186 r knob4;
#X msg 553 209 set;
#X obj 602 265 list trim;
#X obj 228 580 t b f;
#X obj 228 698 s recallState;
#X obj 505 94 r oscIn;
#X obj 505 124 routeOSC /saveState;
#X obj 359 218 s saveState;
#X obj 505 184 t b b b;
#X text 266 22 Save and recall knob states. We always save to the /tmp/state
directory which gets copied to the current patch or new patch whe the
Save or Save New system command is selected.;
#X obj 282 647 s knob1;
#X obj 255 671 s knob1Override;
#X obj 140 93 inlet;
#X obj 387 643 s knob2;
#X obj 360 670 s knob2Override;
#X obj 489 642 s knob3;
#X obj 462 669 s knob3Override;
#X obj 589 643 s knob4;
#X obj 562 668 s knob4Override;
#X msg 427 117 1;
#X obj 427 85 r Save;
#X msg 248 170 read knobs.txt;
#X msg 398 268 write knobs.txt;
#X obj 367 158 print SAVE VALUES!;
#X obj 602 236 pack s 0 0 0 0 0;
#X obj 898 187 r vol;
#X obj 426 527 unpack 0 0 0 0 0;
#X obj 690 639 s vol;
#X obj 663 667 s volOverride;
#X obj 255 613 t b f;
#X obj 360 609 t b f;
#X obj 462 609 t b f;
#X obj 562 604 t b f;
#X obj 663 601 t b f;
#X connect 0 0 34 0;
#X connect 1 0 16 0;
#X connect 2 0 0 0;
#X connect 3 0 4 0;
#X connect 4 0 0 0;
#X connect 4 1 2 0;
#X connect 4 2 29 0;
#X connect 5 0 32 1;
#X connect 6 0 32 2;
#X connect 7 0 32 3;
#X connect 8 0 32 4;
#X connect 9 0 32 0;
#X connect 10 0 0 0;
#X connect 11 0 12 0;
#X connect 11 1 37 0;
#X connect 13 0 14 0;
#X connect 14 0 1 0;
#X connect 16 0 15 0;
#X connect 16 1 30 0;
#X connect 16 2 9 0;
#X connect 20 0 3 0;
#X connect 27 0 1 0;
#X connect 28 0 27 0;
#X connect 28 0 31 0;
#X connect 29 0 0 0;
#X connect 30 0 0 0;
#X connect 32 0 10 0;
#X connect 33 0 32 5;
#X connect 34 0 11 0;
#X connect 34 1 38 0;
#X connect 34 2 39 0;
#X connect 34 3 40 0;
#X connect 34 4 41 0;
#X connect 37 0 19 0;
#X connect 37 1 18 0;
#X connect 38 0 22 0;
#X connect 38 1 21 0;
#X connect 39 0 24 0;
#X connect 39 1 23 0;
#X connect 40 0 26 0;
#X connect 40 1 25 0;
#X connect 41 0 36 0;
#X connect 41 1 35 0;
#X restore 144 265 pd checkAndRecallKnobState;
#X text 53 18 1 check for basic knobs.txt preset file to override knob
values;
#X text 55 56 2 signal mother host patch is loaded \, casuing initial
knob values to be sent.;
#X text 54 96 3 start audio;
#X obj 296 142 t b b b b;
#N canvas 995 282 450 300 knobinit 0;
#X obj 159 44 inlet;
#X obj 62 147 s knob1;
#X obj 116 147 s knob2;
#X obj 165 147 s knob3;
#X obj 215 147 s knob4;
#X obj 268 147 s vol;
#X msg 159 103 0.5;
#X msg 201 103 0;
#X obj 313 147 s exp;
#X text 112 14 Initialize knobs values.;
#X connect 0 0 6 0;
#X connect 0 0 7 0;
#X connect 6 0 1 0;
#X connect 6 0 5 0;
#X connect 6 0 4 0;
#X connect 6 0 3 0;
#X connect 6 0 2 0;
#X connect 7 0 8 0;
#X restore 522 266 pd knobinit;
#X obj 522 218 delay 1;
#X obj 340 253 s oscOut;
#X msg 340 222 /oled/gShowInfoBar 3 1;
#N canvas 0 23 450 300 CPU-load 0;
#X floatatom 118 256 0 0 0 0 - - -;
#X obj 118 168 cputime;
#X obj 118 28 loadbang;
#X obj 118 112 metro 1000;
#X msg 118 56 1;
#X floatatom 118 84 0 0 0 0 - - -;
#X obj 118 140 t b b;
#X obj 118 228 * 0.1;
#X obj 118 197 int;
#X text 163 84 <-- on/off;
#X obj 118 279 s CPU;
#X connect 0 0 10 0;
#X connect 1 0 8 0;
#X connect 2 0 4 0;
#X connect 3 0 6 0;
#X connect 4 0 5 0;
#X connect 5 0 3 0;
#X connect 6 0 1 0;
#X connect 6 1 1 1;
#X connect 7 0 0 0;
#X connect 8 0 7 0;
#X restore 448 16 pd CPU-load;
#X connect 1 0 0 0;
#X connect 2 0 4 0;
#X connect 3 0 8 0;
#X connect 8 0 1 0;
#X connect 8 1 2 0;
#X connect 8 2 12 0;
#X connect 8 3 10 0;
#X connect 10 0 9 0;
#X connect 12 0 11 0;
#X restore 21 104 pd init;
#X obj 665 182 vsl 15 128 0 1 0 0 empty empty empty 0 -9 0 10 -262144
-1 -1 9137 1;
#X obj 665 148 r vol;
#X text 542 371 foot switch;
#X text 629 121 Volume Control;
#X text 542 121 Expr. pedal;
#X obj 678 471 tgl 15 0 empty empty empty 17 7 0 10 -262144 -1 -1 0
1;
#X obj 678 409 r encbut;
#X obj 760 410 r enc;
#X text 715 371 Encoder;
#X text 681 390 Button;
#X text 762 388 Knob;
#X obj 194 396 r funcBut;
#X obj 194 420 tgl 15 0 empty empty empty 17 7 0 10 -262144 -1 -1 0
1;
#X text 173 371 function button;
#X obj 731 471 bng 15 250 50 0 empty empty empty 17 7 0 10 -262144
-1 -1;
#X obj 810 471 bng 15 250 50 0 empty empty empty 17 7 0 10 -262144
-1 -1;
#X text 710 493 Left Turn;
#X text 783 492 Right Turn;
#X obj 119 400 cnv 17 17 17 empty empty empty 20 12 0 14 -1 -262144
0;
#X obj 120 401 cnv 15 15 15 empty led-canvas empty 20 12 0 14 -44926
-262144 0;
#X text 116 371 LED;
#N canvas 200 58 606 300 onClose 0;
#X obj 59 114 t b b;
#X obj 59 64 r exit;
#X text 22 18 When mother is closed...;
#X obj 58 159 delay 200;
#X connect 0 0 3 0;
#X connect 1 0 0 0;
#X restore 21 325 pd onClose;
#X obj 760 439 sel 0 1;
#X text 810 159 MIDI SIGNAL;
#X text 798 184 IN;
#X text 860 185 OUT;
#X obj 801 227 tgl 15 0 empty empty empty 17 7 0 10 -262144 -1 -1 0
1;
#X obj 866 227 tgl 15 0 empty empty empty 17 7 0 10 -262144 -1 -1 0
1;
#X text 374 121 KNOBS;
#X floatatom 855 395 5 0 0 1 CPU% CPU -;
#X text 844 371 System Info;
#X text 269 19 Norns Mother Patch. This patch is the bridge between
the Norns hardware and Pd. It should not need to be edited under most
circumstances.;
#X connect 0 0 26 0;
#X connect 1 0 2 0;
#X connect 6 0 3 0;
#X connect 7 0 4 0;
#X connect 8 0 5 0;
#X connect 10 0 11 0;
#X connect 11 0 12 0;
#X connect 11 1 13 0;
#X connect 14 0 15 0;
#X connect 16 0 17 0;
#X connect 18 0 9 0;
#X connect 28 0 27 0;
#X connect 33 0 32 0;
#X connect 34 0 49 0;
#X connect 38 0 39 0;
#X connect 49 0 41 0;
#X connect 49 1 42 0;
