#N canvas 0 50 1280 656 10;
#X obj 289 255 v p1k1;
#X obj 351 254 v p1k2;
#X obj 410 252 v p1k3;
#X obj 468 251 v p1k4;
#X obj 21 70 bng 15 250 50 0 empty empty empty 17 7 0 10 -262144 -1
-1;
#X msg 263 411 set;
#X obj 282 496 list trim;
#X obj 275 534 textfile;
#X obj 21 105 t b b b;
#X obj 20 30 r saveState;
#X obj 282 473 pack s 0 0 0 0 0 0 0 0 0 0 0 0 0 0 0 0;
#X obj 523 254 v p2k1;
#X obj 585 253 v p2k2;
#X obj 644 251 v p2k3;
#X obj 702 250 v p2k4;
#X obj 940 246 v p3k4;
#X obj 882 247 v p3k3;
#X obj 823 249 v p3k2;
#X obj 761 250 v p3k1;
#X obj 999 248 v p4k1;
#X obj 1061 247 v p4k2;
#X obj 1120 245 v p4k3;
#X obj 1178 244 v p4k4;
#X obj 299 178 t b b b b b b b b b b b b b b b b, f 74;
#X msg 12 257 write /home/we/sidekick/mother/pagevals.txt;
#X connect 0 0 10 1;
#X connect 1 0 10 2;
#X connect 2 0 10 3;
#X connect 3 0 10 4;
#X connect 4 0 8 0;
#X connect 5 0 10 0;
#X connect 6 0 7 0;
#X connect 8 0 24 0;
#X connect 8 1 5 0;
#X connect 8 2 23 0;
#X connect 9 0 4 0;
#X connect 10 0 6 0;
#X connect 11 0 10 5;
#X connect 12 0 10 6;
#X connect 13 0 10 7;
#X connect 14 0 10 8;
#X connect 15 0 10 12;
#X connect 16 0 10 11;
#X connect 17 0 10 10;
#X connect 18 0 10 9;
#X connect 19 0 10 13;
#X connect 20 0 10 14;
#X connect 21 0 10 15;
#X connect 22 0 10 16;
#X connect 23 0 0 0;
#X connect 23 1 1 0;
#X connect 23 2 2 0;
#X connect 23 3 3 0;
#X connect 23 4 11 0;
#X connect 23 5 12 0;
#X connect 23 6 13 0;
#X connect 23 7 14 0;
#X connect 23 8 18 0;
#X connect 23 9 17 0;
#X connect 23 10 16 0;
#X connect 23 11 15 0;
#X connect 23 12 19 0;
#X connect 23 13 20 0;
#X connect 23 14 21 0;
#X connect 23 15 22 0;
#X connect 24 0 7 0;
